<svg xmlns="http://www.w3.org/2000/svg" xmlns:xlink="http://www.w3.org/1999/xlink" width="500" zoomAndPan="magnify" viewBox="0 0 375 374.999991" height="500" preserveAspectRatio="xMidYMid meet" version="1.0"><defs><g/><clipPath id="f5d4fe08ab"><path d="M 0.359375 2 L 50 2 L 50 41 L 0.359375 41 Z M 0.359375 2 " clip-rule="nonzero"/></clipPath><clipPath id="f044bed455"><path d="M 312 3 L 348.839844 3 L 348.839844 56 L 312 56 Z M 312 3 " clip-rule="nonzero"/></clipPath><clipPath id="7236c7a276"><rect x="0" width="349" y="0" height="57"/></clipPath></defs><g transform="matrix(1, 0, 0, 1, 9, 146)"><g clip-path="url(#7236c7a276)"><g clip-path="url(#f5d4fe08ab)"><g fill="#000000" fill-opacity="1"><g transform="translate(1.820327, 38.636588)"><g><path d="M 43.078125 -31.46875 C 46.234375 -29.59375 47.8125 -27.332031 47.8125 -24.6875 C 47.8125 -22.601562 46.648438 -20.367188 44.328125 -17.984375 C 42.992188 -16.585938 41.410156 -15.382812 39.578125 -14.375 C 37.742188 -13.363281 35.9375 -12.632812 34.15625 -12.1875 C 31.0625 -11.445312 28.265625 -11.078125 25.765625 -11.078125 C 25.222656 -11.078125 24.6875 -11.085938 24.15625 -11.109375 C 21.976562 -7.929688 19.742188 -5.222656 17.453125 -2.984375 C 14.085938 0.160156 10.382812 1.734375 6.34375 1.734375 C 2.46875 1.734375 0.0859375 0.679688 -0.796875 -1.421875 C -1.003906 -1.929688 -1.109375 -2.519531 -1.109375 -3.1875 C -1.109375 -3.863281 -0.769531 -4.585938 -0.09375 -5.359375 C 0.976562 -6.578125 2.484375 -7.1875 4.421875 -7.1875 C 5.671875 -7.1875 6.976562 -6.960938 8.34375 -6.515625 C 8.851562 -6.335938 9.035156 -6.144531 8.890625 -5.9375 C 8.765625 -5.820312 8.375 -5.878906 7.71875 -6.109375 C 7.070312 -6.347656 6.265625 -6.46875 5.296875 -6.46875 C 4.328125 -6.46875 3.476562 -6.101562 2.75 -5.375 C 2.019531 -4.644531 1.65625 -3.863281 1.65625 -3.03125 C 1.65625 -2.707031 1.710938 -2.378906 1.828125 -2.046875 C 2.304688 -0.441406 3.660156 0.359375 5.890625 0.359375 C 9.222656 0.359375 12.5 -1.1875 15.71875 -4.28125 C 18.007812 -6.519531 20.582031 -10.539062 23.4375 -16.34375 C 24.539062 -18.507812 25.910156 -20.925781 27.546875 -23.59375 C 29.179688 -26.257812 30.847656 -28.539062 32.546875 -30.4375 C 32.753906 -30.644531 33.019531 -30.914062 33.34375 -31.25 C 33.96875 -31.957031 34.488281 -32.519531 34.90625 -32.9375 C 32.769531 -33.238281 30.476562 -33.390625 28.03125 -33.390625 C 25.59375 -33.390625 23.285156 -33.1875 21.109375 -32.78125 C 18.941406 -32.382812 17.050781 -31.910156 15.4375 -31.359375 C 13.832031 -30.804688 12.203125 -30.09375 10.546875 -29.21875 C 8.898438 -28.34375 7.515625 -27.234375 6.390625 -25.890625 C 4.898438 -24.191406 4.15625 -22.421875 4.15625 -20.578125 C 4.15625 -19.453125 4.554688 -18.394531 5.359375 -17.40625 C 6.222656 -16.363281 7.332031 -15.84375 8.6875 -15.84375 C 10.039062 -15.84375 11.347656 -16.363281 12.609375 -17.40625 C 13.878906 -18.445312 14.78125 -19.726562 15.3125 -21.25 C 15.34375 -21.457031 15.410156 -21.597656 15.515625 -21.671875 C 15.617188 -21.742188 15.710938 -21.734375 15.796875 -21.640625 C 15.890625 -21.554688 15.9375 -21.410156 15.9375 -21.203125 C 15.90625 -19.265625 15.148438 -17.738281 13.671875 -16.625 C 12.203125 -15.507812 10.578125 -14.953125 8.796875 -14.953125 C 6.773438 -14.953125 5.125 -15.546875 3.84375 -16.734375 C 2.5625 -17.929688 1.921875 -19.46875 1.921875 -21.34375 C 1.921875 -23.0625 2.378906 -24.613281 3.296875 -26 C 4.222656 -27.382812 5.328125 -28.507812 6.609375 -29.375 C 7.890625 -30.238281 9.363281 -31.007812 11.03125 -31.6875 C 13.851562 -32.820312 16.816406 -33.617188 19.921875 -34.078125 C 23.035156 -34.546875 25.9375 -34.78125 28.625 -34.78125 C 31.320312 -34.78125 33.816406 -34.539062 36.109375 -34.0625 C 37.179688 -34.894531 38.117188 -35.457031 38.921875 -35.75 C 39.734375 -36.050781 40.191406 -36.203125 40.296875 -36.203125 C 40.398438 -36.203125 40.460938 -36.1875 40.484375 -36.15625 C 40.671875 -36.15625 40.710938 -36.054688 40.609375 -35.859375 C 40.503906 -35.671875 40.160156 -35.382812 39.578125 -35 C 38.992188 -34.613281 38.4375 -34.148438 37.90625 -33.609375 C 39.8125 -33.109375 41.535156 -32.394531 43.078125 -31.46875 Z M 25.40625 -12.046875 C 27.570312 -12.046875 29.925781 -12.425781 32.46875 -13.1875 C 35.019531 -13.945312 37.273438 -15.054688 39.234375 -16.515625 C 43.046875 -19.398438 44.953125 -22.375 44.953125 -25.4375 C 44.953125 -28.925781 42.316406 -31.296875 37.046875 -32.546875 C 35.378906 -30.222656 33.222656 -26.691406 30.578125 -21.953125 C 27.929688 -17.222656 26 -13.921875 24.78125 -12.046875 C 24.988281 -12.046875 25.195312 -12.046875 25.40625 -12.046875 Z M 25.40625 -12.046875 "/></g></g></g></g><g fill="#000000" fill-opacity="1"><g transform="translate(42.799687, 38.636588)"><g><path d="M 8.578125 -17.90625 C 8.578125 -16.5625 7.726562 -15.296875 6.03125 -14.109375 C 6.625 -14.078125 7.414062 -14.0625 8.40625 -14.0625 C 9.40625 -14.0625 10.664062 -14.132812 12.1875 -14.28125 C 12.25 -14.195312 12.28125 -13.957031 12.28125 -13.5625 C 12.28125 -13.175781 12.097656 -12.601562 11.734375 -11.84375 C 11.378906 -11.09375 11.0625 -10.441406 10.78125 -9.890625 C 10.5 -9.335938 10.226562 -8.816406 9.96875 -8.328125 C 9.71875 -7.835938 9.4375 -7.234375 9.125 -6.515625 C 8.8125 -5.804688 8.550781 -5.148438 8.34375 -4.546875 C 7.601562 -2.285156 7.722656 -1.15625 8.703125 -1.15625 C 9.953125 -1.15625 11.800781 -3.640625 14.25 -8.609375 C 14.457031 -9.003906 14.625 -9.15625 14.75 -9.0625 C 14.882812 -8.96875 14.953125 -8.851562 14.953125 -8.71875 C 14.953125 -8.59375 14.757812 -8.132812 14.375 -7.34375 C 13.988281 -6.550781 13.570312 -5.738281 13.125 -4.90625 C 12.675781 -4.070312 11.976562 -3.109375 11.03125 -2.015625 C 9.894531 -0.640625 8.804688 0.046875 7.765625 0.046875 C 6.609375 0.046875 5.804688 -0.648438 5.359375 -2.046875 C 5.265625 -2.316406 5.21875 -2.71875 5.21875 -3.25 C 5.21875 -3.789062 5.390625 -4.503906 5.734375 -5.390625 C 6.078125 -6.285156 6.617188 -7.375 7.359375 -8.65625 C 8.109375 -9.9375 8.523438 -10.6875 8.609375 -10.90625 C 8.703125 -11.132812 8.75 -11.351562 8.75 -11.5625 C 8.75 -12.488281 7.5625 -12.976562 5.1875 -13.03125 L 4.640625 -11.609375 C 2.765625 -6.691406 0.96875 -3.398438 -0.75 -1.734375 C -1.050781 -1.472656 -1.203125 -1.566406 -1.203125 -2.015625 C -1.203125 -2.097656 -1.171875 -2.203125 -1.109375 -2.328125 C 0.554688 -4.523438 2 -7.125 3.21875 -10.125 C 4.4375 -13.132812 5.285156 -15.992188 5.765625 -18.703125 C 5.941406 -19.628906 6.359375 -20.09375 7.015625 -20.09375 C 7.671875 -20.09375 8.144531 -19.675781 8.4375 -18.84375 C 8.53125 -18.570312 8.578125 -18.257812 8.578125 -17.90625 Z M 8.578125 -17.90625 "/></g></g></g><g fill="#000000" fill-opacity="1"><g transform="translate(54.406033, 38.636588)"><g><path d="M 10.671875 -15.625 C 12.835938 -15.625 13.921875 -14.253906 13.921875 -11.515625 C 13.921875 -10.265625 13.597656 -8.925781 12.953125 -7.5 C 12.117188 -5.5625 10.867188 -3.804688 9.203125 -2.234375 C 9.585938 -1.484375 10.285156 -1.109375 11.296875 -1.109375 C 12.097656 -1.109375 12.859375 -1.515625 13.578125 -2.328125 C 14.460938 -3.242188 15.097656 -4.050781 15.484375 -4.75 C 15.878906 -5.445312 16.164062 -5.957031 16.34375 -6.28125 C 16.519531 -6.613281 16.75 -7.082031 17.03125 -7.6875 C 17.3125 -8.300781 17.484375 -8.675781 17.546875 -8.8125 C 17.609375 -8.945312 17.710938 -9.015625 17.859375 -9.015625 C 18.148438 -9.046875 18.296875 -8.941406 18.296875 -8.703125 C 18.296875 -8.617188 18.269531 -8.515625 18.21875 -8.390625 L 17.953125 -7.765625 C 17.765625 -7.347656 17.625 -7.050781 17.53125 -6.875 C 17.445312 -6.695312 17.289062 -6.375 17.0625 -5.90625 C 16.84375 -5.445312 16.648438 -5.082031 16.484375 -4.8125 C 16.328125 -4.550781 16.109375 -4.195312 15.828125 -3.75 C 15.546875 -3.300781 15.289062 -2.941406 15.0625 -2.671875 C 14.84375 -2.410156 14.566406 -2.113281 14.234375 -1.78125 C 13.910156 -1.457031 13.597656 -1.207031 13.296875 -1.03125 C 12.554688 -0.582031 11.859375 -0.359375 11.203125 -0.359375 C 9.984375 -0.359375 9.03125 -0.742188 8.34375 -1.515625 C 6.976562 -0.503906 5.710938 0 4.546875 0 C 2.378906 0 1.296875 -1.367188 1.296875 -4.109375 C 1.296875 -5.359375 1.625 -6.695312 2.28125 -8.125 C 3.164062 -10.207031 4.421875 -11.976562 6.046875 -13.4375 C 7.671875 -14.894531 9.210938 -15.625 10.671875 -15.625 Z M 11.15625 -14.234375 C 10.351562 -14.234375 9.398438 -13.695312 8.296875 -12.625 C 7.203125 -11.5625 6.222656 -10.109375 5.359375 -8.265625 C 4.316406 -6.117188 3.796875 -4.359375 3.796875 -2.984375 C 3.796875 -1.617188 4.316406 -0.9375 5.359375 -0.9375 C 6.097656 -0.9375 6.929688 -1.335938 7.859375 -2.140625 C 7.378906 -2.828125 7.140625 -3.554688 7.140625 -4.328125 C 7.203125 -5.609375 7.722656 -6.25 8.703125 -6.25 C 9.085938 -6.25 9.40625 -6.113281 9.65625 -5.84375 C 9.914062 -5.582031 10.046875 -5.335938 10.046875 -5.109375 C 10.046875 -4.890625 10.015625 -4.660156 9.953125 -4.421875 C 10.460938 -5.160156 11.046875 -6.21875 11.703125 -7.59375 C 12.441406 -9.101562 12.8125 -10.585938 12.8125 -12.046875 C 12.8125 -13.503906 12.257812 -14.234375 11.15625 -14.234375 Z M 11.15625 -14.234375 "/></g></g></g><g fill="#000000" fill-opacity="1"><g transform="translate(69.360363, 38.636588)"><g><path d="M 15.9375 -12.140625 C 15.9375 -10.828125 15.59375 -9.382812 14.90625 -7.8125 C 14.226562 -6.238281 13.285156 -4.722656 12.078125 -3.265625 C 10.867188 -1.804688 9.398438 -0.804688 7.671875 -0.265625 C 7.023438 -0.0859375 6.273438 0 5.421875 0 C 4.578125 0 3.648438 -0.265625 2.640625 -0.796875 L -1.609375 9.78125 C -2.054688 10.726562 -2.472656 11.347656 -2.859375 11.640625 C -3.242188 11.941406 -3.613281 12.09375 -3.96875 12.09375 C -4.332031 12.09375 -4.550781 12.09375 -4.625 12.09375 C -4.695312 12.09375 -4.960938 12.046875 -5.421875 11.953125 C -5.878906 11.867188 -6.226562 11.84375 -6.46875 11.875 C -5.8125 11.25 -4.148438 8.28125 -1.484375 2.96875 C 1.171875 -2.34375 2.675781 -5.921875 3.03125 -7.765625 C 2.707031 -7.285156 2.394531 -7.035156 2.09375 -7.015625 C 1.914062 -7.015625 1.914062 -7.179688 2.09375 -7.515625 C 2.269531 -7.859375 2.566406 -8.523438 2.984375 -9.515625 C 3.523438 -10.785156 3.796875 -11.960938 3.796875 -13.046875 C 3.796875 -14.140625 3.585938 -14.773438 3.171875 -14.953125 C 4.953125 -15.253906 5.988281 -15.394531 6.28125 -15.375 C 6.582031 -15.363281 6.769531 -15.238281 6.84375 -15 C 6.925781 -14.757812 6.96875 -14.492188 6.96875 -14.203125 C 6.96875 -12.378906 6.550781 -10.351562 5.71875 -8.125 L 6.609375 -9.546875 C 7.679688 -11.273438 8.460938 -12.390625 8.953125 -12.890625 C 9.441406 -13.398438 9.96875 -13.925781 10.53125 -14.46875 C 11.394531 -15.300781 12.226562 -15.71875 13.03125 -15.71875 C 13.269531 -15.71875 13.492188 -15.6875 13.703125 -15.625 C 15.191406 -15.238281 15.9375 -14.078125 15.9375 -12.140625 Z M 13.796875 -12.59375 C 13.796875 -13.0625 13.695312 -13.5 13.5 -13.90625 C 13.3125 -14.3125 13.007812 -14.515625 12.59375 -14.515625 C 11.550781 -14.515625 10.335938 -13.546875 8.953125 -11.609375 C 7.566406 -9.671875 5.578125 -6.289062 2.984375 -1.46875 C 3.378906 -1.082031 3.914062 -0.890625 4.59375 -0.890625 C 5.28125 -0.890625 6.25 -1.410156 7.5 -2.453125 C 9.488281 -4.117188 11.15625 -6.1875 12.5 -8.65625 C 13.363281 -10.269531 13.796875 -11.582031 13.796875 -12.59375 Z M 13.796875 -12.59375 "/></g></g></g><g fill="#000000" fill-opacity="1"><g transform="translate(84.359334, 38.636588)"><g><path d="M 4.515625 -6.875 C 4.097656 -5.863281 3.890625 -4.734375 3.890625 -3.484375 C 3.890625 -2.648438 4.070312 -1.988281 4.4375 -1.5 C 4.8125 -1.007812 5.34375 -0.765625 6.03125 -0.765625 C 8.738281 -0.765625 11.191406 -3.304688 13.390625 -8.390625 C 13.597656 -8.867188 13.851562 -9.078125 14.15625 -9.015625 C 14.269531 -8.984375 14.328125 -8.90625 14.328125 -8.78125 C 14.328125 -8.664062 13.992188 -7.882812 13.328125 -6.4375 C 12.660156 -5 11.984375 -3.835938 11.296875 -2.953125 C 9.773438 -0.867188 7.898438 0.171875 5.671875 0.171875 C 4.484375 0.171875 3.472656 -0.210938 2.640625 -0.984375 C 1.804688 -1.753906 1.390625 -2.804688 1.390625 -4.140625 C 1.390625 -5.484375 1.707031 -6.90625 2.34375 -8.40625 C 2.976562 -9.914062 3.847656 -11.316406 4.953125 -12.609375 C 6.054688 -13.898438 7.320312 -14.847656 8.75 -15.453125 C 9.4375 -15.742188 10.09375 -15.890625 10.71875 -15.890625 C 11.34375 -15.890625 11.921875 -15.710938 12.453125 -15.359375 C 12.960938 -14.941406 13.21875 -14.476562 13.21875 -13.96875 C 13.21875 -12.1875 12.144531 -10.476562 10 -8.84375 C 9.34375 -8.332031 8.421875 -7.875 7.234375 -7.46875 C 6.046875 -7.070312 5.140625 -6.875 4.515625 -6.875 Z M 12.015625 -14.015625 C 12.015625 -14.609375 11.773438 -14.90625 11.296875 -14.90625 C 10.460938 -14.90625 9.195312 -13.878906 7.5 -11.828125 C 6.488281 -10.578125 5.597656 -9.179688 4.828125 -7.640625 C 5.328125 -7.640625 6.0625 -7.816406 7.03125 -8.171875 C 8 -8.523438 8.835938 -9 9.546875 -9.59375 C 11.191406 -11 12.015625 -12.472656 12.015625 -14.015625 Z M 12.015625 -14.015625 "/></g></g></g><g fill="#000000" fill-opacity="1"><g transform="translate(95.340728, 38.636588)"><g><path d="M 8.578125 -17.90625 C 8.578125 -16.5625 7.726562 -15.296875 6.03125 -14.109375 C 6.625 -14.078125 7.414062 -14.0625 8.40625 -14.0625 C 9.40625 -14.0625 10.664062 -14.132812 12.1875 -14.28125 C 12.25 -14.195312 12.28125 -13.957031 12.28125 -13.5625 C 12.28125 -13.175781 12.097656 -12.601562 11.734375 -11.84375 C 11.378906 -11.09375 11.0625 -10.441406 10.78125 -9.890625 C 10.5 -9.335938 10.226562 -8.816406 9.96875 -8.328125 C 9.71875 -7.835938 9.4375 -7.234375 9.125 -6.515625 C 8.8125 -5.804688 8.550781 -5.148438 8.34375 -4.546875 C 7.601562 -2.285156 7.722656 -1.15625 8.703125 -1.15625 C 9.953125 -1.15625 11.800781 -3.640625 14.25 -8.609375 C 14.457031 -9.003906 14.625 -9.15625 14.75 -9.0625 C 14.882812 -8.96875 14.953125 -8.851562 14.953125 -8.71875 C 14.953125 -8.59375 14.757812 -8.132812 14.375 -7.34375 C 13.988281 -6.550781 13.570312 -5.738281 13.125 -4.90625 C 12.675781 -4.070312 11.976562 -3.109375 11.03125 -2.015625 C 9.894531 -0.640625 8.804688 0.046875 7.765625 0.046875 C 6.609375 0.046875 5.804688 -0.648438 5.359375 -2.046875 C 5.265625 -2.316406 5.21875 -2.71875 5.21875 -3.25 C 5.21875 -3.789062 5.390625 -4.503906 5.734375 -5.390625 C 6.078125 -6.285156 6.617188 -7.375 7.359375 -8.65625 C 8.109375 -9.9375 8.523438 -10.6875 8.609375 -10.90625 C 8.703125 -11.132812 8.75 -11.351562 8.75 -11.5625 C 8.75 -12.488281 7.5625 -12.976562 5.1875 -13.03125 L 4.640625 -11.609375 C 2.765625 -6.691406 0.96875 -3.398438 -0.75 -1.734375 C -1.050781 -1.472656 -1.203125 -1.566406 -1.203125 -2.015625 C -1.203125 -2.097656 -1.171875 -2.203125 -1.109375 -2.328125 C 0.554688 -4.523438 2 -7.125 3.21875 -10.125 C 4.4375 -13.132812 5.285156 -15.992188 5.765625 -18.703125 C 5.941406 -19.628906 6.359375 -20.09375 7.015625 -20.09375 C 7.671875 -20.09375 8.144531 -19.675781 8.4375 -18.84375 C 8.53125 -18.570312 8.578125 -18.257812 8.578125 -17.90625 Z M 8.578125 -17.90625 "/></g></g></g><g fill="#000000" fill-opacity="1"><g transform="translate(106.947077, 38.636588)"><g><path d="M 1.421875 -3.578125 C 1.421875 -6.046875 2.613281 -10.179688 5 -15.984375 L 2.671875 -15.984375 C 2.523438 -15.984375 2.429688 -16.0625 2.390625 -16.21875 C 2.347656 -16.382812 2.363281 -16.550781 2.4375 -16.71875 C 2.507812 -16.882812 2.617188 -16.96875 2.765625 -16.96875 L 5.453125 -16.96875 C 6.515625 -19.3125 7.507812 -21.269531 8.4375 -22.84375 C 9.363281 -24.425781 10.210938 -25.492188 10.984375 -26.046875 C 11.753906 -26.597656 12.3125 -26.875 12.65625 -26.875 C 13 -26.875 13.242188 -26.84375 13.390625 -26.78125 C 14.078125 -26.457031 14.421875 -25.78125 14.421875 -24.75 C 14.421875 -23.726562 14.078125 -22.488281 13.390625 -21.03125 C 12.703125 -19.570312 12.035156 -18.21875 11.390625 -16.96875 L 13.53125 -16.96875 C 13.675781 -16.96875 13.769531 -16.882812 13.8125 -16.71875 C 13.863281 -16.550781 13.847656 -16.382812 13.765625 -16.21875 C 13.691406 -16.0625 13.582031 -15.984375 13.4375 -15.984375 L 10.84375 -15.984375 C 9.207031 -13.210938 7.226562 -10.753906 4.90625 -8.609375 L 3.890625 -4.0625 C 3.796875 -3.675781 3.75 -3.296875 3.75 -2.921875 C 3.75 -2.546875 3.851562 -2.164062 4.0625 -1.78125 C 4.269531 -1.394531 4.597656 -1.203125 5.046875 -1.203125 C 5.546875 -1.203125 6.109375 -1.378906 6.734375 -1.734375 C 8.171875 -2.804688 9.75 -5.054688 11.46875 -8.484375 C 11.59375 -8.753906 11.734375 -8.914062 11.890625 -8.96875 C 12.054688 -9.03125 12.15625 -8.992188 12.1875 -8.859375 C 12.21875 -8.722656 12.171875 -8.507812 12.046875 -8.21875 C 11.066406 -6.164062 10.296875 -4.707031 9.734375 -3.84375 C 8.128906 -1.25 6.414062 0.046875 4.59375 0.046875 C 3.675781 0.046875 2.914062 -0.296875 2.3125 -0.984375 C 1.71875 -1.671875 1.421875 -2.535156 1.421875 -3.578125 Z M 10.40625 -16.96875 C 12.363281 -20.476562 13.34375 -22.914062 13.34375 -24.28125 C 13.34375 -24.875 13.238281 -25.171875 13.03125 -25.171875 C 12.707031 -25.171875 12.207031 -24.691406 11.53125 -23.734375 C 10.863281 -22.785156 9.742188 -20.53125 8.171875 -16.96875 Z M 9.828125 -15.984375 L 7.71875 -15.984375 C 7.363281 -15.148438 6.5625 -13.171875 5.3125 -10.046875 C 6.914062 -11.710938 8.421875 -13.691406 9.828125 -15.984375 Z M 9.828125 -15.984375 "/></g></g></g><g fill="#000000" fill-opacity="1"><g transform="translate(115.875031, 38.636588)"><g><path d="M -3.609375 14.109375 C -4.921875 14.109375 -5.929688 13.832031 -6.640625 13.28125 C -7.359375 12.726562 -7.71875 12.066406 -7.71875 11.296875 C -7.71875 10.523438 -7.492188 9.644531 -7.046875 8.65625 C -6.273438 7.144531 -4.878906 5.925781 -2.859375 5 C -1.335938 4.28125 0.671875 3.613281 3.171875 3 C 5.671875 2.394531 7.28125 1.988281 8 1.78125 C 9.0625 -0.09375 10.335938 -3.441406 11.828125 -8.265625 C 10.109375 -5.222656 8.664062 -3.09375 7.5 -1.875 C 6.34375 -0.65625 5.164062 -0.046875 3.96875 -0.046875 C 2.363281 -0.046875 1.425781 -0.710938 1.15625 -2.046875 C 1.039062 -2.253906 1.007812 -2.566406 1.0625 -2.984375 C 1.125 -3.398438 1.160156 -3.695312 1.171875 -3.875 C 1.191406 -4.0625 1.289062 -4.351562 1.46875 -4.75 C 1.65625 -5.15625 1.773438 -5.445312 1.828125 -5.625 C 2.160156 -6.3125 2.445312 -6.847656 2.6875 -7.234375 C 2.207031 -7.234375 2.070312 -7.472656 2.28125 -7.953125 L 3.078125 -9.515625 C 4.085938 -11.441406 4.921875 -13.078125 5.578125 -14.421875 C 5.878906 -15.046875 6.460938 -15.359375 7.328125 -15.359375 L 10.046875 -15.359375 C 9.984375 -15.296875 9.832031 -15.175781 9.59375 -15 C 9.0625 -14.644531 8.660156 -14.226562 8.390625 -13.75 C 7.316406 -11.90625 5.976562 -9.269531 4.375 -5.84375 C 3.71875 -4.445312 3.390625 -3.421875 3.390625 -2.765625 C 3.390625 -2.109375 3.5 -1.644531 3.71875 -1.375 C 3.945312 -1.113281 4.253906 -0.984375 4.640625 -0.984375 C 5.210938 -0.984375 6.003906 -1.578125 7.015625 -2.765625 C 9.128906 -5.234375 11.460938 -9.117188 14.015625 -14.421875 C 14.347656 -15.046875 14.929688 -15.359375 15.765625 -15.359375 L 18.171875 -15.359375 C 17.398438 -14.816406 16.789062 -14.132812 16.34375 -13.3125 C 15.894531 -12.5 15.410156 -11.394531 14.890625 -10 C 14.367188 -8.601562 13.710938 -6.742188 12.921875 -4.421875 C 12.140625 -2.097656 11.539062 -0.359375 11.125 0.796875 C 13.914062 -0.0351562 16.054688 -1.503906 17.546875 -3.609375 C 18.203125 -4.535156 19.140625 -6.175781 20.359375 -8.53125 C 20.566406 -8.945312 20.75 -9.109375 20.90625 -9.015625 C 21.070312 -8.929688 21.15625 -8.8125 21.15625 -8.65625 C 21.15625 -8.507812 20.910156 -7.9375 20.421875 -6.9375 C 19.929688 -5.945312 19.429688 -5.023438 18.921875 -4.171875 C 18.421875 -3.328125 17.769531 -2.457031 16.96875 -1.5625 C 16.164062 -0.664062 15.269531 0.0390625 14.28125 0.5625 C 13.300781 1.082031 11.992188 1.640625 10.359375 2.234375 C 8.066406 6.398438 5.757812 9.460938 3.4375 11.421875 C 1.269531 13.210938 -1.078125 14.109375 -3.609375 14.109375 Z M -6.203125 9.6875 C -6.523438 10.34375 -6.6875 10.945312 -6.6875 11.5 C -6.6875 12.050781 -6.476562 12.472656 -6.0625 12.765625 C -5.644531 13.066406 -5.125 13.21875 -4.5 13.21875 C -2.78125 13.21875 -0.941406 12.332031 1.015625 10.5625 C 2.984375 8.789062 4.710938 6.890625 6.203125 4.859375 L 7.1875 3.21875 C 2.28125 4.5 -0.8125 5.421875 -2.09375 5.984375 C -4 6.816406 -5.367188 8.050781 -6.203125 9.6875 Z M -6.203125 9.6875 "/></g></g></g><g fill="#000000" fill-opacity="1"><g transform="translate(133.686308, 38.636588)"><g/></g></g><g fill="#000000" fill-opacity="1"><g transform="translate(145.248016, 38.636588)"><g><path d="M 44.78125 -27.234375 C 38.757812 -30.203125 33.921875 -31.6875 30.265625 -31.6875 C 26.609375 -31.6875 23.546875 -30.644531 21.078125 -28.5625 C 18.722656 -26.570312 17.546875 -24.429688 17.546875 -22.140625 C 17.546875 -20.953125 17.976562 -20.085938 18.84375 -19.546875 C 20 -18.898438 21.097656 -18.578125 22.140625 -18.578125 C 22.523438 -18.578125 22.910156 -18.617188 23.296875 -18.703125 C 24.671875 -19.035156 25.832031 -19.585938 26.78125 -20.359375 C 27.738281 -21.128906 28.21875 -21.75 28.21875 -22.21875 C 28.21875 -22.695312 28.359375 -23.023438 28.640625 -23.203125 C 28.921875 -23.390625 29.0625 -23.332031 29.0625 -23.03125 C 29.0625 -22.851562 29.015625 -22.644531 28.921875 -22.40625 C 28.296875 -20.289062 26.835938 -18.847656 24.546875 -18.078125 C 23.566406 -17.753906 22.554688 -17.59375 21.515625 -17.59375 C 20.472656 -17.59375 19.445312 -17.90625 18.4375 -18.53125 C 16.53125 -19.601562 15.578125 -21.238281 15.578125 -23.4375 C 15.578125 -26.082031 16.796875 -28.488281 19.234375 -30.65625 C 21.679688 -32.832031 24.660156 -33.921875 28.171875 -33.921875 C 29.890625 -33.921875 31.628906 -33.671875 33.390625 -33.171875 C 37.796875 -31.972656 41.785156 -30.242188 45.359375 -27.984375 C 46.273438 -28.992188 47.226562 -29.5 48.21875 -29.5 C 49.3125 -29.5 49.875 -29.128906 49.90625 -28.390625 C 49.9375 -28.066406 49.832031 -27.914062 49.59375 -27.9375 C 49.445312 -27.96875 49.285156 -28.085938 49.109375 -28.296875 C 48.867188 -28.390625 48.644531 -28.4375 48.4375 -28.4375 C 47.78125 -28.4375 47.109375 -28.109375 46.421875 -27.453125 C 48.628906 -26.347656 51.21875 -25.410156 54.1875 -24.640625 C 55.351562 -24.367188 56.273438 -24.234375 56.953125 -24.234375 C 57.640625 -24.234375 58.164062 -24.25 58.53125 -24.28125 C 59.832031 -24.425781 60.675781 -24.914062 61.0625 -25.75 C 61.269531 -26.195312 61.457031 -26.472656 61.625 -26.578125 C 61.789062 -26.679688 61.890625 -26.628906 61.921875 -26.421875 C 61.921875 -26.335938 61.921875 -26.21875 61.921875 -26.0625 C 61.921875 -24.84375 61.296875 -23.921875 60.046875 -23.296875 C 59.265625 -22.910156 58.53125 -22.71875 57.84375 -22.71875 C 57.164062 -22.71875 56.425781 -22.785156 55.625 -22.921875 C 54.820312 -23.054688 53.78125 -23.332031 52.5 -23.75 C 51.21875 -24.164062 50.175781 -24.550781 49.375 -24.90625 C 48.570312 -25.257812 47.78125 -25.632812 47 -26.03125 L 45.75 -26.65625 C 44.207031 -24.894531 42.554688 -21.875 40.796875 -17.59375 C 40.234375 -16.164062 39.90625 -15.347656 39.8125 -15.140625 C 41.539062 -14.898438 43.132812 -14.78125 44.59375 -14.78125 C 46.050781 -14.78125 47.203125 -14.800781 48.046875 -14.84375 C 48.898438 -14.882812 49.34375 -14.785156 49.375 -14.546875 C 49.40625 -13.898438 47.1875 -13.578125 42.71875 -13.578125 C 41.289062 -13.578125 40.144531 -13.632812 39.28125 -13.75 C 37.4375 -8.6875 35.59375 -4.9375 33.75 -2.5 C 32.976562 -1.488281 32.007812 -0.425781 30.84375 0.6875 C 29.6875 1.800781 28.453125 2.703125 27.140625 3.390625 C 24.191406 4.992188 20.898438 5.796875 17.265625 5.796875 C 13.640625 5.796875 10.5625 4.992188 8.03125 3.390625 C 4.195312 1.015625 2.28125 -2.421875 2.28125 -6.921875 C 2.28125 -8.441406 2.53125 -10.0625 3.03125 -11.78125 C 3.394531 -12.914062 4.054688 -13.914062 5.015625 -14.78125 C 5.984375 -15.644531 6.796875 -16.171875 7.453125 -16.359375 C 8.109375 -16.554688 8.410156 -16.59375 8.359375 -16.46875 C 8.316406 -16.351562 7.804688 -15.953125 6.828125 -15.265625 C 4.890625 -13.867188 3.742188 -12.144531 3.390625 -10.09375 C 3.242188 -9.34375 3.171875 -8.476562 3.171875 -7.5 C 3.171875 -6.519531 3.394531 -5.445312 3.84375 -4.28125 C 5.0625 -1.125 7.585938 1.191406 11.421875 2.671875 C 13.242188 3.359375 15.195312 3.703125 17.28125 3.703125 C 19.363281 3.703125 21.429688 3.285156 23.484375 2.453125 C 25.535156 1.617188 27.4375 0.367188 29.1875 -1.296875 C 32.613281 -4.535156 35.441406 -8.734375 37.671875 -13.890625 L 34.8125 -13.921875 C 31.332031 -13.921875 29.039062 -13.117188 27.9375 -11.515625 C 27.675781 -11.191406 27.460938 -11.109375 27.296875 -11.265625 C 27.128906 -11.429688 27.109375 -11.648438 27.234375 -11.921875 C 27.890625 -13.347656 28.8125 -14.375 30 -15 C 31.1875 -15.625 32.367188 -15.9375 33.546875 -15.9375 C 34.722656 -15.9375 36.304688 -15.800781 38.296875 -15.53125 C 39.222656 -17.789062 40.390625 -20.140625 41.796875 -22.578125 C 43.210938 -25.023438 44.207031 -26.578125 44.78125 -27.234375 Z M 44.78125 -27.234375 "/></g></g></g><g fill="#000000" fill-opacity="1"><g transform="translate(192.030515, 38.636588)"><g><path d="M 5 -8.609375 C 4.96875 -8.492188 4.832031 -8.085938 4.59375 -7.390625 C 4.351562 -6.691406 4.148438 -6.019531 3.984375 -5.375 C 3.828125 -4.738281 3.75 -4.097656 3.75 -3.453125 C 3.75 -2.816406 3.894531 -2.222656 4.1875 -1.671875 C 4.488281 -1.117188 4.96875 -0.84375 5.625 -0.84375 C 6.695312 -0.84375 7.738281 -1.5625 8.75 -3 C 9.757812 -4.445312 10.832031 -6.289062 11.96875 -8.53125 C 12.207031 -8.945312 12.429688 -9.109375 12.640625 -9.015625 C 12.785156 -8.898438 12.8125 -8.742188 12.71875 -8.546875 C 12.632812 -8.359375 12.445312 -7.941406 12.15625 -7.296875 C 11.875 -6.660156 11.664062 -6.210938 11.53125 -5.953125 C 11.40625 -5.703125 11.171875 -5.253906 10.828125 -4.609375 C 10.484375 -3.972656 10.179688 -3.5 9.921875 -3.1875 C 9.671875 -2.875 9.332031 -2.472656 8.90625 -1.984375 C 8.476562 -1.492188 8.066406 -1.128906 7.671875 -0.890625 C 6.628906 -0.234375 5.644531 0.09375 4.71875 0.09375 C 3.800781 0.09375 3.085938 -0.101562 2.578125 -0.5 C 2.078125 -0.90625 1.773438 -1.335938 1.671875 -1.796875 C 1.566406 -2.265625 1.515625 -2.675781 1.515625 -3.03125 C 1.515625 -3.394531 1.53125 -3.859375 1.5625 -4.421875 C 1.65625 -5.367188 1.84375 -6.289062 2.125 -7.1875 C 2.40625 -8.082031 2.5625 -8.585938 2.59375 -8.703125 C 3.269531 -11.171875 4.238281 -13.863281 5.5 -16.78125 C 6.769531 -19.695312 7.84375 -21.890625 8.71875 -23.359375 C 9.601562 -24.835938 10.296875 -25.84375 10.796875 -26.375 C 11.816406 -27.445312 12.816406 -27.984375 13.796875 -27.984375 C 14.484375 -27.984375 14.941406 -27.492188 15.171875 -26.515625 C 15.203125 -26.335938 15.21875 -26.113281 15.21875 -25.84375 C 15.21875 -24.832031 14.863281 -23.550781 14.15625 -22 C 11.59375 -16.320312 8.539062 -11.859375 5 -8.609375 Z M 5.359375 -10.046875 C 6.878906 -11.585938 8.378906 -13.535156 9.859375 -15.890625 C 11.347656 -18.242188 12.441406 -20.242188 13.140625 -21.890625 C 13.847656 -23.546875 14.203125 -24.671875 14.203125 -25.265625 C 14.203125 -25.859375 14.097656 -26.15625 13.890625 -26.15625 C 13.585938 -26.15625 13.019531 -25.566406 12.1875 -24.390625 C 11.351562 -23.210938 10.226562 -21.097656 8.8125 -18.046875 C 7.40625 -15.003906 6.253906 -12.335938 5.359375 -10.046875 Z M 5.359375 -10.046875 "/></g></g></g><g fill="#000000" fill-opacity="1"><g transform="translate(201.494165, 38.636588)"><g><path d="M 10.671875 -15.625 C 12.835938 -15.625 13.921875 -14.253906 13.921875 -11.515625 C 13.921875 -10.265625 13.597656 -8.925781 12.953125 -7.5 C 12.117188 -5.5625 10.867188 -3.804688 9.203125 -2.234375 C 9.585938 -1.484375 10.285156 -1.109375 11.296875 -1.109375 C 12.097656 -1.109375 12.859375 -1.515625 13.578125 -2.328125 C 14.460938 -3.242188 15.097656 -4.050781 15.484375 -4.75 C 15.878906 -5.445312 16.164062 -5.957031 16.34375 -6.28125 C 16.519531 -6.613281 16.75 -7.082031 17.03125 -7.6875 C 17.3125 -8.300781 17.484375 -8.675781 17.546875 -8.8125 C 17.609375 -8.945312 17.710938 -9.015625 17.859375 -9.015625 C 18.148438 -9.046875 18.296875 -8.941406 18.296875 -8.703125 C 18.296875 -8.617188 18.269531 -8.515625 18.21875 -8.390625 L 17.953125 -7.765625 C 17.765625 -7.347656 17.625 -7.050781 17.53125 -6.875 C 17.445312 -6.695312 17.289062 -6.375 17.0625 -5.90625 C 16.84375 -5.445312 16.648438 -5.082031 16.484375 -4.8125 C 16.328125 -4.550781 16.109375 -4.195312 15.828125 -3.75 C 15.546875 -3.300781 15.289062 -2.941406 15.0625 -2.671875 C 14.84375 -2.410156 14.566406 -2.113281 14.234375 -1.78125 C 13.910156 -1.457031 13.597656 -1.207031 13.296875 -1.03125 C 12.554688 -0.582031 11.859375 -0.359375 11.203125 -0.359375 C 9.984375 -0.359375 9.03125 -0.742188 8.34375 -1.515625 C 6.976562 -0.503906 5.710938 0 4.546875 0 C 2.378906 0 1.296875 -1.367188 1.296875 -4.109375 C 1.296875 -5.359375 1.625 -6.695312 2.28125 -8.125 C 3.164062 -10.207031 4.421875 -11.976562 6.046875 -13.4375 C 7.671875 -14.894531 9.210938 -15.625 10.671875 -15.625 Z M 11.15625 -14.234375 C 10.351562 -14.234375 9.398438 -13.695312 8.296875 -12.625 C 7.203125 -11.5625 6.222656 -10.109375 5.359375 -8.265625 C 4.316406 -6.117188 3.796875 -4.359375 3.796875 -2.984375 C 3.796875 -1.617188 4.316406 -0.9375 5.359375 -0.9375 C 6.097656 -0.9375 6.929688 -1.335938 7.859375 -2.140625 C 7.378906 -2.828125 7.140625 -3.554688 7.140625 -4.328125 C 7.203125 -5.609375 7.722656 -6.25 8.703125 -6.25 C 9.085938 -6.25 9.40625 -6.113281 9.65625 -5.84375 C 9.914062 -5.582031 10.046875 -5.335938 10.046875 -5.109375 C 10.046875 -4.890625 10.015625 -4.660156 9.953125 -4.421875 C 10.460938 -5.160156 11.046875 -6.21875 11.703125 -7.59375 C 12.441406 -9.101562 12.8125 -10.585938 12.8125 -12.046875 C 12.8125 -13.503906 12.257812 -14.234375 11.15625 -14.234375 Z M 11.15625 -14.234375 "/></g></g></g><g fill="#000000" fill-opacity="1"><g transform="translate(216.448484, 38.636588)"><g><path d="M 22.453125 -15.578125 L 22.234375 -14.828125 C 20.921875 -10.472656 19.726562 -7.285156 18.65625 -5.265625 C 16.726562 -1.691406 14.617188 0.09375 12.328125 0.09375 C 11.253906 0.09375 10.519531 -0.179688 10.125 -0.734375 C 9.738281 -1.285156 9.523438 -1.785156 9.484375 -2.234375 C 9.441406 -2.679688 9.421875 -3.066406 9.421875 -3.390625 C 9.421875 -4.191406 9.554688 -5.070312 9.828125 -6.03125 C 7.617188 -2.007812 5.640625 0 3.890625 0 C 3.234375 0 2.632812 -0.179688 2.09375 -0.546875 C 1.5625 -0.921875 1.234375 -1.421875 1.109375 -2.046875 C 1.023438 -2.203125 0.984375 -2.382812 0.984375 -2.59375 C 0.984375 -3.875 1.535156 -5.421875 2.640625 -7.234375 C 2.160156 -7.234375 2.023438 -7.472656 2.234375 -7.953125 L 3.03125 -9.515625 C 4.488281 -12.367188 5.320312 -14.003906 5.53125 -14.421875 C 5.832031 -15.046875 6.414062 -15.359375 7.28125 -15.359375 L 10 -15.359375 C 8.925781 -14.585938 7.847656 -13.09375 6.765625 -10.875 C 5.679688 -8.65625 4.847656 -6.921875 4.265625 -5.671875 C 3.679688 -4.421875 3.390625 -3.457031 3.390625 -2.78125 C 3.390625 -2.113281 3.5 -1.640625 3.71875 -1.359375 C 3.945312 -1.078125 4.238281 -0.9375 4.59375 -0.9375 C 4.957031 -0.9375 5.390625 -1.179688 5.890625 -1.671875 C 6.398438 -2.160156 6.863281 -2.6875 7.28125 -3.25 C 7.695312 -3.820312 8.117188 -4.460938 8.546875 -5.171875 C 8.984375 -5.890625 9.378906 -6.566406 9.734375 -7.203125 C 10.085938 -7.847656 10.472656 -8.59375 10.890625 -9.4375 C 11.304688 -10.289062 11.632812 -10.953125 11.875 -11.421875 C 12.738281 -13.148438 13.210938 -14.148438 13.296875 -14.421875 C 13.566406 -15.046875 14.132812 -15.359375 15 -15.359375 L 17.71875 -15.359375 C 17.664062 -15.296875 17.503906 -15.175781 17.234375 -15 C 16.640625 -14.613281 16.207031 -14.179688 15.9375 -13.703125 C 14.59375 -11.472656 13.65625 -9.671875 13.125 -8.296875 C 11.9375 -5.265625 11.34375 -3.316406 11.34375 -2.453125 C 11.34375 -1.378906 11.742188 -0.828125 12.546875 -0.796875 C 12.609375 -0.796875 12.679688 -0.796875 12.765625 -0.796875 C 14.910156 -0.796875 17.023438 -3.390625 19.109375 -8.578125 C 18.691406 -9.460938 18.484375 -10.273438 18.484375 -11.015625 C 18.484375 -11.765625 18.570312 -12.4375 18.75 -13.03125 C 19.257812 -14.757812 20.0625 -15.816406 21.15625 -16.203125 C 21.363281 -16.296875 21.554688 -16.34375 21.734375 -16.34375 C 22.210938 -16.34375 22.453125 -16.085938 22.453125 -15.578125 Z M 22.453125 -15.578125 "/></g></g></g><g fill="#000000" fill-opacity="1"><g transform="translate(237.697024, 38.636588)"><g/></g></g><g fill="#000000" fill-opacity="1"><g transform="translate(249.258732, 38.636588)"><g><path d="M 59.203125 -23.25 C 60.648438 -26.46875 61.925781 -28.898438 63.03125 -30.546875 C 64.132812 -32.203125 65.164062 -33.203125 66.125 -33.546875 C 67.09375 -33.890625 67.75 -34.0625 68.09375 -34.0625 C 68.4375 -34.0625 68.609375 -34.015625 68.609375 -33.921875 C 68.609375 -33.835938 68.414062 -33.695312 68.03125 -33.5 C 67.644531 -33.3125 66.984375 -32.53125 66.046875 -31.15625 C 65.109375 -29.789062 63.925781 -27.691406 62.5 -24.859375 C 61.070312 -22.035156 59.820312 -19.046875 58.75 -15.890625 C 60.5625 -15.890625 61.710938 -15.976562 62.203125 -16.15625 C 62.691406 -16.332031 62.988281 -16.363281 63.09375 -16.25 C 63.195312 -16.132812 63.054688 -15.941406 62.671875 -15.671875 C 61.691406 -14.984375 60.25 -14.582031 58.34375 -14.46875 C 58.3125 -14.40625 58.070312 -13.691406 57.625 -12.328125 C 56.144531 -7.710938 55.40625 -4.484375 55.40625 -2.640625 C 55.40625 -1.597656 55.585938 -0.867188 55.953125 -0.453125 C 56.328125 -0.0351562 56.722656 0.171875 57.140625 0.171875 C 57.554688 0.171875 58.019531 -0.00390625 58.53125 -0.359375 C 60.21875 -1.609375 62.078125 -4.300781 64.109375 -8.4375 C 64.347656 -8.945312 64.578125 -9.15625 64.796875 -9.0625 C 65.015625 -8.96875 65.003906 -8.65625 64.765625 -8.125 C 63.671875 -5.769531 62.757812 -4.039062 62.03125 -2.9375 C 61.300781 -1.84375 60.472656 -0.832031 59.546875 0.09375 C 58.328125 1.25 57.109375 1.828125 55.890625 1.828125 C 54.523438 1.828125 53.570312 1.265625 53.03125 0.140625 C 52.757812 -0.398438 52.625 -0.894531 52.625 -1.34375 C 52.625 -1.789062 52.628906 -2.257812 52.640625 -2.75 C 52.660156 -3.238281 52.710938 -3.875 52.796875 -4.65625 C 52.890625 -5.445312 53.109375 -6.429688 53.453125 -7.609375 C 53.796875 -8.785156 54.0625 -9.675781 54.25 -10.28125 C 54.445312 -10.894531 54.738281 -11.722656 55.125 -12.765625 C 55.519531 -13.804688 55.726562 -14.375 55.75 -14.46875 C 54.476562 -14.46875 49.4375 -14.660156 40.625 -15.046875 C 38.8125 -9.628906 35.953125 -4.773438 32.046875 -0.484375 C 30.140625 1.617188 27.925781 3.390625 25.40625 4.828125 C 22.007812 6.703125 18.4375 7.640625 14.6875 7.640625 C 13.113281 7.640625 11.359375 7.40625 9.421875 6.9375 C 7.484375 6.476562 5.648438 5.597656 3.921875 4.296875 C 2.203125 3.003906 0.976562 1.257812 0.25 -0.9375 C -0.476562 -3.132812 -0.503906 -5.578125 0.171875 -8.265625 C 0.535156 -9.628906 1.332031 -10.90625 2.5625 -12.09375 C 3.800781 -13.289062 4.820312 -13.898438 5.625 -13.921875 C 5.925781 -13.921875 6.101562 -13.882812 6.15625 -13.8125 C 6.21875 -13.738281 6.195312 -13.648438 6.09375 -13.546875 C 5.988281 -13.441406 5.863281 -13.359375 5.71875 -13.296875 C 4.820312 -12.910156 3.898438 -12.066406 2.953125 -10.765625 C 1.703125 -9.035156 1.078125 -7.023438 1.078125 -4.734375 C 1.078125 -1.160156 2.800781 1.503906 6.25 3.265625 C 8.332031 4.304688 10.773438 4.828125 13.578125 4.828125 C 14.796875 4.828125 15.941406 4.707031 17.015625 4.46875 C 27.097656 2.207031 34.191406 -4.328125 38.296875 -15.140625 C 37.523438 -15.140625 36.773438 -14.96875 36.046875 -14.625 C 35.316406 -14.28125 34.835938 -14.109375 34.609375 -14.109375 C 34.390625 -14.109375 34.265625 -14.195312 34.234375 -14.375 C 34.234375 -14.882812 34.585938 -15.367188 35.296875 -15.828125 C 36.015625 -16.285156 36.644531 -16.546875 37.1875 -16.609375 L 38.921875 -16.609375 C 40.828125 -21.367188 43 -26.1875 45.4375 -31.0625 C 44.664062 -30.976562 43.566406 -30.875 42.140625 -30.75 C 40.710938 -30.632812 39.550781 -30.53125 38.65625 -30.4375 C 37.757812 -30.351562 36.65625 -30.207031 35.34375 -30 C 34.039062 -29.789062 32.957031 -29.546875 32.09375 -29.265625 C 31.226562 -28.984375 30.265625 -28.585938 29.203125 -28.078125 C 28.148438 -27.566406 27.269531 -26.988281 26.5625 -26.34375 C 24.863281 -24.726562 23.65625 -22.765625 22.9375 -20.453125 C 22.644531 -19.492188 22.5 -18.476562 22.5 -17.40625 C 22.5 -16.332031 22.882812 -15.289062 23.65625 -14.28125 C 24.425781 -13.269531 25.453125 -12.765625 26.734375 -12.765625 C 29.265625 -12.765625 31.066406 -14.222656 32.140625 -17.140625 C 32.648438 -18.515625 32.90625 -19.472656 32.90625 -20.015625 C 32.90625 -20.566406 32.804688 -20.984375 32.609375 -21.265625 C 32.410156 -21.546875 32.460938 -21.71875 32.765625 -21.78125 C 32.972656 -21.8125 33.148438 -21.691406 33.296875 -21.421875 C 33.660156 -20.648438 33.84375 -19.816406 33.84375 -18.921875 C 33.84375 -18.035156 33.539062 -17.070312 32.9375 -16.03125 C 31.925781 -14.1875 30.5625 -12.953125 28.84375 -12.328125 C 28.007812 -12.023438 27.175781 -11.875 26.34375 -11.875 C 25.507812 -11.875 24.675781 -12.050781 23.84375 -12.40625 C 22.257812 -13.09375 21.097656 -14.253906 20.359375 -15.890625 C 19.878906 -16.867188 19.640625 -17.804688 19.640625 -18.703125 C 19.640625 -19.597656 19.78125 -20.617188 20.0625 -21.765625 C 20.34375 -22.910156 20.898438 -24.078125 21.734375 -25.265625 C 22.566406 -26.453125 23.609375 -27.410156 24.859375 -28.140625 C 26.109375 -28.867188 27.359375 -29.472656 28.609375 -29.953125 C 29.859375 -30.429688 31.335938 -30.785156 33.046875 -31.015625 C 34.765625 -31.253906 36.253906 -31.429688 37.515625 -31.546875 C 38.785156 -31.671875 40.3125 -31.773438 42.09375 -31.859375 C 43.882812 -31.953125 45.207031 -32.046875 46.0625 -32.140625 C 46.394531 -32.703125 46.894531 -33.390625 47.5625 -34.203125 C 48.226562 -35.023438 48.800781 -35.503906 49.28125 -35.640625 C 49.757812 -35.773438 50.132812 -35.84375 50.40625 -35.84375 C 51.5 -35.84375 52.046875 -35.375 52.046875 -34.4375 C 52.046875 -33.5 51.4375 -32.71875 50.21875 -32.09375 C 49 -31.46875 47.851562 -31.15625 46.78125 -31.15625 C 45.976562 -29.613281 44.835938 -26.851562 43.359375 -22.875 C 41.890625 -18.90625 41.113281 -16.816406 41.03125 -16.609375 C 43.257812 -16.609375 46.132812 -16.476562 49.65625 -16.21875 C 53.1875 -15.96875 55.351562 -15.84375 56.15625 -15.84375 C 56.75 -17.570312 57.765625 -20.039062 59.203125 -23.25 Z M 49.8125 -34.46875 C 49.457031 -34.46875 48.71875 -33.738281 47.59375 -32.28125 C 49.519531 -32.570312 50.46875 -33.09375 50.4375 -33.84375 C 50.414062 -34.164062 50.253906 -34.359375 49.953125 -34.421875 C 49.921875 -34.453125 49.875 -34.46875 49.8125 -34.46875 Z M 49.8125 -34.46875 "/></g></g></g><g clip-path="url(#f044bed455)"><g fill="#000000" fill-opacity="1"><g transform="translate(310.906292, 38.636588)"><g><path d="M 21.921875 -28.03125 C 20.578125 -28.03125 19.070312 -27.46875 17.40625 -26.34375 C 15.207031 -24.820312 13.242188 -22.8125 11.515625 -20.3125 C 9.785156 -17.8125 8.476562 -15 7.59375 -11.875 C 7.050781 -10.0625 6.78125 -8.484375 6.78125 -7.140625 C 6.78125 -3.691406 7.734375 -1.160156 9.640625 0.453125 C 10.828125 1.429688 12.140625 1.921875 13.578125 1.921875 C 16.546875 1.921875 19.503906 0.804688 22.453125 -1.421875 C 24.359375 -2.878906 26.007812 -4.519531 27.40625 -6.34375 C 30.46875 -10.382812 32 -14.710938 32 -19.328125 C 32 -22.484375 31.179688 -25.28125 29.546875 -27.71875 C 27.492188 -30.78125 24.578125 -32.703125 20.796875 -33.484375 C 19.640625 -33.742188 18.492188 -33.875 17.359375 -33.875 C 16.234375 -33.875 15.148438 -33.800781 14.109375 -33.65625 C 10.679688 -33.207031 8.238281 -31.734375 6.78125 -29.234375 C 5.832031 -27.660156 5.359375 -25.890625 5.359375 -23.921875 C 5.359375 -22.765625 5.519531 -21.53125 5.84375 -20.21875 C 5.96875 -19.71875 5.894531 -19.40625 5.625 -19.28125 C 5.351562 -19.164062 5.070312 -19.390625 4.78125 -19.953125 C 4.03125 -21.441406 3.65625 -22.96875 3.65625 -24.53125 C 3.65625 -26.09375 4.191406 -27.675781 5.265625 -29.28125 C 7.203125 -32.195312 10.085938 -33.984375 13.921875 -34.640625 C 15.859375 -34.941406 17.4375 -35.09375 18.65625 -35.09375 C 22.4375 -35.09375 25.382812 -34.492188 27.5 -33.296875 C 30.863281 -31.421875 32.945312 -28.832031 33.75 -25.53125 C 34.164062 -23.925781 34.375 -22.210938 34.375 -20.390625 C 34.375 -18.578125 34.066406 -16.695312 33.453125 -14.75 C 32.847656 -12.800781 32.0625 -10.941406 31.09375 -9.171875 C 30.125 -7.398438 28.894531 -5.710938 27.40625 -4.109375 C 23.238281 0.503906 18.71875 2.8125 13.84375 2.8125 C 11.757812 2.8125 9.988281 2.273438 8.53125 1.203125 C 7.070312 0.128906 6.015625 -1.222656 5.359375 -2.859375 C 4.640625 -4.671875 4.28125 -6.453125 4.28125 -8.203125 C 4.28125 -9.960938 4.472656 -11.601562 4.859375 -13.125 C 5.253906 -14.644531 5.828125 -16.222656 6.578125 -17.859375 C 7.335938 -19.492188 8.238281 -20.960938 9.28125 -22.265625 C 10.320312 -23.578125 11.441406 -24.785156 12.640625 -25.890625 C 14.835938 -27.941406 17.320312 -29.070312 20.09375 -29.28125 C 20.269531 -29.3125 20.429688 -29.328125 20.578125 -29.328125 C 21.617188 -29.328125 22.628906 -29.046875 23.609375 -28.484375 C 23.816406 -28.359375 23.925781 -28.234375 23.9375 -28.109375 C 23.957031 -27.992188 23.894531 -27.90625 23.75 -27.84375 C 23.601562 -27.789062 23.378906 -27.804688 23.078125 -27.890625 C 22.773438 -27.984375 22.390625 -28.03125 21.921875 -28.03125 Z M 19.109375 14.015625 C 16.816406 12.703125 14.660156 11.003906 12.640625 8.921875 C 11.773438 8.066406 10.953125 7.265625 10.171875 6.515625 C 8.421875 4.878906 6.679688 4.0625 4.953125 4.0625 C 4.328125 4.0625 3.691406 4.257812 3.046875 4.65625 C 2.410156 5.0625 2.070312 5.507812 2.03125 6 C 1.988281 6.488281 1.863281 6.722656 1.65625 6.703125 C 1.414062 6.703125 1.296875 6.410156 1.296875 5.828125 C 1.296875 5.242188 1.675781 4.578125 2.4375 3.828125 C 3.195312 3.085938 4.035156 2.71875 4.953125 2.71875 C 7.515625 2.71875 10.296875 3.925781 13.296875 6.34375 C 14.609375 7.414062 15.984375 8.507812 17.421875 9.625 C 18.867188 10.738281 20.65625 11.816406 22.78125 12.859375 C 24.914062 13.898438 27.21875 14.660156 29.6875 15.140625 C 30.550781 15.316406 31.335938 15.40625 32.046875 15.40625 C 33.867188 15.40625 35.101562 14.835938 35.75 13.703125 C 36.050781 13.203125 36.203125 12.597656 36.203125 11.890625 C 36.203125 11.191406 35.875 10.367188 35.21875 9.421875 C 33.851562 7.398438 31.738281 6.148438 28.875 5.671875 C 28.40625 5.609375 28.171875 5.429688 28.171875 5.140625 C 28.171875 4.867188 28.363281 4.765625 28.75 4.828125 C 32.226562 5.390625 34.757812 6.710938 36.34375 8.796875 C 37.082031 9.835938 37.453125 10.75 37.453125 11.53125 C 37.453125 12.320312 37.273438 13.03125 36.921875 13.65625 C 35.816406 15.53125 33.289062 16.46875 29.34375 16.46875 C 25.40625 16.46875 21.992188 15.648438 19.109375 14.015625 Z M 19.109375 14.015625 "/></g></g></g></g><g fill="#000000" fill-opacity="1"><g transform="translate(344.478178, 38.636588)"><g/></g></g></g></g></svg>