<svg xmlns="http://www.w3.org/2000/svg" xmlns:xlink="http://www.w3.org/1999/xlink" width="500" zoomAndPan="magnify" viewBox="0 0 375 374.999991" height="500" preserveAspectRatio="xMidYMid meet" version="1.0"><defs><g/><clipPath id="296e8f7492"><path d="M 58.011719 151.109375 L 136.011719 151.109375 L 136.011719 223.859375 L 58.011719 223.859375 Z M 58.011719 151.109375 " clip-rule="nonzero"/></clipPath><clipPath id="61cd514360"><path d="M 0.0117188 0.109375 L 77.882812 0.109375 L 77.882812 72.859375 L 0.0117188 72.859375 Z M 0.0117188 0.109375 " clip-rule="nonzero"/></clipPath><clipPath id="0f33769faa"><rect x="0" width="79" y="0" height="73"/></clipPath><clipPath id="fe515edaa7"><path d="M 65 169.300781 L 88 169.300781 L 88 211.300781 L 65 211.300781 Z M 65 169.300781 " clip-rule="nonzero"/></clipPath><clipPath id="0ce136cd40"><path d="M 79 171 L 99.351562 171 L 99.351562 208 L 79 208 Z M 79 171 " clip-rule="nonzero"/></clipPath><clipPath id="8118fb1db6"><path d="M 83 169.300781 L 89 169.300781 L 89 178 L 83 178 Z M 83 169.300781 " clip-rule="nonzero"/></clipPath><clipPath id="5315fa2094"><rect x="0" width="225" y="0" height="27"/></clipPath></defs><g clip-path="url(#296e8f7492)"><g transform="matrix(1, 0, 0, 1, 58, 151)"><g clip-path="url(#0f33769faa)"><g clip-path="url(#61cd514360)"><path fill="#000000" d="M 28.351562 2.835938 L 45.972656 13.011719 L 45.972656 21.890625 L 38.523438 17.589844 L 38.515625 17.589844 L 20.695312 7.300781 L 1.03125 18.652344 L 1.03125 66.632812 L 69.207031 66.632812 L 69.207031 64.253906 L 3.417969 64.253906 L 3.417969 20.015625 L 20.695312 10.039062 L 37.332031 19.644531 L 45.972656 24.636719 L 45.972656 60.714844 L 75.496094 60.714844 L 75.496094 70.480469 L 0.0429688 70.480469 L 0.0429688 72.867188 L 77.875 72.867188 L 77.875 58.332031 L 48.355469 58.332031 L 48.355469 26.011719 L 63.761719 34.90625 L 63.761719 32.164062 L 48.355469 23.265625 L 48.355469 11.644531 L 28.351562 0.0976562 Z M 28.351562 2.835938 " fill-opacity="1" fill-rule="nonzero"/></g></g></g></g><path stroke-linecap="butt" transform="matrix(0.75, 0, 0, 0.75, 133.989209, 220.890528)" fill="none" stroke-linejoin="miter" d="M -0.0012374 2.00013 L 243.998779 2.00013 " stroke="#000000" stroke-width="4" stroke-opacity="1" stroke-miterlimit="4"/><g clip-path="url(#fe515edaa7)"><path fill="#e6e6e6" d="M 74.019531 171.828125 C 75.832031 170.898438 78.261719 171.417969 79.84375 172.257812 C 80.972656 172.855469 81.988281 173.910156 82.59375 174.992188 C 82.75 175.277344 83.121094 175.972656 83.203125 176.253906 C 83.082031 176.179688 82.992188 176.046875 82.902344 175.9375 C 82.421875 175.355469 81.941406 174.867188 81.382812 174.359375 C 81.171875 174.167969 80.921875 173.980469 80.667969 173.816406 C 78.960938 172.691406 76.875 172.265625 74.75 173.007812 C 73.460938 173.453125 72.394531 174.265625 70.9375 174.070312 C 69.789062 173.914062 69.664062 173.316406 69.335938 173.125 C 69.464844 174.167969 69.914062 174.808594 70.835938 175.253906 C 71.734375 175.691406 72.929688 175.734375 73.914062 175.414062 C 73.785156 175.617188 73.039062 176.003906 72.714844 176.121094 C 71.097656 176.703125 70.082031 176.683594 68.476562 177.792969 C 67.011719 178.808594 65.792969 180.269531 65.566406 182.789062 L 65.609375 182.730469 C 66.023438 182.117188 66.242188 181.707031 66.777344 181.121094 C 68.113281 179.652344 70.402344 178.527344 72.523438 178.222656 C 72.429688 178.394531 71.320312 179.078125 71.058594 179.242188 C 69.464844 180.230469 68.042969 181.304688 66.996094 182.84375 C 65.402344 185.183594 64.855469 187.535156 65.679688 190.320312 L 65.882812 190.820312 C 65.796875 189.515625 66.125 187.941406 66.539062 186.910156 C 67.023438 185.710938 67.625 184.878906 68.34375 184.105469 C 69.613281 182.730469 71.503906 181.777344 73.132812 180.851562 C 73.335938 180.734375 73.707031 180.519531 73.921875 180.441406 C 73.804688 180.746094 73.324219 181.339844 73.121094 181.550781 L 72.179688 182.492188 C 71.867188 182.800781 71.5 183.082031 71.144531 183.34375 C 69.230469 184.765625 67.738281 186.265625 67.136719 188.757812 C 66.398438 191.820312 67.394531 195.144531 69.246094 197.429688 C 69.5625 197.816406 70.8125 199.1875 71.175781 199.273438 C 70.074219 197.613281 69.664062 194.691406 70.328125 192.363281 C 70.773438 190.808594 71.523438 189.445312 72.558594 188.308594 C 72.78125 188.0625 73.40625 187.425781 73.683594 187.292969 C 73.609375 187.519531 73.464844 187.730469 73.371094 187.949219 C 73.273438 188.179688 73.175781 188.40625 73.066406 188.652344 C 72.417969 190.113281 71.921875 191.546875 71.660156 193.1875 C 71.195312 196.101562 71.84375 198.976562 73.519531 200.992188 C 73.957031 201.523438 74.449219 202.066406 74.996094 202.488281 C 75.1875 202.632812 75.347656 202.796875 75.542969 202.949219 C 77.277344 204.300781 79.128906 206.367188 77.855469 208.746094 C 77.71875 209.007812 77.566406 209.15625 77.453125 209.339844 C 78.132812 209.136719 78.910156 208.308594 79.207031 207.667969 C 79.609375 206.808594 79.734375 205.847656 79.484375 204.789062 C 79.082031 203.070312 77.621094 201.554688 76.667969 200.734375 L 75.394531 199.457031 C 74.722656 198.625 74.164062 197.945312 73.734375 196.804688 C 73.414062 195.964844 73.226562 194.921875 73.191406 193.898438 C 73.171875 193.191406 73.234375 191.242188 73.449219 190.679688 C 73.570312 191.890625 73.570312 192.929688 73.953125 194.117188 C 74.570312 196.027344 75.738281 197.617188 77.097656 198.925781 L 78.363281 200.132812 C 79.972656 201.613281 81.714844 203.628906 81.328125 206.519531 C 81.117188 208.121094 80.296875 209.390625 79.226562 210.363281 L 78.699219 210.839844 C 78.546875 210.976562 78.25 211.132812 78.140625 211.300781 C 79.007812 211.121094 79.75 210.84375 80.410156 210.453125 C 81.273438 209.9375 81.898438 209.320312 82.476562 208.625 C 82.597656 208.476562 82.707031 208.332031 82.820312 208.171875 C 83.023438 207.875 83.242188 207.511719 83.402344 207.164062 C 84.570312 204.621094 84.320312 201.960938 82.574219 199.988281 C 80.925781 198.128906 79.035156 197.414062 77.328125 195.8125 C 75.507812 194.109375 74.519531 191.773438 74.855469 188.972656 C 75.144531 186.5625 76.324219 184.15625 77.976562 182.667969 C 78.34375 182.339844 79.273438 181.511719 79.765625 181.308594 C 79.605469 181.566406 79.171875 182.054688 78.9375 182.375 C 78.105469 183.527344 77.257812 184.574219 76.992188 186.121094 C 76.660156 188.046875 77.292969 189.699219 78.472656 191.074219 C 78.757812 191.40625 79.085938 191.691406 79.449219 191.980469 C 79.640625 192.132812 79.796875 192.261719 79.992188 192.398438 C 81.804688 193.683594 84.125 194.621094 85.589844 196.273438 C 86.03125 196.769531 86.449219 197.296875 86.835938 197.875 C 86.960938 198.066406 87.074219 198.3125 87.214844 198.464844 C 87.167969 198.070312 86.917969 197.339844 86.761719 196.988281 C 85.71875 194.609375 83.738281 193.773438 81.8125 192.257812 C 81.050781 191.652344 80.40625 191.105469 79.890625 190.285156 C 78.207031 187.601562 79.253906 184.046875 81.015625 181.601562 C 81.40625 181.058594 81.851562 180.484375 82.371094 180.070312 C 82.457031 180 82.558594 179.925781 82.660156 179.851562 L 82.957031 179.625 C 81.917969 179.75 80.636719 180.671875 78.992188 180.011719 C 78.695312 179.890625 78.183594 179.609375 78.019531 179.382812 C 78.515625 179.535156 78.738281 179.640625 79.375 179.628906 C 79.773438 179.617188 80.441406 179.554688 80.71875 179.378906 C 79.296875 179.320312 78.03125 178.421875 77.8125 177.207031 C 78.242188 177.496094 78.300781 177.929688 79.488281 178.300781 C 79.882812 178.421875 81.503906 178.734375 81.910156 178.539062 C 81.652344 178.359375 81.199219 178.449219 80.414062 177.710938 C 79.511719 176.855469 79.351562 175.953125 77.914062 175.433594 C 75.707031 174.632812 74.414062 177.003906 75.734375 179.03125 C 76.0625 179.527344 76.4375 179.910156 76.929688 180.226562 C 77.191406 180.398438 77.375 180.496094 77.707031 180.621094 C 77.988281 180.726562 78.441406 180.78125 78.660156 180.871094 C 76.804688 181.230469 75.238281 180.175781 74.578125 178.515625 C 73.804688 176.582031 74.609375 174.617188 76.339844 174.261719 C 77.765625 173.96875 78.949219 174.769531 79.789062 175.65625 C 80.621094 176.53125 81.226562 177.367188 82.410156 177.933594 C 83.199219 178.308594 84.066406 178.488281 85.066406 178.570312 C 85 178.261719 84.117188 177.722656 83.867188 177.496094 C 84.628906 177.425781 84.980469 177.492188 85.703125 177.542969 C 85.246094 176.746094 85.179688 177.144531 84.875 175.726562 C 84.441406 173.699219 83.378906 172.097656 81.65625 171.03125 C 79.574219 169.746094 76.699219 169.496094 74.644531 171.144531 C 74.488281 171.273438 74.066406 171.65625 74.019531 171.828125 Z M 68.09375 192.640625 C 68.203125 192.441406 68.230469 191.972656 68.289062 191.707031 C 68.710938 189.746094 69.90625 188.066406 71.414062 186.875 C 72.253906 186.214844 73.167969 185.625 74.011719 184.949219 C 74.640625 184.445312 75.773438 183.410156 75.921875 182.316406 C 75.386719 182.808594 75.59375 182.726562 74.753906 183.386719 C 73.84375 184.105469 72.335938 184.828125 71.230469 185.605469 C 70.0625 186.421875 69.238281 187.441406 68.644531 188.753906 C 68.191406 189.753906 67.792969 191.34375 68.09375 192.640625 Z M 68.09375 192.640625 " fill-opacity="1" fill-rule="evenodd"/></g><g clip-path="url(#0ce136cd40)"><path fill="#e6e6e6" d="M 92.226562 180.570312 C 92.074219 180.589844 91.996094 180.507812 91.871094 180.464844 C 92.136719 180.980469 92.808594 181.558594 93.308594 181.875 C 93.898438 182.25 94.542969 182.589844 95.144531 182.929688 C 95.964844 183.394531 98.308594 184.660156 98.503906 185.375 C 97.9375 185.519531 97.941406 185.347656 97.410156 185.316406 C 96.484375 185.265625 95.40625 185.734375 95.082031 185.628906 C 94.855469 185.554688 94.453125 185.199219 94.238281 185.171875 C 94.015625 186.160156 95.652344 186.679688 96.304688 187.089844 C 97.140625 187.613281 97.644531 188.75 96.855469 189.789062 C 96.101562 190.785156 94.152344 191.6875 92.753906 191.71875 L 91.242188 191.722656 C 91.152344 191.726562 91.074219 191.734375 90.992188 191.738281 C 90.984375 191.742188 90.890625 191.746094 90.886719 191.746094 C 90.78125 191.734375 90.832031 191.746094 90.773438 191.707031 C 90.972656 191.621094 91.203125 191.441406 91.46875 191.324219 C 92.058594 191.0625 93.398438 190.671875 93.800781 190.308594 C 93.472656 190.316406 92.996094 190.425781 92.625 190.457031 C 91.457031 190.558594 90.023438 190.511719 88.925781 190.839844 C 89.429688 189.949219 93.753906 189.398438 94.835938 188.941406 C 94.714844 188.90625 92.140625 189.03125 91.789062 189.058594 C 90.816406 189.128906 89.792969 189.207031 88.921875 189.453125 C 89.167969 188.980469 90.644531 188.417969 91.1875 188.28125 C 92.132812 188.042969 93.332031 188.011719 94.355469 187.964844 L 93.765625 187.820312 C 92.484375 187.558594 91.003906 187.480469 89.742188 187.882812 C 89.5625 187.941406 89.351562 188.082031 89.21875 188.050781 C 88.730469 187.5625 89.695312 186.714844 89.980469 186.574219 C 89.398438 185.625 87.53125 185.019531 86.449219 184.703125 C 85.398438 184.394531 84.519531 184.050781 83.878906 183.25 C 83.78125 183.128906 83.683594 182.992188 83.605469 182.855469 C 83.527344 182.71875 83.457031 182.515625 83.355469 182.394531 C 83.277344 184.5625 84.023438 185.367188 85.710938 186.070312 C 86.105469 186.234375 86.742188 186.398438 87.097656 186.65625 L 87.148438 186.699219 C 85.390625 186.683594 84.089844 186.367188 83.242188 185.390625 C 82.53125 184.570312 82.386719 183.453125 82.628906 182.332031 C 82.703125 181.972656 82.855469 181.640625 82.917969 181.363281 C 82.410156 181.691406 82.042969 182.152344 81.640625 182.601562 C 80.398438 183.992188 79.355469 186.277344 79.875 188.292969 C 80.222656 189.65625 81.253906 190.445312 82.222656 191.097656 C 82.742188 191.449219 83.242188 191.808594 83.707031 192.167969 C 83.972656 192.371094 84.183594 192.527344 84.4375 192.734375 C 85.609375 193.703125 86.628906 194.808594 87.425781 196.152344 C 89.78125 200.113281 88.429688 204.648438 86.144531 207.859375 C 86.683594 207.714844 87.863281 206.542969 88.242188 206.132812 C 88.835938 205.484375 89.332031 204.722656 89.71875 203.757812 C 90.398438 202.058594 90.578125 199.832031 89.882812 198.054688 C 89.789062 197.8125 89.65625 197.59375 89.582031 197.382812 C 89.730469 197.476562 90.074219 197.921875 90.199219 198.117188 C 90.363281 198.371094 90.546875 198.714844 90.664062 199.03125 C 91.355469 200.878906 90.953125 202.980469 90.128906 204.710938 C 89.976562 205.03125 89.761719 205.339844 89.640625 205.65625 C 89.984375 205.511719 90.699219 204.765625 90.945312 204.484375 C 92.324219 202.910156 92.722656 200.792969 92.007812 198.738281 C 91.542969 197.398438 90.695312 196.636719 89.898438 195.867188 C 89.683594 195.660156 89.433594 195.476562 89.230469 195.277344 C 88.496094 194.550781 88.074219 193.703125 88.367188 192.574219 C 88.703125 193.394531 88.648438 193.773438 89.378906 194.457031 C 89.636719 194.695312 89.867188 194.929688 90.160156 195.144531 C 91.367188 196.019531 92.1875 197.054688 92.582031 198.582031 C 92.6875 198.988281 92.726562 199.472656 92.824219 199.839844 C 92.832031 199.832031 92.839844 199.804688 92.84375 199.8125 C 92.84375 199.820312 92.855469 199.789062 92.859375 199.785156 L 93.101562 198.722656 C 93.207031 197.890625 93.148438 196.957031 92.835938 196.195312 C 92.664062 195.773438 92.480469 195.601562 92.296875 195.3125 C 92.761719 195.476562 93.316406 195.984375 93.554688 196.316406 C 93.921875 196.824219 94.015625 197.332031 94.105469 198.070312 C 94.988281 197.75 96.757812 196.488281 97.25 195.957031 C 98.285156 194.835938 98.519531 193.421875 97.566406 192.140625 C 97.632812 191.972656 97.898438 191.691406 98.03125 191.507812 C 98.902344 190.304688 99.347656 188.730469 99.078125 187.207031 C 98.984375 186.679688 98.886719 186.859375 99.097656 186.375 C 99.210938 186.117188 99.320312 185.804688 99.292969 185.488281 C 99.226562 184.679688 97.664062 183.804688 97.03125 183.390625 C 95.925781 182.671875 94.683594 182.078125 93.609375 181.324219 C 93.308594 181.109375 93.285156 181.09375 93.1875 180.65625 C 92.90625 179.390625 92.191406 178.941406 91.167969 178.320312 C 89.082031 177.054688 89.980469 176.941406 90.136719 175.59375 C 90.289062 174.261719 89.515625 173.046875 88.722656 172.140625 C 88.628906 172.03125 88.546875 171.964844 88.457031 171.863281 C 88.269531 171.648438 88.0625 171.5 87.90625 171.320312 L 88.3125 172.675781 C 89.003906 175.578125 87.445312 176.21875 88.394531 177.199219 C 88.972656 177.796875 89.839844 178.1875 90.5625 178.632812 C 90.949219 178.875 91.3125 179.109375 91.613281 179.382812 C 91.773438 179.523438 92.320312 180.199219 92.226562 180.570312 Z M 86.824219 189.449219 C 86.730469 188.8125 85.730469 187.742188 85.261719 187.667969 C 86.136719 188.617188 86.023438 188.277344 86.824219 189.449219 Z M 86.125 191.9375 C 86.074219 191.320312 85.585938 190.40625 85.296875 189.992188 C 85.109375 189.71875 84.882812 189.429688 84.683594 189.222656 C 84.035156 188.535156 83.257812 188.105469 82.484375 187.195312 C 82.015625 186.644531 81.785156 186.140625 81.613281 185.25 C 81.464844 186.03125 81.71875 186.902344 82.046875 187.464844 C 82.566406 188.363281 83.394531 188.949219 84.183594 189.597656 C 84.753906 190.0625 85.445312 190.863281 85.851562 191.492188 C 85.949219 191.644531 86.011719 191.8125 86.128906 191.9375 Z M 97.449219 191.164062 C 98.035156 190.773438 98.8125 188.148438 98.414062 187.5 C 98.332031 187.5625 97.867188 188.058594 97.804688 188.144531 C 97.523438 188.550781 97.796875 189.109375 97.3125 190.164062 C 97.171875 190.472656 97.238281 190.359375 97.34375 190.613281 C 97.417969 190.785156 97.386719 190.996094 97.449219 191.164062 Z M 91.148438 193.730469 L 91.707031 193.851562 C 92.289062 193.980469 92.71875 194.171875 93.179688 194.515625 C 93.433594 194.703125 93.644531 194.953125 93.839844 195.238281 C 94.152344 195.695312 94.21875 196.082031 94.3125 196.191406 C 94.625 195.679688 94.609375 194.878906 94.472656 194.222656 C 94.609375 194.296875 94.753906 194.601562 94.839844 194.742188 C 95.191406 195.34375 95.257812 196.234375 94.953125 196.855469 C 95.125 196.835938 95.484375 196.457031 95.59375 196.3125 C 95.761719 196.097656 95.964844 195.855469 96.101562 195.566406 C 96.410156 194.929688 96.464844 194.230469 96.410156 193.445312 C 96.710938 193.722656 96.996094 194.648438 97.113281 194.863281 C 97.121094 194.855469 97.128906 194.832031 97.128906 194.835938 L 97.242188 194.609375 C 97.269531 194.523438 97.296875 194.417969 97.320312 194.3125 C 97.4375 193.726562 97.203125 192.925781 97.023438 192.398438 C 96.957031 192.203125 96.894531 192.027344 96.832031 191.835938 C 96.746094 191.5625 96.671875 191.582031 96.414062 191.496094 C 95.835938 191.308594 95.742188 191.46875 95.285156 191.695312 C 94.59375 192.035156 93.953125 192.355469 93.132812 192.601562 C 92.113281 192.910156 91.632812 192.992188 91.148438 193.730469 Z M 91.148438 193.730469 " fill-opacity="1" fill-rule="evenodd"/></g><path fill="#e6e6e6" d="M 82.820312 209.863281 C 84.699219 208.90625 86.28125 207.011719 86.949219 204.550781 C 87.496094 202.53125 87.15625 200.53125 86.101562 198.816406 C 85.449219 197.746094 84.800781 197.097656 83.847656 196.335938 C 83.421875 195.992188 82.925781 195.671875 82.429688 195.367188 C 81.4375 194.75 80.449219 194.195312 79.539062 193.523438 C 77.75 192.210938 76.703125 190.734375 76.207031 188.5625 C 76.128906 188.21875 76.09375 187.847656 76.015625 187.53125 C 75.847656 187.832031 75.789062 189.0625 75.785156 189.503906 C 75.777344 190.183594 75.871094 190.847656 76.027344 191.460938 C 77.183594 195.992188 82.273438 196.582031 84.527344 200.382812 C 86.308594 203.382812 85.378906 206.738281 83.320312 209.296875 Z M 82.820312 209.863281 " fill-opacity="1" fill-rule="evenodd"/><g clip-path="url(#8118fb1db6)"><path fill="#e6e6e6" d="M 88.34375 177.789062 C 88.152344 177.472656 87.597656 177.152344 87.59375 176.03125 C 87.585938 174.15625 87.566406 173.203125 86.363281 171.691406 C 85.953125 171.175781 85.46875 170.75 84.910156 170.335938 C 84.625 170.121094 83.488281 169.367188 83.160156 169.300781 C 83.773438 170.265625 83.851562 170.28125 84.425781 171.410156 C 86.074219 174.644531 85.164062 175.800781 85.699219 176.996094 C 85.785156 177.179688 85.9375 177.15625 86.300781 177.234375 L 87.683594 177.570312 C 87.882812 177.632812 88.167969 177.757812 88.34375 177.789062 Z M 88.34375 177.789062 " fill-opacity="1" fill-rule="evenodd"/></g><path fill="#e6e6e6" d="M 89.898438 181.132812 C 89.597656 180.992188 89.554688 180.832031 88.945312 180.660156 C 87.933594 180.378906 86.023438 180.535156 85.222656 180.871094 C 85.507812 181.007812 85.683594 180.992188 86.132812 181.253906 C 86.734375 181.605469 88.0625 182.632812 88.703125 182.660156 C 88.1875 182.261719 87.613281 182.011719 87.339844 181.378906 C 87.660156 181.496094 87.828125 181.734375 88.152344 181.832031 C 88.738281 182.003906 88.851562 181.667969 89.101562 181.542969 C 89.109375 182.050781 89.019531 181.949219 88.902344 182.265625 C 89.054688 182.347656 90.078125 182.433594 91.054688 182.828125 C 91.378906 182.960938 91.699219 183.089844 92.015625 183.246094 C 92.257812 183.367188 92.734375 183.617188 92.96875 183.699219 L 92.371094 183.1875 C 91.941406 182.867188 90.691406 182.035156 90.496094 181.789062 C 90.234375 181.457031 90.917969 180.917969 90.355469 180.09375 C 90.066406 179.675781 89.484375 179.453125 88.75 179.460938 C 88.757812 179.46875 88.769531 179.46875 88.773438 179.484375 C 88.777344 179.496094 88.792969 179.5 88.796875 179.503906 C 88.804688 179.507812 88.816406 179.519531 88.824219 179.523438 L 88.96875 179.59375 C 89.054688 179.632812 89.132812 179.671875 89.214844 179.722656 C 89.734375 180.035156 89.996094 180.46875 89.898438 181.132812 Z M 89.898438 181.132812 " fill-opacity="1" fill-rule="evenodd"/><g transform="matrix(1, 0, 0, 1, 128, 174)"><g clip-path="url(#5315fa2094)"><g fill="#000000" fill-opacity="1"><g transform="translate(0.264586, 18.68675)"><g><path d="M 1.25 -17.109375 L 7.484375 -17.109375 C 9.222656 -17.109375 10.628906 -16.65625 11.703125 -15.75 C 12.785156 -14.851562 13.328125 -13.546875 13.328125 -11.828125 C 13.328125 -10.117188 12.78125 -8.773438 11.6875 -7.796875 C 10.601562 -6.828125 9.203125 -6.34375 7.484375 -6.34375 L 5.140625 -6.34375 L 5.140625 0 L 1.25 0 Z M 5.140625 -9.453125 L 6.234375 -9.453125 C 7.109375 -9.453125 7.828125 -9.628906 8.390625 -9.984375 C 8.953125 -10.335938 9.234375 -10.914062 9.234375 -11.71875 C 9.234375 -12.53125 8.953125 -13.113281 8.390625 -13.46875 C 7.828125 -13.820312 7.109375 -14 6.234375 -14 L 5.140625 -14 Z M 5.140625 -9.453125 "/></g></g></g><g fill="#000000" fill-opacity="1"><g transform="translate(14.076088, 18.68675)"><g><path d="M 1.25 -17.109375 L 7.359375 -17.109375 C 9.003906 -17.109375 10.34375 -16.664062 11.375 -15.78125 C 12.414062 -14.90625 12.9375 -13.65625 12.9375 -12.03125 C 12.9375 -10.769531 12.617188 -9.710938 11.984375 -8.859375 C 11.359375 -8.015625 10.507812 -7.421875 9.4375 -7.078125 L 15.328125 0 L 10.359375 0 L 5.140625 -6.765625 L 5.140625 0 L 1.25 0 Z M 5.140625 -9.515625 L 5.59375 -9.515625 C 5.957031 -9.515625 6.265625 -9.519531 6.515625 -9.53125 C 6.765625 -9.550781 7.046875 -9.601562 7.359375 -9.6875 C 7.679688 -9.769531 7.9375 -9.882812 8.125 -10.03125 C 8.320312 -10.1875 8.488281 -10.410156 8.625 -10.703125 C 8.757812 -10.992188 8.828125 -11.34375 8.828125 -11.75 C 8.828125 -12.164062 8.757812 -12.519531 8.625 -12.8125 C 8.488281 -13.101562 8.320312 -13.320312 8.125 -13.46875 C 7.9375 -13.625 7.679688 -13.742188 7.359375 -13.828125 C 7.046875 -13.910156 6.765625 -13.957031 6.515625 -13.96875 C 6.265625 -13.988281 5.957031 -14 5.59375 -14 L 5.140625 -14 Z M 5.140625 -9.515625 "/></g></g></g><g fill="#000000" fill-opacity="1"><g transform="translate(28.924487, 18.68675)"><g><path d="M 0.484375 -8.5625 C 0.484375 -11.039062 1.320312 -13.132812 3 -14.84375 C 4.6875 -16.5625 6.722656 -17.421875 9.109375 -17.421875 C 11.492188 -17.421875 13.519531 -16.566406 15.1875 -14.859375 C 16.863281 -13.148438 17.703125 -11.050781 17.703125 -8.5625 C 17.703125 -6.0625 16.878906 -3.957031 15.234375 -2.25 C 13.585938 -0.539062 11.546875 0.3125 9.109375 0.3125 C 6.597656 0.3125 4.53125 -0.53125 2.90625 -2.21875 C 1.289062 -3.914062 0.484375 -6.03125 0.484375 -8.5625 Z M 4.6875 -8.5625 C 4.6875 -7.664062 4.820312 -6.847656 5.09375 -6.109375 C 5.375 -5.367188 5.859375 -4.742188 6.546875 -4.234375 C 7.242188 -3.722656 8.097656 -3.46875 9.109375 -3.46875 C 10.554688 -3.46875 11.648438 -3.960938 12.390625 -4.953125 C 13.128906 -5.953125 13.5 -7.15625 13.5 -8.5625 C 13.5 -9.957031 13.117188 -11.15625 12.359375 -12.15625 C 11.609375 -13.15625 10.523438 -13.65625 9.109375 -13.65625 C 7.691406 -13.65625 6.597656 -13.15625 5.828125 -12.15625 C 5.066406 -11.15625 4.6875 -9.957031 4.6875 -8.5625 Z M 4.6875 -8.5625 "/></g></g></g><g fill="#000000" fill-opacity="1"><g transform="translate(47.111705, 18.68675)"><g><path d="M 1.25 -17.109375 L 7.484375 -17.109375 C 9.222656 -17.109375 10.628906 -16.65625 11.703125 -15.75 C 12.785156 -14.851562 13.328125 -13.546875 13.328125 -11.828125 C 13.328125 -10.117188 12.78125 -8.773438 11.6875 -7.796875 C 10.601562 -6.828125 9.203125 -6.34375 7.484375 -6.34375 L 5.140625 -6.34375 L 5.140625 0 L 1.25 0 Z M 5.140625 -9.453125 L 6.234375 -9.453125 C 7.109375 -9.453125 7.828125 -9.628906 8.390625 -9.984375 C 8.953125 -10.335938 9.234375 -10.914062 9.234375 -11.71875 C 9.234375 -12.53125 8.953125 -13.113281 8.390625 -13.46875 C 7.828125 -13.820312 7.109375 -14 6.234375 -14 L 5.140625 -14 Z M 5.140625 -9.453125 "/></g></g></g><g fill="#000000" fill-opacity="1"><g transform="translate(60.923207, 18.68675)"><g><path d="M 11.03125 -17.109375 L 11.03125 -13.6875 L 5.140625 -13.6875 L 5.140625 -10.28125 L 10.78125 -10.28125 L 10.78125 -6.859375 L 5.140625 -6.859375 L 5.140625 -3.421875 L 11.03125 -3.421875 L 11.03125 0 L 1.25 0 L 1.25 -17.109375 Z M 11.03125 -17.109375 "/></g></g></g><g fill="#000000" fill-opacity="1"><g transform="translate(72.95124, 18.68675)"><g><path d="M 1.25 -17.109375 L 7.359375 -17.109375 C 9.003906 -17.109375 10.34375 -16.664062 11.375 -15.78125 C 12.414062 -14.90625 12.9375 -13.65625 12.9375 -12.03125 C 12.9375 -10.769531 12.617188 -9.710938 11.984375 -8.859375 C 11.359375 -8.015625 10.507812 -7.421875 9.4375 -7.078125 L 15.328125 0 L 10.359375 0 L 5.140625 -6.765625 L 5.140625 0 L 1.25 0 Z M 5.140625 -9.515625 L 5.59375 -9.515625 C 5.957031 -9.515625 6.265625 -9.519531 6.515625 -9.53125 C 6.765625 -9.550781 7.046875 -9.601562 7.359375 -9.6875 C 7.679688 -9.769531 7.9375 -9.882812 8.125 -10.03125 C 8.320312 -10.1875 8.488281 -10.410156 8.625 -10.703125 C 8.757812 -10.992188 8.828125 -11.34375 8.828125 -11.75 C 8.828125 -12.164062 8.757812 -12.519531 8.625 -12.8125 C 8.488281 -13.101562 8.320312 -13.320312 8.125 -13.46875 C 7.9375 -13.625 7.679688 -13.742188 7.359375 -13.828125 C 7.046875 -13.910156 6.765625 -13.957031 6.515625 -13.96875 C 6.265625 -13.988281 5.957031 -14 5.59375 -14 L 5.140625 -14 Z M 5.140625 -9.515625 "/></g></g></g><g fill="#000000" fill-opacity="1"><g transform="translate(86.969985, 18.68675)"><g><path d="M 0.171875 -13.6875 L 0.171875 -17.109375 L 12.1875 -17.109375 L 12.1875 -13.6875 L 8.125 -13.6875 L 8.125 0 L 4.234375 0 L 4.234375 -13.6875 Z M 0.171875 -13.6875 "/></g></g></g><g fill="#000000" fill-opacity="1"><g transform="translate(99.329824, 18.68675)"><g><path d="M -0.625 -17.109375 L 4.0625 -17.109375 L 7.625 -11.625 L 11.203125 -17.109375 L 15.875 -17.109375 L 9.578125 -7.671875 L 9.578125 0 L 5.6875 0 L 5.6875 -7.671875 Z M -0.625 -17.109375 "/></g></g></g><g fill="#000000" fill-opacity="1"><g transform="translate(114.592989, 18.68675)"><g/></g></g><g fill="#000000" fill-opacity="1"><g transform="translate(120.254465, 18.68675)"><g><path d="M 11.140625 -17.109375 L 11.140625 -13.6875 L 5.140625 -13.6875 L 5.140625 -10.28125 L 10.671875 -10.28125 L 10.671875 -6.859375 L 5.140625 -6.859375 L 5.140625 0 L 1.25 0 L 1.25 -17.109375 Z M 11.140625 -17.109375 "/></g></g></g><g fill="#000000" fill-opacity="1"><g transform="translate(132.012908, 18.68675)"><g><path d="M 5.140625 -17.109375 L 5.140625 -3.421875 L 11.03125 -3.421875 L 11.03125 0 L 1.25 0 L 1.25 -17.109375 Z M 5.140625 -17.109375 "/></g></g></g><g fill="#000000" fill-opacity="1"><g transform="translate(143.729872, 18.68675)"><g><path d="M 0.484375 -8.5625 C 0.484375 -11.039062 1.320312 -13.132812 3 -14.84375 C 4.6875 -16.5625 6.722656 -17.421875 9.109375 -17.421875 C 11.492188 -17.421875 13.519531 -16.566406 15.1875 -14.859375 C 16.863281 -13.148438 17.703125 -11.050781 17.703125 -8.5625 C 17.703125 -6.0625 16.878906 -3.957031 15.234375 -2.25 C 13.585938 -0.539062 11.546875 0.3125 9.109375 0.3125 C 6.597656 0.3125 4.53125 -0.53125 2.90625 -2.21875 C 1.289062 -3.914062 0.484375 -6.03125 0.484375 -8.5625 Z M 4.6875 -8.5625 C 4.6875 -7.664062 4.820312 -6.847656 5.09375 -6.109375 C 5.375 -5.367188 5.859375 -4.742188 6.546875 -4.234375 C 7.242188 -3.722656 8.097656 -3.46875 9.109375 -3.46875 C 10.554688 -3.46875 11.648438 -3.960938 12.390625 -4.953125 C 13.128906 -5.953125 13.5 -7.15625 13.5 -8.5625 C 13.5 -9.957031 13.117188 -11.15625 12.359375 -12.15625 C 11.609375 -13.15625 10.523438 -13.65625 9.109375 -13.65625 C 7.691406 -13.65625 6.597656 -13.15625 5.828125 -12.15625 C 5.066406 -11.15625 4.6875 -9.957031 4.6875 -8.5625 Z M 4.6875 -8.5625 "/></g></g></g><g fill="#000000" fill-opacity="1"><g transform="translate(161.253373, 18.68675)"><g><path d="M 14.375 0 L 11.625 -9.59375 L 8.890625 0 L 4.5625 0 L -0.3125 -17.109375 L 4.015625 -17.109375 L 6.953125 -5.375 L 7.046875 -5.375 L 10.15625 -17.109375 L 13.109375 -17.109375 L 16.21875 -5.375 L 16.3125 -5.375 L 19.234375 -17.109375 L 23.546875 -17.109375 L 18.6875 0 Z M 14.375 0 "/></g></g></g><g fill="#000000" fill-opacity="1"><g transform="translate(184.500662, 18.68675)"><g/></g></g><g fill="#000000" fill-opacity="1"><g transform="translate(190.162129, 18.68675)"><g><path d="M 5.140625 -6.859375 L 5.140625 0 L 1.25 0 L 1.25 -17.109375 L 5.140625 -17.109375 L 5.140625 -10.28125 L 10.65625 -10.28125 L 10.65625 -17.109375 L 14.5625 -17.109375 L 14.5625 0 L 10.65625 0 L 10.65625 -6.859375 Z M 5.140625 -6.859375 "/></g></g></g><g fill="#000000" fill-opacity="1"><g transform="translate(205.964491, 18.68675)"><g><path d="M 5.40625 3.59375 L 4.484375 2.171875 C 4.523438 2.117188 4.578125 2.050781 4.640625 1.96875 C 4.710938 1.882812 4.859375 1.726562 5.078125 1.5 C 5.296875 1.269531 5.507812 1.066406 5.71875 0.890625 C 5.925781 0.722656 6.164062 0.570312 6.4375 0.4375 C 6.71875 0.300781 6.976562 0.234375 7.21875 0.234375 L 7.21875 0.140625 C 5.195312 -0.242188 3.566406 -1.238281 2.328125 -2.84375 C 1.097656 -4.445312 0.484375 -6.351562 0.484375 -8.5625 C 0.484375 -11.050781 1.3125 -13.148438 2.96875 -14.859375 C 4.625 -16.566406 6.632812 -17.421875 9 -17.421875 C 11.375 -17.421875 13.382812 -16.566406 15.03125 -14.859375 C 16.675781 -13.148438 17.5 -11.050781 17.5 -8.5625 C 17.5 -6.53125 16.953125 -4.738281 15.859375 -3.1875 C 14.765625 -1.644531 13.328125 -0.601562 11.546875 -0.0625 L 11.546875 0.015625 C 11.628906 0.015625 11.992188 0.0820312 12.640625 0.21875 C 13.296875 0.351562 13.816406 0.421875 14.203125 0.421875 C 14.722656 0.421875 15.195312 0.328125 15.625 0.140625 C 16.0625 -0.046875 16.363281 -0.234375 16.53125 -0.421875 L 16.78125 -0.703125 L 18 1.921875 C 17.96875 1.992188 17.921875 2.082031 17.859375 2.1875 C 17.796875 2.289062 17.65625 2.472656 17.4375 2.734375 C 17.21875 2.992188 16.972656 3.226562 16.703125 3.4375 C 16.429688 3.644531 16.070312 3.832031 15.625 4 C 15.175781 4.164062 14.695312 4.25 14.1875 4.25 C 13.34375 4.25 12.3125 3.976562 11.09375 3.4375 C 9.875 2.90625 8.820312 2.640625 7.9375 2.640625 C 7.457031 2.640625 7.003906 2.71875 6.578125 2.875 C 6.160156 3.03125 5.863281 3.191406 5.6875 3.359375 Z M 4.6875 -8.5625 C 4.6875 -7.894531 4.757812 -7.273438 4.90625 -6.703125 C 5.0625 -6.128906 5.300781 -5.609375 5.625 -5.140625 C 5.945312 -4.671875 6.394531 -4.300781 6.96875 -4.03125 C 7.550781 -3.757812 8.226562 -3.625 9 -3.625 C 10.445312 -3.625 11.523438 -4.09375 12.234375 -5.03125 C 12.941406 -5.976562 13.296875 -7.15625 13.296875 -8.5625 C 13.296875 -9.957031 12.9375 -11.128906 12.21875 -12.078125 C 11.5 -13.023438 10.425781 -13.5 9 -13.5 C 7.59375 -13.5 6.519531 -13.019531 5.78125 -12.0625 C 5.050781 -11.113281 4.6875 -9.945312 4.6875 -8.5625 Z M 4.6875 -8.5625 "/></g></g></g></g></g><g fill="#ffffff" fill-opacity="1"><g transform="translate(141.71131, 212.68298)"><g><path d="M 7.265625 -2.65625 C 7.265625 -2.269531 7.175781 -1.898438 7 -1.546875 C 6.820312 -1.191406 6.582031 -0.898438 6.28125 -0.671875 C 5.707031 -0.222656 4.9375 0 3.96875 0 L 1.046875 0 L 1.046875 -9.515625 L 3.625 -9.515625 C 5.019531 -9.515625 5.925781 -9.085938 6.34375 -8.234375 C 6.488281 -7.921875 6.5625 -7.609375 6.5625 -7.296875 C 6.5625 -6.972656 6.539062 -6.722656 6.5 -6.546875 C 6.4375 -6.359375 6.359375 -6.179688 6.265625 -6.015625 C 6.054688 -5.648438 5.785156 -5.394531 5.453125 -5.25 C 6.003906 -5.101562 6.445312 -4.804688 6.78125 -4.359375 C 7.101562 -3.898438 7.265625 -3.332031 7.265625 -2.65625 Z M 5.59375 -7.140625 C 5.59375 -8.097656 4.9375 -8.578125 3.625 -8.578125 L 2.03125 -8.578125 L 2.03125 -5.609375 L 3.90625 -5.609375 C 4.40625 -5.609375 4.8125 -5.734375 5.125 -5.984375 C 5.4375 -6.242188 5.59375 -6.628906 5.59375 -7.140625 Z M 6.28125 -2.84375 C 6.28125 -3.125 6.226562 -3.367188 6.125 -3.578125 C 6.019531 -3.796875 5.882812 -3.984375 5.71875 -4.140625 C 5.34375 -4.472656 4.898438 -4.640625 4.390625 -4.640625 L 2.03125 -4.640625 L 2.03125 -0.9375 L 4.234375 -0.9375 C 4.835938 -0.9375 5.332031 -1.109375 5.71875 -1.453125 C 6.09375 -1.804688 6.28125 -2.269531 6.28125 -2.84375 Z M 6.28125 -2.84375 "/></g></g></g><g fill="#ffffff" fill-opacity="1"><g transform="translate(150.653104, 212.68298)"><g><path d="M 5.3125 -1.046875 C 4.851562 -0.265625 4.164062 0.125 3.25 0.125 C 2.5625 0.125 2.019531 -0.101562 1.625 -0.5625 C 1.238281 -1.019531 1.046875 -1.601562 1.046875 -2.3125 L 1.046875 -6.15625 L 2.03125 -6.15625 L 2.03125 -2.3125 C 2.03125 -1.90625 2.125 -1.5625 2.3125 -1.28125 C 2.488281 -1 2.785156 -0.859375 3.203125 -0.859375 C 3.972656 -0.859375 4.515625 -1.097656 4.828125 -1.578125 C 5.148438 -2.054688 5.3125 -2.722656 5.3125 -3.578125 L 5.3125 -6.15625 L 6.28125 -6.15625 L 6.28125 0 L 5.3125 0 Z M 5.3125 -1.046875 "/></g></g></g><g fill="#ffffff" fill-opacity="1"><g transform="translate(159.17513, 212.68298)"><g><path d="M 2.046875 -8.28125 C 2.160156 -8.164062 2.21875 -8.023438 2.21875 -7.859375 C 2.21875 -7.679688 2.160156 -7.53125 2.046875 -7.40625 C 1.921875 -7.28125 1.773438 -7.21875 1.609375 -7.21875 C 1.429688 -7.21875 1.28125 -7.28125 1.15625 -7.40625 C 1.039062 -7.53125 0.984375 -7.679688 0.984375 -7.859375 C 0.984375 -8.023438 1.039062 -8.164062 1.15625 -8.28125 C 1.28125 -8.40625 1.429688 -8.46875 1.609375 -8.46875 C 1.773438 -8.46875 1.921875 -8.40625 2.046875 -8.28125 Z M 2.09375 0 L 1.125 0 L 1.125 -6.15625 L 2.09375 -6.15625 Z M 2.09375 0 "/></g></g></g><g fill="#ffffff" fill-opacity="1"><g transform="translate(163.779339, 212.68298)"><g><path d="M 2.03125 0 L 1.046875 0 L 1.046875 -10.5 L 2.03125 -10.5 Z M 2.03125 0 "/></g></g></g><g fill="#ffffff" fill-opacity="1"><g transform="translate(168.257618, 212.68298)"><g><path d="M 5.953125 -3.078125 C 5.953125 -3.671875 5.742188 -4.191406 5.328125 -4.640625 C 4.910156 -5.085938 4.394531 -5.3125 3.78125 -5.3125 C 3.164062 -5.3125 2.648438 -5.085938 2.234375 -4.640625 C 1.816406 -4.191406 1.609375 -3.671875 1.609375 -3.078125 C 1.609375 -2.484375 1.816406 -1.960938 2.234375 -1.515625 C 2.648438 -1.066406 3.164062 -0.84375 3.78125 -0.84375 C 4.394531 -0.84375 4.910156 -1.066406 5.328125 -1.515625 C 5.742188 -1.960938 5.953125 -2.484375 5.953125 -3.078125 Z M 6.9375 0 L 5.953125 0 L 5.953125 -1.046875 C 5.890625 -0.972656 5.832031 -0.90625 5.78125 -0.84375 C 5.195312 -0.1875 4.476562 0.140625 3.625 0.140625 C 2.78125 0.140625 2.066406 -0.1875 1.484375 -0.84375 C 0.910156 -1.476562 0.625 -2.222656 0.625 -3.078125 C 0.625 -3.941406 0.910156 -4.6875 1.484375 -5.3125 C 2.066406 -5.96875 2.78125 -6.296875 3.625 -6.296875 C 4.476562 -6.296875 5.195312 -5.96875 5.78125 -5.3125 C 5.832031 -5.25 5.890625 -5.179688 5.953125 -5.109375 L 5.953125 -10.5 L 6.9375 -10.5 Z M 6.9375 0 "/></g></g></g><g fill="#ffffff" fill-opacity="1"><g transform="translate(177.633167, 212.68298)"><g><path d="M 2.046875 -8.28125 C 2.160156 -8.164062 2.21875 -8.023438 2.21875 -7.859375 C 2.21875 -7.679688 2.160156 -7.53125 2.046875 -7.40625 C 1.921875 -7.28125 1.773438 -7.21875 1.609375 -7.21875 C 1.429688 -7.21875 1.28125 -7.28125 1.15625 -7.40625 C 1.039062 -7.53125 0.984375 -7.679688 0.984375 -7.859375 C 0.984375 -8.023438 1.039062 -8.164062 1.15625 -8.28125 C 1.28125 -8.40625 1.429688 -8.46875 1.609375 -8.46875 C 1.773438 -8.46875 1.921875 -8.40625 2.046875 -8.28125 Z M 2.09375 0 L 1.125 0 L 1.125 -6.15625 L 2.09375 -6.15625 Z M 2.09375 0 "/></g></g></g><g fill="#ffffff" fill-opacity="1"><g transform="translate(182.237376, 212.68298)"><g><path d="M 5.3125 0 L 5.3125 -3.84375 C 5.3125 -4.25 5.222656 -4.597656 5.046875 -4.890625 C 4.859375 -5.171875 4.550781 -5.3125 4.125 -5.3125 C 3.707031 -5.3125 3.367188 -5.226562 3.109375 -5.0625 C 2.847656 -4.90625 2.640625 -4.703125 2.484375 -4.453125 C 2.179688 -3.984375 2.03125 -3.359375 2.03125 -2.578125 L 2.03125 0 L 1.046875 0 L 1.046875 -6.15625 L 2.03125 -6.15625 L 2.03125 -5.09375 C 2.238281 -5.4375 2.5 -5.722656 2.8125 -5.953125 C 3.144531 -6.171875 3.53125 -6.28125 3.96875 -6.28125 C 4.414062 -6.28125 4.773438 -6.222656 5.046875 -6.109375 C 5.316406 -5.972656 5.539062 -5.800781 5.71875 -5.59375 C 6.09375 -5.144531 6.28125 -4.5625 6.28125 -3.84375 L 6.28125 0 Z M 5.3125 0 "/></g></g></g><g fill="#ffffff" fill-opacity="1"><g transform="translate(190.759402, 212.68298)"><g><path d="M 6.03125 -3.078125 C 6.03125 -3.671875 5.828125 -4.191406 5.421875 -4.640625 C 4.992188 -5.085938 4.472656 -5.3125 3.859375 -5.3125 C 3.265625 -5.3125 2.753906 -5.085938 2.328125 -4.640625 C 1.898438 -4.203125 1.6875 -3.679688 1.6875 -3.078125 C 1.6875 -2.472656 1.898438 -1.953125 2.328125 -1.515625 C 2.753906 -1.066406 3.265625 -0.84375 3.859375 -0.84375 C 4.472656 -0.84375 4.992188 -1.066406 5.421875 -1.515625 C 5.828125 -1.960938 6.03125 -2.484375 6.03125 -3.078125 Z M 1.671875 0.84375 C 1.765625 1.21875 1.960938 1.554688 2.265625 1.859375 C 2.691406 2.296875 3.210938 2.515625 3.828125 2.515625 C 4.429688 2.515625 4.953125 2.296875 5.390625 1.859375 C 5.816406 1.429688 6.03125 0.914062 6.03125 0.3125 L 6.03125 -1.03125 C 5.988281 -0.96875 5.9375 -0.90625 5.875 -0.84375 C 5.289062 -0.1875 4.570312 0.140625 3.71875 0.140625 C 2.863281 0.140625 2.144531 -0.1875 1.5625 -0.84375 C 1 -1.476562 0.71875 -2.222656 0.71875 -3.078125 C 0.71875 -3.941406 1 -4.6875 1.5625 -5.3125 C 2.144531 -5.96875 2.863281 -6.296875 3.71875 -6.296875 C 4.539062 -6.296875 5.257812 -5.96875 5.875 -5.3125 C 5.9375 -5.25 5.988281 -5.1875 6.03125 -5.125 L 6.03125 -6.15625 L 7.015625 -6.15625 L 7.015625 0.3125 C 7.015625 1.1875 6.703125 1.9375 6.078125 2.5625 C 5.453125 3.1875 4.703125 3.5 3.828125 3.5 C 2.941406 3.5 2.1875 3.1875 1.5625 2.5625 C 1.070312 2.0625 0.773438 1.488281 0.671875 0.84375 Z M 1.671875 0.84375 "/></g></g></g><g fill="#ffffff" fill-opacity="1"><g transform="translate(200.218905, 212.68298)"><g/></g></g><g fill="#ffffff" fill-opacity="1"><g transform="translate(205.396795, 212.68298)"><g><path d="M 1.828125 3.5 L 0.640625 3.5 L 2.71875 -1.015625 L 0.140625 -6.15625 L 1.265625 -6.15625 L 3.234375 -2.03125 L 5 -6.15625 L 6.09375 -6.15625 Z M 1.828125 3.5 "/></g></g></g><g fill="#ffffff" fill-opacity="1"><g transform="translate(212.743478, 212.68298)"><g><path d="M 6.09375 -3.109375 C 6.09375 -3.722656 5.875 -4.25 5.4375 -4.6875 C 5 -5.125 4.46875 -5.34375 3.84375 -5.34375 C 3.226562 -5.34375 2.703125 -5.125 2.265625 -4.6875 C 1.828125 -4.25 1.609375 -3.722656 1.609375 -3.109375 C 1.609375 -2.503906 1.828125 -1.984375 2.265625 -1.546875 C 2.703125 -1.097656 3.226562 -0.875 3.84375 -0.875 C 4.46875 -0.875 5 -1.097656 5.4375 -1.546875 C 5.875 -1.984375 6.09375 -2.503906 6.09375 -3.109375 Z M 7.0625 -3.109375 C 7.0625 -2.210938 6.75 -1.457031 6.125 -0.84375 C 5.488281 -0.21875 4.726562 0.09375 3.84375 0.09375 C 2.96875 0.09375 2.210938 -0.21875 1.578125 -0.84375 C 0.941406 -1.457031 0.625 -2.210938 0.625 -3.109375 C 0.625 -3.992188 0.941406 -4.753906 1.578125 -5.390625 C 2.203125 -6.015625 2.957031 -6.328125 3.84375 -6.328125 C 4.738281 -6.328125 5.5 -6.015625 6.125 -5.390625 C 6.75 -4.753906 7.0625 -3.992188 7.0625 -3.109375 Z M 7.0625 -3.109375 "/></g></g></g><g fill="#ffffff" fill-opacity="1"><g transform="translate(221.839184, 212.68298)"><g><path d="M 5.3125 -1.046875 C 4.851562 -0.265625 4.164062 0.125 3.25 0.125 C 2.5625 0.125 2.019531 -0.101562 1.625 -0.5625 C 1.238281 -1.019531 1.046875 -1.601562 1.046875 -2.3125 L 1.046875 -6.15625 L 2.03125 -6.15625 L 2.03125 -2.3125 C 2.03125 -1.90625 2.125 -1.5625 2.3125 -1.28125 C 2.488281 -1 2.785156 -0.859375 3.203125 -0.859375 C 3.972656 -0.859375 4.515625 -1.097656 4.828125 -1.578125 C 5.148438 -2.054688 5.3125 -2.722656 5.3125 -3.578125 L 5.3125 -6.15625 L 6.28125 -6.15625 L 6.28125 0 L 5.3125 0 Z M 5.3125 -1.046875 "/></g></g></g><g fill="#ffffff" fill-opacity="1"><g transform="translate(230.36121, 212.68298)"><g><path d="M 4.21875 -4.890625 C 3.988281 -5.085938 3.742188 -5.1875 3.484375 -5.1875 C 3.234375 -5.1875 3.019531 -5.117188 2.84375 -4.984375 C 2.65625 -4.835938 2.5 -4.660156 2.375 -4.453125 C 2.144531 -4.046875 2.03125 -3.585938 2.03125 -3.078125 L 2.03125 0 L 1.046875 0 L 1.046875 -6.15625 L 2.03125 -6.15625 L 2.03125 -4.890625 L 2.078125 -5.140625 C 2.398438 -5.898438 2.90625 -6.28125 3.59375 -6.28125 C 3.8125 -6.28125 4.019531 -6.238281 4.21875 -6.15625 Z M 4.21875 -4.890625 "/></g></g></g><g fill="#ffffff" fill-opacity="1"><g transform="translate(236.112781, 212.68298)"><g/></g></g><g fill="#ffffff" fill-opacity="1"><g transform="translate(241.290672, 212.68298)"><g><path d="M 7.0625 -3.21875 L 7.0625 -2.703125 L 1.65625 -2.703125 C 1.75 -2.171875 2.003906 -1.738281 2.421875 -1.40625 C 2.847656 -1.050781 3.320312 -0.875 3.84375 -0.875 C 4.195312 -0.875 4.539062 -0.960938 4.875 -1.140625 C 5.1875 -1.296875 5.453125 -1.519531 5.671875 -1.8125 L 6.796875 -1.8125 C 6.523438 -1.21875 6.128906 -0.753906 5.609375 -0.421875 C 5.078125 -0.078125 4.539062 0.09375 4 0.09375 C 3.445312 0.09375 2.984375 0.0078125 2.609375 -0.15625 C 2.210938 -0.320312 1.867188 -0.550781 1.578125 -0.84375 C 0.941406 -1.457031 0.625 -2.210938 0.625 -3.109375 C 0.625 -3.992188 0.941406 -4.753906 1.578125 -5.390625 C 2.203125 -6.015625 2.957031 -6.328125 3.84375 -6.328125 C 4.707031 -6.328125 5.460938 -6.023438 6.109375 -5.421875 C 6.742188 -4.804688 7.0625 -4.070312 7.0625 -3.21875 Z M 6.03125 -3.546875 C 5.914062 -4.066406 5.65625 -4.5 5.25 -4.84375 C 4.84375 -5.175781 4.375 -5.34375 3.84375 -5.34375 C 3.039062 -5.34375 2.410156 -4.984375 1.953125 -4.265625 C 1.816406 -4.046875 1.722656 -3.804688 1.671875 -3.546875 Z M 6.03125 -3.546875 "/></g></g></g><g fill="#ffffff" fill-opacity="1"><g transform="translate(250.31642, 212.68298)"><g><path d="M 8.859375 -0.03125 L 8.859375 -3.875 C 8.859375 -4.507812 8.660156 -4.957031 8.265625 -5.21875 C 8.117188 -5.300781 7.898438 -5.34375 7.609375 -5.34375 C 7.328125 -5.34375 7.054688 -5.257812 6.796875 -5.09375 C 6.546875 -4.925781 6.347656 -4.710938 6.203125 -4.453125 C 6.148438 -4.347656 6.097656 -4.234375 6.046875 -4.109375 C 6.046875 -4.035156 6.046875 -3.957031 6.046875 -3.875 L 6.046875 -0.03125 L 5.0625 -0.03125 L 5.0625 -3.875 C 5.0625 -4.507812 4.863281 -4.957031 4.46875 -5.21875 C 4.320312 -5.300781 4.109375 -5.34375 3.828125 -5.34375 C 3.535156 -5.34375 3.265625 -5.257812 3.015625 -5.09375 C 2.753906 -4.925781 2.550781 -4.710938 2.40625 -4.453125 C 2.207031 -4.109375 2.082031 -3.679688 2.03125 -3.171875 L 2.03125 -0.03125 L 1.046875 -0.03125 L 1.046875 -6.1875 L 2.03125 -6.1875 L 2.03125 -5.203125 C 2.21875 -5.523438 2.453125 -5.785156 2.734375 -5.984375 C 3.046875 -6.210938 3.414062 -6.328125 3.84375 -6.328125 C 4.28125 -6.328125 4.628906 -6.257812 4.890625 -6.125 C 5.148438 -5.988281 5.367188 -5.8125 5.546875 -5.59375 C 5.640625 -5.457031 5.722656 -5.3125 5.796875 -5.15625 C 5.984375 -5.488281 6.226562 -5.765625 6.53125 -5.984375 C 6.84375 -6.210938 7.210938 -6.328125 7.640625 -6.328125 C 8.066406 -6.328125 8.414062 -6.257812 8.6875 -6.125 C 8.945312 -5.988281 9.164062 -5.8125 9.34375 -5.59375 C 9.675781 -5.144531 9.84375 -4.570312 9.84375 -3.875 L 9.84375 -0.03125 Z M 8.859375 -0.03125 "/></g></g></g><g fill="#ffffff" fill-opacity="1"><g transform="translate(262.392465, 212.68298)"><g><path d="M 2.03125 3.5 L 1.046875 3.5 L 1.046875 -6.15625 L 2.03125 -6.15625 L 2.03125 -5.109375 C 2.082031 -5.179688 2.144531 -5.25 2.21875 -5.3125 C 2.789062 -5.96875 3.503906 -6.296875 4.359375 -6.296875 C 5.203125 -6.296875 5.921875 -5.96875 6.515625 -5.3125 C 7.066406 -4.6875 7.34375 -3.941406 7.34375 -3.078125 C 7.34375 -2.222656 7.066406 -1.476562 6.515625 -0.84375 C 5.921875 -0.1875 5.203125 0.140625 4.359375 0.140625 C 3.503906 0.140625 2.789062 -0.1875 2.21875 -0.84375 C 2.144531 -0.90625 2.082031 -0.972656 2.03125 -1.046875 Z M 6.375 -3.078125 C 6.375 -3.671875 6.164062 -4.191406 5.75 -4.640625 C 5.332031 -5.085938 4.816406 -5.3125 4.203125 -5.3125 C 3.585938 -5.3125 3.070312 -5.085938 2.65625 -4.640625 C 2.238281 -4.191406 2.03125 -3.671875 2.03125 -3.078125 C 2.03125 -2.484375 2.238281 -1.960938 2.65625 -1.515625 C 3.070312 -1.066406 3.585938 -0.84375 4.203125 -0.84375 C 4.816406 -0.84375 5.332031 -1.066406 5.75 -1.515625 C 6.164062 -1.960938 6.375 -2.484375 6.375 -3.078125 Z M 6.375 -3.078125 "/></g></g></g><g fill="#ffffff" fill-opacity="1"><g transform="translate(271.768014, 212.68298)"><g><path d="M 2.046875 -8.28125 C 2.160156 -8.164062 2.21875 -8.023438 2.21875 -7.859375 C 2.21875 -7.679688 2.160156 -7.53125 2.046875 -7.40625 C 1.921875 -7.28125 1.773438 -7.21875 1.609375 -7.21875 C 1.429688 -7.21875 1.28125 -7.28125 1.15625 -7.40625 C 1.039062 -7.53125 0.984375 -7.679688 0.984375 -7.859375 C 0.984375 -8.023438 1.039062 -8.164062 1.15625 -8.28125 C 1.28125 -8.40625 1.429688 -8.46875 1.609375 -8.46875 C 1.773438 -8.46875 1.921875 -8.40625 2.046875 -8.28125 Z M 2.09375 0 L 1.125 0 L 1.125 -6.15625 L 2.09375 -6.15625 Z M 2.09375 0 "/></g></g></g><g fill="#ffffff" fill-opacity="1"><g transform="translate(276.372224, 212.68298)"><g><path d="M 4.21875 -4.890625 C 3.988281 -5.085938 3.742188 -5.1875 3.484375 -5.1875 C 3.234375 -5.1875 3.019531 -5.117188 2.84375 -4.984375 C 2.65625 -4.835938 2.5 -4.660156 2.375 -4.453125 C 2.144531 -4.046875 2.03125 -3.585938 2.03125 -3.078125 L 2.03125 0 L 1.046875 0 L 1.046875 -6.15625 L 2.03125 -6.15625 L 2.03125 -4.890625 L 2.078125 -5.140625 C 2.398438 -5.898438 2.90625 -6.28125 3.59375 -6.28125 C 3.8125 -6.28125 4.019531 -6.238281 4.21875 -6.15625 Z M 4.21875 -4.890625 "/></g></g></g><g fill="#ffffff" fill-opacity="1"><g transform="translate(282.123795, 212.68298)"><g><path d="M 7.0625 -3.21875 L 7.0625 -2.703125 L 1.65625 -2.703125 C 1.75 -2.171875 2.003906 -1.738281 2.421875 -1.40625 C 2.847656 -1.050781 3.320312 -0.875 3.84375 -0.875 C 4.195312 -0.875 4.539062 -0.960938 4.875 -1.140625 C 5.1875 -1.296875 5.453125 -1.519531 5.671875 -1.8125 L 6.796875 -1.8125 C 6.523438 -1.21875 6.128906 -0.753906 5.609375 -0.421875 C 5.078125 -0.078125 4.539062 0.09375 4 0.09375 C 3.445312 0.09375 2.984375 0.0078125 2.609375 -0.15625 C 2.210938 -0.320312 1.867188 -0.550781 1.578125 -0.84375 C 0.941406 -1.457031 0.625 -2.210938 0.625 -3.109375 C 0.625 -3.992188 0.941406 -4.753906 1.578125 -5.390625 C 2.203125 -6.015625 2.957031 -6.328125 3.84375 -6.328125 C 4.707031 -6.328125 5.460938 -6.023438 6.109375 -5.421875 C 6.742188 -4.804688 7.0625 -4.070312 7.0625 -3.21875 Z M 6.03125 -3.546875 C 5.914062 -4.066406 5.65625 -4.5 5.25 -4.84375 C 4.84375 -5.175781 4.375 -5.34375 3.84375 -5.34375 C 3.039062 -5.34375 2.410156 -4.984375 1.953125 -4.265625 C 1.816406 -4.046875 1.722656 -3.804688 1.671875 -3.546875 Z M 6.03125 -3.546875 "/></g></g></g><g fill="#ffffff" fill-opacity="1"><g transform="translate(291.149544, 212.68298)"><g/></g></g><g fill="#ffffff" fill-opacity="1"><g transform="translate(296.327434, 212.68298)"><g><path d="M 7.0625 0.78125 L 5.0625 -4.1875 L 3.09375 0.78125 L 0.140625 -6.15625 L 1.234375 -6.15625 L 3.078125 -1.40625 L 5.0625 -6.484375 L 7.0625 -1.40625 L 8.90625 -6.15625 L 10 -6.15625 Z M 7.0625 0.78125 "/></g></g></g><g fill="#ffffff" fill-opacity="1"><g transform="translate(307.857779, 212.68298)"><g><path d="M 2.046875 -8.28125 C 2.160156 -8.164062 2.21875 -8.023438 2.21875 -7.859375 C 2.21875 -7.679688 2.160156 -7.53125 2.046875 -7.40625 C 1.921875 -7.28125 1.773438 -7.21875 1.609375 -7.21875 C 1.429688 -7.21875 1.28125 -7.28125 1.15625 -7.40625 C 1.039062 -7.53125 0.984375 -7.679688 0.984375 -7.859375 C 0.984375 -8.023438 1.039062 -8.164062 1.15625 -8.28125 C 1.28125 -8.40625 1.429688 -8.46875 1.609375 -8.46875 C 1.773438 -8.46875 1.921875 -8.40625 2.046875 -8.28125 Z M 2.09375 0 L 1.125 0 L 1.125 -6.15625 L 2.09375 -6.15625 Z M 2.09375 0 "/></g></g></g><g fill="#ffffff" fill-opacity="1"><g transform="translate(312.461989, 212.68298)"><g><path d="M 0.28125 -5.25 L 0.28125 -6.15625 L 1.8125 -6.15625 L 1.8125 -8.546875 L 2.796875 -8.546875 L 2.796875 -6.15625 L 4.328125 -6.15625 L 4.328125 -5.25 L 2.796875 -5.25 L 2.796875 0 L 1.8125 0 L 1.8125 -5.25 Z M 0.28125 -5.25 "/></g></g></g><g fill="#ffffff" fill-opacity="1"><g transform="translate(318.465422, 212.68298)"><g><path d="M 2.03125 0 L 1.046875 0 L 1.046875 -10.5 L 2.03125 -10.5 L 2.03125 -5.09375 C 2.238281 -5.4375 2.5 -5.722656 2.8125 -5.953125 C 3.144531 -6.171875 3.53125 -6.28125 3.96875 -6.28125 C 4.414062 -6.28125 4.773438 -6.222656 5.046875 -6.109375 C 5.316406 -5.972656 5.539062 -5.800781 5.71875 -5.59375 C 6.09375 -5.144531 6.28125 -4.5625 6.28125 -3.84375 L 6.28125 0 L 5.3125 0 L 5.3125 -3.84375 C 5.3125 -4.25 5.222656 -4.597656 5.046875 -4.890625 C 4.859375 -5.171875 4.550781 -5.3125 4.125 -5.3125 C 3.707031 -5.3125 3.367188 -5.242188 3.109375 -5.109375 C 2.847656 -4.972656 2.640625 -4.78125 2.484375 -4.53125 C 2.179688 -4.082031 2.03125 -3.429688 2.03125 -2.578125 Z M 2.03125 0 "/></g></g></g><g fill="#ffffff" fill-opacity="1"><g transform="translate(326.987447, 212.68298)"><g/></g></g><g fill="#ffffff" fill-opacity="1"><g transform="translate(332.165338, 212.68298)"><g><path d="M 1.828125 3.5 L 0.640625 3.5 L 2.71875 -1.015625 L 0.140625 -6.15625 L 1.265625 -6.15625 L 3.234375 -2.03125 L 5 -6.15625 L 6.09375 -6.15625 Z M 1.828125 3.5 "/></g></g></g><g fill="#ffffff" fill-opacity="1"><g transform="translate(339.512032, 212.68298)"><g><path d="M 6.09375 -3.109375 C 6.09375 -3.722656 5.875 -4.25 5.4375 -4.6875 C 5 -5.125 4.46875 -5.34375 3.84375 -5.34375 C 3.226562 -5.34375 2.703125 -5.125 2.265625 -4.6875 C 1.828125 -4.25 1.609375 -3.722656 1.609375 -3.109375 C 1.609375 -2.503906 1.828125 -1.984375 2.265625 -1.546875 C 2.703125 -1.097656 3.226562 -0.875 3.84375 -0.875 C 4.46875 -0.875 5 -1.097656 5.4375 -1.546875 C 5.875 -1.984375 6.09375 -2.503906 6.09375 -3.109375 Z M 7.0625 -3.109375 C 7.0625 -2.210938 6.75 -1.457031 6.125 -0.84375 C 5.488281 -0.21875 4.726562 0.09375 3.84375 0.09375 C 2.96875 0.09375 2.210938 -0.21875 1.578125 -0.84375 C 0.941406 -1.457031 0.625 -2.210938 0.625 -3.109375 C 0.625 -3.992188 0.941406 -4.753906 1.578125 -5.390625 C 2.203125 -6.015625 2.957031 -6.328125 3.84375 -6.328125 C 4.738281 -6.328125 5.5 -6.015625 6.125 -5.390625 C 6.75 -4.753906 7.0625 -3.992188 7.0625 -3.109375 Z M 7.0625 -3.109375 "/></g></g></g><g fill="#ffffff" fill-opacity="1"><g transform="translate(348.607727, 212.68298)"><g><path d="M 5.3125 -1.046875 C 4.851562 -0.265625 4.164062 0.125 3.25 0.125 C 2.5625 0.125 2.019531 -0.101562 1.625 -0.5625 C 1.238281 -1.019531 1.046875 -1.601562 1.046875 -2.3125 L 1.046875 -6.15625 L 2.03125 -6.15625 L 2.03125 -2.3125 C 2.03125 -1.90625 2.125 -1.5625 2.3125 -1.28125 C 2.488281 -1 2.785156 -0.859375 3.203125 -0.859375 C 3.972656 -0.859375 4.515625 -1.097656 4.828125 -1.578125 C 5.148438 -2.054688 5.3125 -2.722656 5.3125 -3.578125 L 5.3125 -6.15625 L 6.28125 -6.15625 L 6.28125 0 L 5.3125 0 Z M 5.3125 -1.046875 "/></g></g></g><g fill="#ffffff" fill-opacity="1"><g transform="translate(357.129752, 212.68298)"><g><path d="M 2.6875 -0.09375 C 2.519531 0.0625 2.328125 0.140625 2.109375 0.140625 C 1.890625 0.140625 1.703125 0.0625 1.546875 -0.09375 C 1.367188 -0.25 1.28125 -0.429688 1.28125 -0.640625 C 1.28125 -0.859375 1.367188 -1.046875 1.546875 -1.203125 C 1.703125 -1.359375 1.890625 -1.4375 2.109375 -1.4375 C 2.328125 -1.4375 2.519531 -1.363281 2.6875 -1.21875 C 2.84375 -1.0625 2.921875 -0.875 2.921875 -0.65625 C 2.921875 -0.4375 2.84375 -0.25 2.6875 -0.09375 Z M 2.828125 -10.5 L 2.5625 -2.84375 L 1.640625 -2.84375 L 1.375 -10.5 Z M 2.828125 -10.5 "/></g></g></g></svg>