<svg xmlns="http://www.w3.org/2000/svg" xmlns:xlink="http://www.w3.org/1999/xlink" width="500" zoomAndPan="magnify" viewBox="0 0 375 374.999991" height="500" preserveAspectRatio="xMidYMid meet" version="1.0"><defs><g/><clipPath id="6d614f00de"><rect x="0" width="344" y="0" height="65"/></clipPath></defs><g fill="#e6c068" fill-opacity="1"><g transform="translate(69.303808, 202.827438)"><g><path d="M 0.921875 -0.21875 C 0.921875 -0.363281 0.976562 -0.445312 1.09375 -0.46875 C 1.21875 -0.5 1.363281 -0.515625 1.53125 -0.515625 C 1.707031 -0.523438 1.929688 -0.632812 2.203125 -0.84375 C 2.472656 -1.050781 2.734375 -1.363281 2.984375 -1.78125 L 8.140625 -10.84375 C 8.148438 -10.851562 8.164062 -10.882812 8.1875 -10.9375 C 8.21875 -10.988281 8.242188 -11.023438 8.265625 -11.046875 C 8.296875 -11.078125 8.328125 -11.113281 8.359375 -11.15625 C 8.398438 -11.195312 8.441406 -11.222656 8.484375 -11.234375 C 8.535156 -11.253906 8.585938 -11.265625 8.640625 -11.265625 C 8.679688 -11.265625 8.71875 -11.257812 8.75 -11.25 C 8.78125 -11.25 8.804688 -11.234375 8.828125 -11.203125 C 8.847656 -11.179688 8.863281 -11.164062 8.875 -11.15625 C 8.882812 -11.144531 8.894531 -11.117188 8.90625 -11.078125 C 8.914062 -11.035156 8.921875 -11.007812 8.921875 -11 C 8.921875 -10.988281 8.925781 -10.957031 8.9375 -10.90625 L 8.9375 -10.828125 L 9.609375 -1.046875 C 9.617188 -0.804688 9.675781 -0.65625 9.78125 -0.59375 C 9.882812 -0.53125 10.101562 -0.492188 10.4375 -0.484375 C 10.71875 -0.484375 10.859375 -0.410156 10.859375 -0.265625 C 10.859375 -0.0859375 10.753906 0 10.546875 0 C 10.492188 0 10.300781 -0.00390625 9.96875 -0.015625 C 9.644531 -0.0351562 9.296875 -0.046875 8.921875 -0.046875 C 8.554688 -0.046875 8.238281 -0.0390625 7.96875 -0.03125 C 7.707031 -0.03125 7.507812 -0.0234375 7.375 -0.015625 C 7.25 -0.00390625 7.175781 0 7.15625 0 C 7 0 6.921875 -0.0703125 6.921875 -0.21875 C 6.921875 -0.320312 6.960938 -0.394531 7.046875 -0.4375 C 7.128906 -0.476562 7.226562 -0.492188 7.34375 -0.484375 C 7.46875 -0.484375 7.609375 -0.5 7.765625 -0.53125 C 7.921875 -0.5625 8.0625 -0.625 8.1875 -0.71875 C 8.269531 -0.789062 8.3125 -0.9375 8.3125 -1.15625 C 8.3125 -1.21875 8.300781 -1.34375 8.28125 -1.53125 C 8.269531 -1.71875 8.25 -2.003906 8.21875 -2.390625 C 8.195312 -2.785156 8.171875 -3.195312 8.140625 -3.625 L 4.546875 -3.625 C 4.453125 -3.445312 4.347656 -3.257812 4.234375 -3.0625 C 4.128906 -2.875 4.039062 -2.722656 3.96875 -2.609375 C 3.90625 -2.492188 3.832031 -2.367188 3.75 -2.234375 C 3.675781 -2.097656 3.617188 -1.988281 3.578125 -1.90625 C 3.535156 -1.832031 3.488281 -1.75 3.4375 -1.65625 C 3.382812 -1.570312 3.347656 -1.503906 3.328125 -1.453125 C 3.304688 -1.398438 3.285156 -1.34375 3.265625 -1.28125 C 3.242188 -1.226562 3.226562 -1.179688 3.21875 -1.140625 C 3.21875 -1.097656 3.21875 -1.054688 3.21875 -1.015625 C 3.21875 -0.867188 3.257812 -0.753906 3.34375 -0.671875 C 3.4375 -0.585938 3.535156 -0.539062 3.640625 -0.53125 C 3.753906 -0.519531 3.851562 -0.492188 3.9375 -0.453125 C 4.03125 -0.421875 4.078125 -0.367188 4.078125 -0.296875 C 4.078125 -0.0976562 3.96875 0 3.75 0 C 3.71875 0 3.640625 -0.00390625 3.515625 -0.015625 C 3.398438 -0.0234375 3.238281 -0.03125 3.03125 -0.03125 C 2.820312 -0.0390625 2.597656 -0.046875 2.359375 -0.046875 C 2.160156 -0.046875 1.9375 -0.0351562 1.6875 -0.015625 C 1.445312 -0.00390625 1.3125 0 1.28125 0 C 1.039062 0 0.921875 -0.0703125 0.921875 -0.21875 Z M 4.828125 -4.09375 L 8.109375 -4.09375 L 7.765625 -9.234375 Z M 4.828125 -4.09375 "/></g></g></g><g fill="#e6c068" fill-opacity="1"><g transform="translate(86.553086, 202.827438)"><g/></g></g><g fill="#e6c068" fill-opacity="1"><g transform="translate(97.751324, 202.827438)"><g><path d="M 0.96875 -0.1875 C 0.96875 -0.332031 1 -0.414062 1.0625 -0.4375 C 1.132812 -0.46875 1.242188 -0.484375 1.390625 -0.484375 C 1.910156 -0.484375 2.238281 -0.519531 2.375 -0.59375 C 2.519531 -0.675781 2.625 -0.863281 2.6875 -1.15625 L 4.8125 -9.703125 C 4.851562 -9.847656 4.875 -9.941406 4.875 -9.984375 C 4.875 -10.109375 4.800781 -10.179688 4.65625 -10.203125 C 4.507812 -10.234375 4.28125 -10.25 3.96875 -10.25 C 3.84375 -10.25 3.757812 -10.25 3.71875 -10.25 C 3.675781 -10.257812 3.632812 -10.28125 3.59375 -10.3125 C 3.5625 -10.34375 3.546875 -10.390625 3.546875 -10.453125 C 3.546875 -10.648438 3.644531 -10.75 3.84375 -10.75 C 4.050781 -10.75 4.367188 -10.738281 4.796875 -10.71875 C 5.234375 -10.707031 5.5625 -10.703125 5.78125 -10.703125 C 6.019531 -10.703125 6.378906 -10.707031 6.859375 -10.71875 C 7.347656 -10.738281 7.707031 -10.75 7.9375 -10.75 C 8.101562 -10.75 8.1875 -10.6875 8.1875 -10.5625 C 8.1875 -10.414062 8.148438 -10.328125 8.078125 -10.296875 C 8.015625 -10.265625 7.90625 -10.25 7.75 -10.25 L 7.578125 -10.25 C 6.972656 -10.25 6.585938 -10.203125 6.421875 -10.109375 C 6.265625 -10.023438 6.148438 -9.835938 6.078125 -9.546875 L 3.9375 -0.984375 C 3.9375 -0.972656 3.925781 -0.921875 3.90625 -0.828125 C 3.882812 -0.742188 3.875 -0.679688 3.875 -0.640625 C 3.875 -0.597656 3.878906 -0.566406 3.890625 -0.546875 C 3.898438 -0.523438 3.941406 -0.507812 4.015625 -0.5 C 4.085938 -0.488281 4.203125 -0.484375 4.359375 -0.484375 L 5.625 -0.484375 C 6.101562 -0.484375 6.53125 -0.554688 6.90625 -0.703125 C 7.28125 -0.847656 7.582031 -1.015625 7.8125 -1.203125 C 8.050781 -1.390625 8.273438 -1.648438 8.484375 -1.984375 C 8.691406 -2.328125 8.835938 -2.609375 8.921875 -2.828125 C 9.015625 -3.046875 9.128906 -3.335938 9.265625 -3.703125 C 9.328125 -3.867188 9.367188 -3.96875 9.390625 -4 C 9.421875 -4.039062 9.484375 -4.0625 9.578125 -4.0625 C 9.734375 -4.0625 9.8125 -4 9.8125 -3.875 L 9.78125 -3.78125 C 9.757812 -3.71875 9.75 -3.679688 9.75 -3.671875 L 8.5625 -0.28125 C 8.507812 -0.144531 8.457031 -0.0625 8.40625 -0.03125 C 8.363281 -0.0078125 8.265625 0 8.109375 0 L 1.375 0 C 1.269531 0 1.191406 0 1.140625 0 C 1.097656 -0.0078125 1.054688 -0.0234375 1.015625 -0.046875 C 0.984375 -0.078125 0.96875 -0.125 0.96875 -0.1875 Z M 0.96875 -0.1875 "/></g></g></g><g fill="#e6c068" fill-opacity="1"><g transform="translate(113.180682, 202.827438)"><g><path d="M 0.921875 -0.21875 C 0.921875 -0.363281 0.976562 -0.445312 1.09375 -0.46875 C 1.21875 -0.5 1.363281 -0.515625 1.53125 -0.515625 C 1.707031 -0.523438 1.929688 -0.632812 2.203125 -0.84375 C 2.472656 -1.050781 2.734375 -1.363281 2.984375 -1.78125 L 8.140625 -10.84375 C 8.148438 -10.851562 8.164062 -10.882812 8.1875 -10.9375 C 8.21875 -10.988281 8.242188 -11.023438 8.265625 -11.046875 C 8.296875 -11.078125 8.328125 -11.113281 8.359375 -11.15625 C 8.398438 -11.195312 8.441406 -11.222656 8.484375 -11.234375 C 8.535156 -11.253906 8.585938 -11.265625 8.640625 -11.265625 C 8.679688 -11.265625 8.71875 -11.257812 8.75 -11.25 C 8.78125 -11.25 8.804688 -11.234375 8.828125 -11.203125 C 8.847656 -11.179688 8.863281 -11.164062 8.875 -11.15625 C 8.882812 -11.144531 8.894531 -11.117188 8.90625 -11.078125 C 8.914062 -11.035156 8.921875 -11.007812 8.921875 -11 C 8.921875 -10.988281 8.925781 -10.957031 8.9375 -10.90625 L 8.9375 -10.828125 L 9.609375 -1.046875 C 9.617188 -0.804688 9.675781 -0.65625 9.78125 -0.59375 C 9.882812 -0.53125 10.101562 -0.492188 10.4375 -0.484375 C 10.71875 -0.484375 10.859375 -0.410156 10.859375 -0.265625 C 10.859375 -0.0859375 10.753906 0 10.546875 0 C 10.492188 0 10.300781 -0.00390625 9.96875 -0.015625 C 9.644531 -0.0351562 9.296875 -0.046875 8.921875 -0.046875 C 8.554688 -0.046875 8.238281 -0.0390625 7.96875 -0.03125 C 7.707031 -0.03125 7.507812 -0.0234375 7.375 -0.015625 C 7.25 -0.00390625 7.175781 0 7.15625 0 C 7 0 6.921875 -0.0703125 6.921875 -0.21875 C 6.921875 -0.320312 6.960938 -0.394531 7.046875 -0.4375 C 7.128906 -0.476562 7.226562 -0.492188 7.34375 -0.484375 C 7.46875 -0.484375 7.609375 -0.5 7.765625 -0.53125 C 7.921875 -0.5625 8.0625 -0.625 8.1875 -0.71875 C 8.269531 -0.789062 8.3125 -0.9375 8.3125 -1.15625 C 8.3125 -1.21875 8.300781 -1.34375 8.28125 -1.53125 C 8.269531 -1.71875 8.25 -2.003906 8.21875 -2.390625 C 8.195312 -2.785156 8.171875 -3.195312 8.140625 -3.625 L 4.546875 -3.625 C 4.453125 -3.445312 4.347656 -3.257812 4.234375 -3.0625 C 4.128906 -2.875 4.039062 -2.722656 3.96875 -2.609375 C 3.90625 -2.492188 3.832031 -2.367188 3.75 -2.234375 C 3.675781 -2.097656 3.617188 -1.988281 3.578125 -1.90625 C 3.535156 -1.832031 3.488281 -1.75 3.4375 -1.65625 C 3.382812 -1.570312 3.347656 -1.503906 3.328125 -1.453125 C 3.304688 -1.398438 3.285156 -1.34375 3.265625 -1.28125 C 3.242188 -1.226562 3.226562 -1.179688 3.21875 -1.140625 C 3.21875 -1.097656 3.21875 -1.054688 3.21875 -1.015625 C 3.21875 -0.867188 3.257812 -0.753906 3.34375 -0.671875 C 3.4375 -0.585938 3.535156 -0.539062 3.640625 -0.53125 C 3.753906 -0.519531 3.851562 -0.492188 3.9375 -0.453125 C 4.03125 -0.421875 4.078125 -0.367188 4.078125 -0.296875 C 4.078125 -0.0976562 3.96875 0 3.75 0 C 3.71875 0 3.640625 -0.00390625 3.515625 -0.015625 C 3.398438 -0.0234375 3.238281 -0.03125 3.03125 -0.03125 C 2.820312 -0.0390625 2.597656 -0.046875 2.359375 -0.046875 C 2.160156 -0.046875 1.9375 -0.0351562 1.6875 -0.015625 C 1.445312 -0.00390625 1.3125 0 1.28125 0 C 1.039062 0 0.921875 -0.0703125 0.921875 -0.21875 Z M 4.828125 -4.09375 L 8.109375 -4.09375 L 7.765625 -9.234375 Z M 4.828125 -4.09375 "/></g></g></g><g fill="#e6c068" fill-opacity="1"><g transform="translate(130.42996, 202.827438)"><g><path d="M 0.96875 -0.1875 C 0.96875 -0.382812 1.070312 -0.484375 1.28125 -0.484375 C 2.113281 -0.515625 2.617188 -0.882812 2.796875 -1.59375 L 4.875 -9.921875 C 4.90625 -10.023438 4.921875 -10.097656 4.921875 -10.140625 C 4.921875 -10.210938 4.601562 -10.25 3.96875 -10.25 C 3.84375 -10.25 3.757812 -10.25 3.71875 -10.25 C 3.675781 -10.257812 3.632812 -10.28125 3.59375 -10.3125 C 3.5625 -10.34375 3.546875 -10.390625 3.546875 -10.453125 C 3.546875 -10.585938 3.570312 -10.671875 3.625 -10.703125 C 3.6875 -10.734375 3.800781 -10.75 3.96875 -10.75 L 5.9375 -10.75 C 6.101562 -10.75 6.203125 -10.734375 6.234375 -10.703125 C 6.273438 -10.679688 6.320312 -10.609375 6.375 -10.484375 L 9.3125 -2.296875 L 11.046875 -9.203125 C 11.085938 -9.367188 11.109375 -9.492188 11.109375 -9.578125 C 11.109375 -10.003906 10.796875 -10.226562 10.171875 -10.25 C 9.972656 -10.25 9.875 -10.316406 9.875 -10.453125 C 9.875 -10.648438 9.972656 -10.75 10.171875 -10.75 C 10.328125 -10.75 10.578125 -10.738281 10.921875 -10.71875 C 11.265625 -10.707031 11.519531 -10.703125 11.6875 -10.703125 C 11.851562 -10.703125 12.109375 -10.707031 12.453125 -10.71875 C 12.796875 -10.738281 13.046875 -10.75 13.203125 -10.75 C 13.335938 -10.75 13.40625 -10.679688 13.40625 -10.546875 C 13.40625 -10.347656 13.328125 -10.25 13.171875 -10.25 C 12.273438 -10.21875 11.742188 -9.863281 11.578125 -9.1875 L 9.375 -0.3125 C 9.332031 -0.175781 9.289062 -0.0859375 9.25 -0.046875 C 9.21875 -0.015625 9.15625 0 9.0625 0 C 8.957031 0 8.890625 -0.0078125 8.859375 -0.03125 C 8.828125 -0.0625 8.789062 -0.140625 8.75 -0.265625 L 5.359375 -9.65625 L 3.328125 -1.5625 C 3.285156 -1.394531 3.265625 -1.265625 3.265625 -1.171875 C 3.265625 -1.085938 3.269531 -1.015625 3.28125 -0.953125 C 3.300781 -0.898438 3.335938 -0.832031 3.390625 -0.75 C 3.453125 -0.675781 3.550781 -0.613281 3.6875 -0.5625 C 3.820312 -0.519531 3.992188 -0.492188 4.203125 -0.484375 C 4.398438 -0.484375 4.5 -0.414062 4.5 -0.28125 C 4.5 -0.09375 4.40625 0 4.21875 0 C 4.0625 0 3.804688 -0.00390625 3.453125 -0.015625 C 3.097656 -0.0351562 2.835938 -0.046875 2.671875 -0.046875 C 2.503906 -0.046875 2.25 -0.0351562 1.90625 -0.015625 C 1.570312 -0.00390625 1.332031 0 1.1875 0 C 1.039062 0 0.96875 -0.0625 0.96875 -0.1875 Z M 0.96875 -0.1875 "/></g></g></g><g fill="#e6c068" fill-opacity="1"><g transform="translate(147.679238, 202.827438)"><g><path d="M 0.984375 -0.1875 C 0.984375 -0.332031 1.015625 -0.414062 1.078125 -0.4375 C 1.148438 -0.46875 1.257812 -0.484375 1.40625 -0.484375 C 1.925781 -0.484375 2.253906 -0.519531 2.390625 -0.59375 C 2.535156 -0.675781 2.640625 -0.863281 2.703125 -1.15625 L 4.828125 -9.703125 C 4.867188 -9.847656 4.890625 -9.941406 4.890625 -9.984375 C 4.890625 -10.109375 4.816406 -10.179688 4.671875 -10.203125 C 4.523438 -10.234375 4.296875 -10.25 3.984375 -10.25 C 3.859375 -10.25 3.773438 -10.25 3.734375 -10.25 C 3.691406 -10.257812 3.648438 -10.28125 3.609375 -10.3125 C 3.578125 -10.34375 3.5625 -10.390625 3.5625 -10.453125 C 3.5625 -10.585938 3.585938 -10.671875 3.640625 -10.703125 C 3.703125 -10.734375 3.816406 -10.75 3.984375 -10.75 L 8.890625 -10.75 C 9.898438 -10.75 10.703125 -10.390625 11.296875 -9.671875 C 11.890625 -8.960938 12.1875 -8.035156 12.1875 -6.890625 C 12.1875 -5.734375 11.898438 -4.617188 11.328125 -3.546875 C 10.753906 -2.484375 10 -1.625 9.0625 -0.96875 C 8.132812 -0.320312 7.1875 0 6.21875 0 L 1.390625 0 C 1.285156 0 1.207031 0 1.15625 0 C 1.113281 -0.0078125 1.070312 -0.0234375 1.03125 -0.046875 C 1 -0.078125 0.984375 -0.125 0.984375 -0.1875 Z M 3.875 -0.828125 C 3.851562 -0.742188 3.84375 -0.679688 3.84375 -0.640625 C 3.84375 -0.597656 3.847656 -0.566406 3.859375 -0.546875 C 3.867188 -0.523438 3.910156 -0.507812 3.984375 -0.5 C 4.054688 -0.488281 4.171875 -0.484375 4.328125 -0.484375 L 5.953125 -0.484375 C 7.160156 -0.484375 8.207031 -1.003906 9.09375 -2.046875 C 9.6875 -2.734375 10.132812 -3.644531 10.4375 -4.78125 C 10.738281 -5.914062 10.890625 -6.816406 10.890625 -7.484375 C 10.890625 -8.441406 10.644531 -9.140625 10.15625 -9.578125 C 9.675781 -10.023438 9.082031 -10.25 8.375 -10.25 L 6.84375 -10.25 C 6.570312 -10.25 6.390625 -10.222656 6.296875 -10.171875 C 6.210938 -10.117188 6.140625 -9.960938 6.078125 -9.703125 L 3.90625 -0.984375 C 3.90625 -0.972656 3.894531 -0.921875 3.875 -0.828125 Z M 3.875 -0.828125 "/></g></g></g><g fill="#e6c068" fill-opacity="1"><g transform="translate(165.120491, 202.827438)"><g><path d="M 0.96875 -0.1875 C 0.96875 -0.332031 1 -0.414062 1.0625 -0.4375 C 1.132812 -0.46875 1.242188 -0.484375 1.390625 -0.484375 C 1.910156 -0.484375 2.238281 -0.519531 2.375 -0.59375 C 2.519531 -0.675781 2.625 -0.863281 2.6875 -1.15625 L 4.8125 -9.703125 C 4.851562 -9.847656 4.875 -9.941406 4.875 -9.984375 C 4.875 -10.109375 4.800781 -10.179688 4.65625 -10.203125 C 4.507812 -10.234375 4.28125 -10.25 3.96875 -10.25 C 3.84375 -10.25 3.757812 -10.25 3.71875 -10.25 C 3.675781 -10.257812 3.632812 -10.28125 3.59375 -10.3125 C 3.5625 -10.34375 3.546875 -10.390625 3.546875 -10.453125 C 3.546875 -10.648438 3.644531 -10.75 3.84375 -10.75 C 4.050781 -10.75 4.367188 -10.738281 4.796875 -10.71875 C 5.234375 -10.707031 5.5625 -10.703125 5.78125 -10.703125 C 6.019531 -10.703125 6.378906 -10.707031 6.859375 -10.71875 C 7.347656 -10.738281 7.707031 -10.75 7.9375 -10.75 C 8.101562 -10.75 8.1875 -10.6875 8.1875 -10.5625 C 8.1875 -10.414062 8.148438 -10.328125 8.078125 -10.296875 C 8.015625 -10.265625 7.90625 -10.25 7.75 -10.25 L 7.578125 -10.25 C 6.972656 -10.25 6.585938 -10.203125 6.421875 -10.109375 C 6.265625 -10.023438 6.148438 -9.835938 6.078125 -9.546875 L 3.9375 -0.984375 C 3.9375 -0.972656 3.925781 -0.921875 3.90625 -0.828125 C 3.882812 -0.742188 3.875 -0.679688 3.875 -0.640625 C 3.875 -0.597656 3.878906 -0.566406 3.890625 -0.546875 C 3.898438 -0.523438 3.941406 -0.507812 4.015625 -0.5 C 4.085938 -0.488281 4.203125 -0.484375 4.359375 -0.484375 L 5.625 -0.484375 C 6.101562 -0.484375 6.53125 -0.554688 6.90625 -0.703125 C 7.28125 -0.847656 7.582031 -1.015625 7.8125 -1.203125 C 8.050781 -1.390625 8.273438 -1.648438 8.484375 -1.984375 C 8.691406 -2.328125 8.835938 -2.609375 8.921875 -2.828125 C 9.015625 -3.046875 9.128906 -3.335938 9.265625 -3.703125 C 9.328125 -3.867188 9.367188 -3.96875 9.390625 -4 C 9.421875 -4.039062 9.484375 -4.0625 9.578125 -4.0625 C 9.734375 -4.0625 9.8125 -4 9.8125 -3.875 L 9.78125 -3.78125 C 9.757812 -3.71875 9.75 -3.679688 9.75 -3.671875 L 8.5625 -0.28125 C 8.507812 -0.144531 8.457031 -0.0625 8.40625 -0.03125 C 8.363281 -0.0078125 8.265625 0 8.109375 0 L 1.375 0 C 1.269531 0 1.191406 0 1.140625 0 C 1.097656 -0.0078125 1.054688 -0.0234375 1.015625 -0.046875 C 0.984375 -0.078125 0.96875 -0.125 0.96875 -0.1875 Z M 0.96875 -0.1875 "/></g></g></g><g fill="#e6c068" fill-opacity="1"><g transform="translate(180.549849, 202.827438)"><g><path d="M 2.328125 -3.703125 C 2.328125 -4.890625 2.640625 -6.054688 3.265625 -7.203125 C 3.890625 -8.359375 4.707031 -9.296875 5.71875 -10.015625 C 6.726562 -10.734375 7.757812 -11.09375 8.8125 -11.09375 C 9.84375 -11.09375 10.695312 -10.722656 11.375 -9.984375 C 12.0625 -9.242188 12.40625 -8.242188 12.40625 -6.984375 C 12.40625 -5.753906 12.085938 -4.566406 11.453125 -3.421875 C 10.816406 -2.285156 10 -1.375 9 -0.6875 C 8 0 6.984375 0.34375 5.953125 0.34375 C 4.878906 0.34375 4.003906 -0.03125 3.328125 -0.78125 C 2.660156 -1.539062 2.328125 -2.515625 2.328125 -3.703125 Z M 3.734375 -3.234375 C 3.734375 -2.285156 3.941406 -1.519531 4.359375 -0.9375 C 4.773438 -0.351562 5.335938 -0.0625 6.046875 -0.0625 C 6.660156 -0.0625 7.289062 -0.289062 7.9375 -0.75 C 8.59375 -1.21875 9.164062 -1.878906 9.65625 -2.734375 C 10.0625 -3.429688 10.394531 -4.25 10.65625 -5.1875 C 10.925781 -6.125 11.0625 -6.941406 11.0625 -7.640625 C 11.0625 -8.640625 10.832031 -9.398438 10.375 -9.921875 C 9.925781 -10.441406 9.367188 -10.703125 8.703125 -10.703125 C 8.035156 -10.703125 7.367188 -10.453125 6.703125 -9.953125 C 6.035156 -9.460938 5.488281 -8.835938 5.0625 -8.078125 C 4.582031 -7.234375 4.238281 -6.351562 4.03125 -5.4375 C 3.832031 -4.519531 3.734375 -3.785156 3.734375 -3.234375 Z M 3.734375 -3.234375 "/></g></g></g><g fill="#e6c068" fill-opacity="1"><g transform="translate(198.160039, 202.827438)"><g><path d="M 0.984375 -0.1875 C 0.984375 -0.332031 1.015625 -0.414062 1.078125 -0.4375 C 1.148438 -0.46875 1.257812 -0.484375 1.40625 -0.484375 C 1.925781 -0.484375 2.253906 -0.519531 2.390625 -0.59375 C 2.535156 -0.675781 2.640625 -0.863281 2.703125 -1.15625 L 4.828125 -9.703125 C 4.867188 -9.847656 4.890625 -9.941406 4.890625 -9.984375 C 4.890625 -10.109375 4.816406 -10.179688 4.671875 -10.203125 C 4.523438 -10.234375 4.296875 -10.25 3.984375 -10.25 C 3.859375 -10.25 3.773438 -10.25 3.734375 -10.25 C 3.691406 -10.257812 3.648438 -10.28125 3.609375 -10.3125 C 3.578125 -10.34375 3.5625 -10.390625 3.5625 -10.453125 C 3.5625 -10.585938 3.585938 -10.671875 3.640625 -10.703125 C 3.703125 -10.734375 3.816406 -10.75 3.984375 -10.75 L 8.140625 -10.75 C 9.085938 -10.75 9.847656 -10.519531 10.421875 -10.0625 C 11.003906 -9.613281 11.296875 -9.066406 11.296875 -8.421875 C 11.296875 -7.796875 11.007812 -7.191406 10.4375 -6.609375 C 9.863281 -6.035156 9.046875 -5.609375 7.984375 -5.328125 C 8.398438 -5.179688 8.726562 -4.945312 8.96875 -4.625 C 9.21875 -4.3125 9.34375 -3.941406 9.34375 -3.515625 C 9.34375 -3.234375 9.300781 -2.769531 9.21875 -2.125 C 9.15625 -1.582031 9.125 -1.179688 9.125 -0.921875 C 9.125 -0.722656 9.132812 -0.566406 9.15625 -0.453125 C 9.175781 -0.335938 9.222656 -0.234375 9.296875 -0.140625 C 9.378906 -0.046875 9.492188 0 9.640625 0 C 9.890625 0 10.125 -0.117188 10.34375 -0.359375 C 10.5625 -0.609375 10.738281 -0.953125 10.875 -1.390625 C 10.894531 -1.453125 10.910156 -1.5 10.921875 -1.53125 C 10.929688 -1.570312 10.953125 -1.601562 10.984375 -1.625 C 11.023438 -1.644531 11.078125 -1.65625 11.140625 -1.65625 C 11.296875 -1.65625 11.375 -1.582031 11.375 -1.4375 C 11.375 -1.351562 11.320312 -1.179688 11.21875 -0.921875 C 11.113281 -0.660156 10.914062 -0.382812 10.625 -0.09375 C 10.332031 0.195312 9.984375 0.34375 9.578125 0.34375 C 9.035156 0.34375 8.570312 0.203125 8.1875 -0.078125 C 7.8125 -0.359375 7.625 -0.773438 7.625 -1.328125 C 7.625 -1.492188 7.707031 -1.910156 7.875 -2.578125 C 8.050781 -3.296875 8.140625 -3.710938 8.140625 -3.828125 C 8.140625 -4.335938 7.992188 -4.691406 7.703125 -4.890625 C 7.410156 -5.097656 7.0625 -5.203125 6.65625 -5.203125 L 4.953125 -5.203125 L 3.9375 -1.0625 C 3.894531 -0.914062 3.875 -0.8125 3.875 -0.75 C 3.875 -0.6875 3.882812 -0.640625 3.90625 -0.609375 C 3.925781 -0.578125 4.003906 -0.546875 4.140625 -0.515625 C 4.285156 -0.492188 4.5 -0.484375 4.78125 -0.484375 C 4.914062 -0.484375 5.003906 -0.476562 5.046875 -0.46875 C 5.085938 -0.46875 5.125 -0.453125 5.15625 -0.421875 C 5.1875 -0.390625 5.203125 -0.34375 5.203125 -0.28125 C 5.203125 -0.09375 5.101562 0 4.90625 0 C 4.695312 0 4.378906 -0.00390625 3.953125 -0.015625 C 3.535156 -0.0351562 3.226562 -0.046875 3.03125 -0.046875 C 2.832031 -0.046875 2.53125 -0.0351562 2.125 -0.015625 C 1.71875 -0.00390625 1.414062 0 1.21875 0 C 1.0625 0 0.984375 -0.0625 0.984375 -0.1875 Z M 5.046875 -5.546875 L 6.640625 -5.546875 C 7.628906 -5.546875 8.40625 -5.820312 8.96875 -6.375 C 9.21875 -6.625 9.414062 -6.953125 9.5625 -7.359375 C 9.71875 -7.765625 9.804688 -8.070312 9.828125 -8.28125 C 9.859375 -8.5 9.875 -8.664062 9.875 -8.78125 C 9.875 -9.0625 9.8125 -9.300781 9.6875 -9.5 C 9.570312 -9.695312 9.4375 -9.84375 9.28125 -9.9375 C 9.132812 -10.039062 8.925781 -10.113281 8.65625 -10.15625 C 8.382812 -10.207031 8.164062 -10.234375 8 -10.234375 C 7.84375 -10.242188 7.617188 -10.25 7.328125 -10.25 C 6.796875 -10.25 6.492188 -10.238281 6.421875 -10.21875 C 6.265625 -10.1875 6.148438 -10.015625 6.078125 -9.703125 Z M 5.046875 -5.546875 "/></g></g></g><g fill="#e6c068" fill-opacity="1"><g transform="translate(215.186627, 202.827438)"><g><path d="M 0.984375 -0.1875 C 0.984375 -0.332031 1.015625 -0.414062 1.078125 -0.4375 C 1.148438 -0.46875 1.257812 -0.484375 1.40625 -0.484375 C 1.925781 -0.484375 2.253906 -0.519531 2.390625 -0.59375 C 2.535156 -0.675781 2.640625 -0.863281 2.703125 -1.15625 L 4.828125 -9.703125 C 4.867188 -9.847656 4.890625 -9.941406 4.890625 -9.984375 C 4.890625 -10.109375 4.816406 -10.179688 4.671875 -10.203125 C 4.523438 -10.234375 4.296875 -10.25 3.984375 -10.25 C 3.859375 -10.25 3.773438 -10.25 3.734375 -10.25 C 3.691406 -10.257812 3.648438 -10.28125 3.609375 -10.3125 C 3.578125 -10.34375 3.5625 -10.390625 3.5625 -10.453125 C 3.5625 -10.585938 3.585938 -10.671875 3.640625 -10.703125 C 3.703125 -10.734375 3.816406 -10.75 3.984375 -10.75 L 8.890625 -10.75 C 9.898438 -10.75 10.703125 -10.390625 11.296875 -9.671875 C 11.890625 -8.960938 12.1875 -8.035156 12.1875 -6.890625 C 12.1875 -5.734375 11.898438 -4.617188 11.328125 -3.546875 C 10.753906 -2.484375 10 -1.625 9.0625 -0.96875 C 8.132812 -0.320312 7.1875 0 6.21875 0 L 1.390625 0 C 1.285156 0 1.207031 0 1.15625 0 C 1.113281 -0.0078125 1.070312 -0.0234375 1.03125 -0.046875 C 1 -0.078125 0.984375 -0.125 0.984375 -0.1875 Z M 3.875 -0.828125 C 3.851562 -0.742188 3.84375 -0.679688 3.84375 -0.640625 C 3.84375 -0.597656 3.847656 -0.566406 3.859375 -0.546875 C 3.867188 -0.523438 3.910156 -0.507812 3.984375 -0.5 C 4.054688 -0.488281 4.171875 -0.484375 4.328125 -0.484375 L 5.953125 -0.484375 C 7.160156 -0.484375 8.207031 -1.003906 9.09375 -2.046875 C 9.6875 -2.734375 10.132812 -3.644531 10.4375 -4.78125 C 10.738281 -5.914062 10.890625 -6.816406 10.890625 -7.484375 C 10.890625 -8.441406 10.644531 -9.140625 10.15625 -9.578125 C 9.675781 -10.023438 9.082031 -10.25 8.375 -10.25 L 6.84375 -10.25 C 6.570312 -10.25 6.390625 -10.222656 6.296875 -10.171875 C 6.210938 -10.117188 6.140625 -9.960938 6.078125 -9.703125 L 3.90625 -0.984375 C 3.90625 -0.972656 3.894531 -0.921875 3.875 -0.828125 Z M 3.875 -0.828125 "/></g></g></g><g fill="#e6c068" fill-opacity="1"><g transform="translate(232.627879, 202.827438)"><g><path d="M 3.46875 -6.390625 C 3.46875 -6.441406 3.578125 -6.5625 3.796875 -6.75 C 4.691406 -7.550781 5.242188 -8.476562 5.453125 -9.53125 C 5.210938 -9.351562 4.984375 -9.265625 4.765625 -9.265625 C 4.554688 -9.265625 4.390625 -9.320312 4.265625 -9.4375 C 4.140625 -9.550781 4.078125 -9.707031 4.078125 -9.90625 C 4.078125 -10.15625 4.171875 -10.382812 4.359375 -10.59375 C 4.554688 -10.8125 4.800781 -10.921875 5.09375 -10.921875 C 5.289062 -10.921875 5.46875 -10.84375 5.625 -10.6875 C 5.78125 -10.539062 5.859375 -10.285156 5.859375 -9.921875 C 5.859375 -9.398438 5.695312 -8.835938 5.375 -8.234375 C 5.050781 -7.628906 4.710938 -7.144531 4.359375 -6.78125 C 4.015625 -6.414062 3.769531 -6.234375 3.625 -6.234375 C 3.519531 -6.234375 3.46875 -6.285156 3.46875 -6.390625 Z M 3.46875 -6.390625 "/></g></g></g><g fill="#e6c068" fill-opacity="1"><g transform="translate(243.019823, 202.827438)"><g><path d="M 1.171875 0.1875 C 1.171875 0.164062 1.1875 0.0976562 1.21875 -0.015625 L 2.03125 -3.296875 C 2.0625 -3.421875 2.09375 -3.5 2.125 -3.53125 C 2.15625 -3.5625 2.21875 -3.578125 2.3125 -3.578125 C 2.46875 -3.578125 2.546875 -3.515625 2.546875 -3.390625 C 2.546875 -3.378906 2.539062 -3.363281 2.53125 -3.34375 C 2.53125 -3.320312 2.53125 -3.304688 2.53125 -3.296875 C 2.445312 -2.992188 2.40625 -2.675781 2.40625 -2.34375 C 2.40625 -1.59375 2.632812 -1.035156 3.09375 -0.671875 C 3.550781 -0.316406 4.109375 -0.140625 4.765625 -0.140625 C 5.453125 -0.140625 6.0625 -0.457031 6.59375 -1.09375 C 7.132812 -1.726562 7.40625 -2.414062 7.40625 -3.15625 C 7.40625 -3.613281 7.285156 -3.988281 7.046875 -4.28125 C 6.921875 -4.414062 6.789062 -4.507812 6.65625 -4.5625 C 6.53125 -4.625 6.257812 -4.71875 5.84375 -4.84375 L 5.0625 -5.0625 C 4.6875 -5.164062 4.460938 -5.234375 4.390625 -5.265625 C 3.554688 -5.660156 3.140625 -6.347656 3.140625 -7.328125 C 3.140625 -8.265625 3.507812 -9.125 4.25 -9.90625 C 4.988281 -10.695312 5.832031 -11.09375 6.78125 -11.09375 C 7.726562 -11.09375 8.410156 -10.738281 8.828125 -10.03125 L 9.53125 -10.90625 C 9.632812 -11.03125 9.710938 -11.09375 9.765625 -11.09375 C 9.878906 -11.09375 9.9375 -11.046875 9.9375 -10.953125 C 9.9375 -10.878906 9.925781 -10.800781 9.90625 -10.71875 L 9.09375 -7.453125 C 9.0625 -7.328125 9.03125 -7.25 9 -7.21875 C 8.96875 -7.1875 8.90625 -7.171875 8.8125 -7.171875 C 8.65625 -7.171875 8.578125 -7.222656 8.578125 -7.328125 L 8.59375 -7.546875 C 8.644531 -7.835938 8.671875 -8.128906 8.671875 -8.421875 C 8.671875 -9.078125 8.519531 -9.609375 8.21875 -10.015625 C 7.925781 -10.429688 7.4375 -10.640625 6.75 -10.640625 C 6.09375 -10.640625 5.503906 -10.359375 4.984375 -9.796875 C 4.460938 -9.234375 4.203125 -8.617188 4.203125 -7.953125 C 4.203125 -7.265625 4.46875 -6.804688 5 -6.578125 C 5.113281 -6.535156 5.40625 -6.453125 5.875 -6.328125 C 6.65625 -6.097656 7.144531 -5.929688 7.34375 -5.828125 C 7.550781 -5.734375 7.75 -5.570312 7.9375 -5.34375 C 8.289062 -4.914062 8.46875 -4.378906 8.46875 -3.734375 C 8.46875 -2.722656 8.085938 -1.789062 7.328125 -0.9375 C 6.578125 -0.0820312 5.710938 0.34375 4.734375 0.34375 C 3.617188 0.34375 2.816406 -0.015625 2.328125 -0.734375 C 2.046875 -0.359375 1.800781 -0.0625 1.59375 0.15625 C 1.488281 0.28125 1.40625 0.34375 1.34375 0.34375 C 1.226562 0.34375 1.171875 0.289062 1.171875 0.1875 Z M 1.171875 0.1875 "/></g></g></g><g fill="#e6c068" fill-opacity="1"><g transform="translate(257.420198, 202.827438)"><g/></g></g><g fill="#e6c068" fill-opacity="1"><g transform="translate(268.618447, 202.827438)"><g><path d="M 0.984375 -0.1875 C 0.984375 -0.332031 1.015625 -0.414062 1.078125 -0.4375 C 1.148438 -0.46875 1.257812 -0.484375 1.40625 -0.484375 C 1.925781 -0.484375 2.253906 -0.519531 2.390625 -0.59375 C 2.535156 -0.675781 2.640625 -0.863281 2.703125 -1.15625 L 4.828125 -9.703125 C 4.867188 -9.847656 4.890625 -9.941406 4.890625 -9.984375 C 4.890625 -10.109375 4.816406 -10.179688 4.671875 -10.203125 C 4.523438 -10.234375 4.296875 -10.25 3.984375 -10.25 C 3.859375 -10.25 3.773438 -10.25 3.734375 -10.25 C 3.691406 -10.257812 3.648438 -10.28125 3.609375 -10.3125 C 3.578125 -10.34375 3.5625 -10.390625 3.5625 -10.453125 C 3.5625 -10.585938 3.585938 -10.671875 3.640625 -10.703125 C 3.703125 -10.734375 3.816406 -10.75 3.984375 -10.75 L 8.890625 -10.75 C 9.898438 -10.75 10.703125 -10.390625 11.296875 -9.671875 C 11.890625 -8.960938 12.1875 -8.035156 12.1875 -6.890625 C 12.1875 -5.734375 11.898438 -4.617188 11.328125 -3.546875 C 10.753906 -2.484375 10 -1.625 9.0625 -0.96875 C 8.132812 -0.320312 7.1875 0 6.21875 0 L 1.390625 0 C 1.285156 0 1.207031 0 1.15625 0 C 1.113281 -0.0078125 1.070312 -0.0234375 1.03125 -0.046875 C 1 -0.078125 0.984375 -0.125 0.984375 -0.1875 Z M 3.875 -0.828125 C 3.851562 -0.742188 3.84375 -0.679688 3.84375 -0.640625 C 3.84375 -0.597656 3.847656 -0.566406 3.859375 -0.546875 C 3.867188 -0.523438 3.910156 -0.507812 3.984375 -0.5 C 4.054688 -0.488281 4.171875 -0.484375 4.328125 -0.484375 L 5.953125 -0.484375 C 7.160156 -0.484375 8.207031 -1.003906 9.09375 -2.046875 C 9.6875 -2.734375 10.132812 -3.644531 10.4375 -4.78125 C 10.738281 -5.914062 10.890625 -6.816406 10.890625 -7.484375 C 10.890625 -8.441406 10.644531 -9.140625 10.15625 -9.578125 C 9.675781 -10.023438 9.082031 -10.25 8.375 -10.25 L 6.84375 -10.25 C 6.570312 -10.25 6.390625 -10.222656 6.296875 -10.171875 C 6.210938 -10.117188 6.140625 -9.960938 6.078125 -9.703125 L 3.90625 -0.984375 C 3.90625 -0.972656 3.894531 -0.921875 3.875 -0.828125 Z M 3.875 -0.828125 "/></g></g></g><g fill="#e6c068" fill-opacity="1"><g transform="translate(286.059699, 202.827438)"><g><path d="M 0.984375 -0.1875 C 0.984375 -0.332031 1.015625 -0.414062 1.078125 -0.4375 C 1.148438 -0.46875 1.257812 -0.484375 1.40625 -0.484375 C 1.925781 -0.484375 2.253906 -0.519531 2.390625 -0.59375 C 2.535156 -0.675781 2.640625 -0.863281 2.703125 -1.15625 L 4.828125 -9.703125 C 4.867188 -9.847656 4.890625 -9.941406 4.890625 -9.984375 C 4.890625 -10.109375 4.816406 -10.179688 4.671875 -10.203125 C 4.523438 -10.234375 4.296875 -10.25 3.984375 -10.25 C 3.859375 -10.25 3.773438 -10.25 3.734375 -10.25 C 3.691406 -10.257812 3.648438 -10.28125 3.609375 -10.3125 C 3.578125 -10.34375 3.5625 -10.390625 3.5625 -10.453125 C 3.5625 -10.585938 3.585938 -10.671875 3.640625 -10.703125 C 3.703125 -10.734375 3.816406 -10.75 3.984375 -10.75 L 8.140625 -10.75 C 9.085938 -10.75 9.847656 -10.519531 10.421875 -10.0625 C 11.003906 -9.613281 11.296875 -9.066406 11.296875 -8.421875 C 11.296875 -7.796875 11.007812 -7.191406 10.4375 -6.609375 C 9.863281 -6.035156 9.046875 -5.609375 7.984375 -5.328125 C 8.398438 -5.179688 8.726562 -4.945312 8.96875 -4.625 C 9.21875 -4.3125 9.34375 -3.941406 9.34375 -3.515625 C 9.34375 -3.234375 9.300781 -2.769531 9.21875 -2.125 C 9.15625 -1.582031 9.125 -1.179688 9.125 -0.921875 C 9.125 -0.722656 9.132812 -0.566406 9.15625 -0.453125 C 9.175781 -0.335938 9.222656 -0.234375 9.296875 -0.140625 C 9.378906 -0.046875 9.492188 0 9.640625 0 C 9.890625 0 10.125 -0.117188 10.34375 -0.359375 C 10.5625 -0.609375 10.738281 -0.953125 10.875 -1.390625 C 10.894531 -1.453125 10.910156 -1.5 10.921875 -1.53125 C 10.929688 -1.570312 10.953125 -1.601562 10.984375 -1.625 C 11.023438 -1.644531 11.078125 -1.65625 11.140625 -1.65625 C 11.296875 -1.65625 11.375 -1.582031 11.375 -1.4375 C 11.375 -1.351562 11.320312 -1.179688 11.21875 -0.921875 C 11.113281 -0.660156 10.914062 -0.382812 10.625 -0.09375 C 10.332031 0.195312 9.984375 0.34375 9.578125 0.34375 C 9.035156 0.34375 8.570312 0.203125 8.1875 -0.078125 C 7.8125 -0.359375 7.625 -0.773438 7.625 -1.328125 C 7.625 -1.492188 7.707031 -1.910156 7.875 -2.578125 C 8.050781 -3.296875 8.140625 -3.710938 8.140625 -3.828125 C 8.140625 -4.335938 7.992188 -4.691406 7.703125 -4.890625 C 7.410156 -5.097656 7.0625 -5.203125 6.65625 -5.203125 L 4.953125 -5.203125 L 3.9375 -1.0625 C 3.894531 -0.914062 3.875 -0.8125 3.875 -0.75 C 3.875 -0.6875 3.882812 -0.640625 3.90625 -0.609375 C 3.925781 -0.578125 4.003906 -0.546875 4.140625 -0.515625 C 4.285156 -0.492188 4.5 -0.484375 4.78125 -0.484375 C 4.914062 -0.484375 5.003906 -0.476562 5.046875 -0.46875 C 5.085938 -0.46875 5.125 -0.453125 5.15625 -0.421875 C 5.1875 -0.390625 5.203125 -0.34375 5.203125 -0.28125 C 5.203125 -0.09375 5.101562 0 4.90625 0 C 4.695312 0 4.378906 -0.00390625 3.953125 -0.015625 C 3.535156 -0.0351562 3.226562 -0.046875 3.03125 -0.046875 C 2.832031 -0.046875 2.53125 -0.0351562 2.125 -0.015625 C 1.71875 -0.00390625 1.414062 0 1.21875 0 C 1.0625 0 0.984375 -0.0625 0.984375 -0.1875 Z M 5.046875 -5.546875 L 6.640625 -5.546875 C 7.628906 -5.546875 8.40625 -5.820312 8.96875 -6.375 C 9.21875 -6.625 9.414062 -6.953125 9.5625 -7.359375 C 9.71875 -7.765625 9.804688 -8.070312 9.828125 -8.28125 C 9.859375 -8.5 9.875 -8.664062 9.875 -8.78125 C 9.875 -9.0625 9.8125 -9.300781 9.6875 -9.5 C 9.570312 -9.695312 9.4375 -9.84375 9.28125 -9.9375 C 9.132812 -10.039062 8.925781 -10.113281 8.65625 -10.15625 C 8.382812 -10.207031 8.164062 -10.234375 8 -10.234375 C 7.84375 -10.242188 7.617188 -10.25 7.328125 -10.25 C 6.796875 -10.25 6.492188 -10.238281 6.421875 -10.21875 C 6.265625 -10.1875 6.148438 -10.015625 6.078125 -9.703125 Z M 5.046875 -5.546875 "/></g></g></g><g fill="#e6c068" fill-opacity="1"><g transform="translate(303.086263, 202.827438)"><g><path d="M 0.96875 -0.1875 C 0.96875 -0.332031 1 -0.414062 1.0625 -0.4375 C 1.132812 -0.46875 1.242188 -0.484375 1.390625 -0.484375 C 1.910156 -0.484375 2.238281 -0.519531 2.375 -0.59375 C 2.519531 -0.675781 2.625 -0.863281 2.6875 -1.15625 L 4.796875 -9.578125 C 4.835938 -9.734375 4.859375 -9.851562 4.859375 -9.9375 C 4.859375 -10 4.847656 -10.046875 4.828125 -10.078125 C 4.804688 -10.117188 4.722656 -10.148438 4.578125 -10.171875 C 4.441406 -10.191406 4.234375 -10.203125 3.953125 -10.203125 C 3.816406 -10.203125 3.726562 -10.203125 3.6875 -10.203125 C 3.644531 -10.210938 3.609375 -10.234375 3.578125 -10.265625 C 3.546875 -10.296875 3.53125 -10.347656 3.53125 -10.421875 C 3.53125 -10.546875 3.554688 -10.625 3.609375 -10.65625 C 3.671875 -10.6875 3.785156 -10.703125 3.953125 -10.703125 L 11.296875 -10.703125 C 11.398438 -10.703125 11.46875 -10.695312 11.5 -10.6875 C 11.539062 -10.6875 11.582031 -10.671875 11.625 -10.640625 C 11.664062 -10.628906 11.6875 -10.601562 11.6875 -10.5625 C 11.6875 -10.550781 11.6875 -10.539062 11.6875 -10.53125 C 11.664062 -10.476562 11.660156 -10.394531 11.671875 -10.28125 L 11.3125 -7.5 C 11.300781 -7.40625 11.289062 -7.332031 11.28125 -7.28125 C 11.269531 -7.238281 11.242188 -7.207031 11.203125 -7.1875 C 11.171875 -7.164062 11.117188 -7.15625 11.046875 -7.15625 C 10.890625 -7.15625 10.8125 -7.21875 10.8125 -7.34375 C 10.8125 -7.414062 10.820312 -7.503906 10.84375 -7.609375 C 10.894531 -8.035156 10.921875 -8.375 10.921875 -8.625 C 10.921875 -9.207031 10.773438 -9.613281 10.484375 -9.84375 C 10.203125 -10.082031 9.648438 -10.203125 8.828125 -10.203125 L 6.859375 -10.203125 C 6.585938 -10.203125 6.410156 -10.175781 6.328125 -10.125 C 6.242188 -10.082031 6.171875 -9.9375 6.109375 -9.6875 L 5.140625 -5.8125 L 6.421875 -5.8125 C 7.046875 -5.8125 7.472656 -5.910156 7.703125 -6.109375 C 7.941406 -6.304688 8.140625 -6.691406 8.296875 -7.265625 C 8.347656 -7.492188 8.40625 -7.613281 8.46875 -7.625 C 8.5 -7.632812 8.539062 -7.640625 8.59375 -7.640625 C 8.757812 -7.640625 8.84375 -7.578125 8.84375 -7.453125 C 8.84375 -7.421875 8.828125 -7.351562 8.796875 -7.25 L 7.921875 -3.796875 C 7.890625 -3.660156 7.859375 -3.570312 7.828125 -3.53125 C 7.804688 -3.5 7.742188 -3.484375 7.640625 -3.484375 C 7.472656 -3.484375 7.394531 -3.546875 7.40625 -3.671875 C 7.40625 -3.691406 7.40625 -3.722656 7.40625 -3.765625 C 7.414062 -3.804688 7.421875 -3.832031 7.421875 -3.84375 C 7.515625 -4.1875 7.5625 -4.453125 7.5625 -4.640625 C 7.5625 -4.878906 7.488281 -5.050781 7.34375 -5.15625 C 7.195312 -5.257812 6.878906 -5.3125 6.390625 -5.3125 L 5.015625 -5.3125 L 3.9375 -0.984375 C 3.9375 -0.972656 3.925781 -0.921875 3.90625 -0.828125 C 3.882812 -0.742188 3.875 -0.679688 3.875 -0.640625 C 3.875 -0.597656 3.878906 -0.566406 3.890625 -0.546875 C 3.898438 -0.523438 3.941406 -0.507812 4.015625 -0.5 C 4.085938 -0.488281 4.203125 -0.484375 4.359375 -0.484375 L 6.28125 -0.484375 C 6.769531 -0.484375 7.195312 -0.53125 7.5625 -0.625 C 7.9375 -0.71875 8.242188 -0.832031 8.484375 -0.96875 C 8.734375 -1.113281 8.960938 -1.332031 9.171875 -1.625 C 9.390625 -1.925781 9.566406 -2.21875 9.703125 -2.5 C 9.847656 -2.78125 10.023438 -3.175781 10.234375 -3.6875 C 10.304688 -3.863281 10.359375 -3.96875 10.390625 -4 C 10.429688 -4.039062 10.492188 -4.0625 10.578125 -4.0625 C 10.734375 -4.0625 10.8125 -4.003906 10.8125 -3.890625 C 10.8125 -3.847656 10.789062 -3.785156 10.75 -3.703125 L 9.34375 -0.25 C 9.289062 -0.132812 9.242188 -0.0625 9.203125 -0.03125 C 9.160156 -0.0078125 9.0625 0 8.90625 0 L 1.375 0 C 1.269531 0 1.191406 0 1.140625 0 C 1.097656 -0.0078125 1.054688 -0.0234375 1.015625 -0.046875 C 0.984375 -0.078125 0.96875 -0.125 0.96875 -0.1875 Z M 0.96875 -0.1875 "/></g></g></g><g fill="#e6c068" fill-opacity="1"><g transform="translate(319.314259, 202.827438)"><g><path d="M 0.921875 -0.21875 C 0.921875 -0.363281 0.976562 -0.445312 1.09375 -0.46875 C 1.21875 -0.5 1.363281 -0.515625 1.53125 -0.515625 C 1.707031 -0.523438 1.929688 -0.632812 2.203125 -0.84375 C 2.472656 -1.050781 2.734375 -1.363281 2.984375 -1.78125 L 8.140625 -10.84375 C 8.148438 -10.851562 8.164062 -10.882812 8.1875 -10.9375 C 8.21875 -10.988281 8.242188 -11.023438 8.265625 -11.046875 C 8.296875 -11.078125 8.328125 -11.113281 8.359375 -11.15625 C 8.398438 -11.195312 8.441406 -11.222656 8.484375 -11.234375 C 8.535156 -11.253906 8.585938 -11.265625 8.640625 -11.265625 C 8.679688 -11.265625 8.71875 -11.257812 8.75 -11.25 C 8.78125 -11.25 8.804688 -11.234375 8.828125 -11.203125 C 8.847656 -11.179688 8.863281 -11.164062 8.875 -11.15625 C 8.882812 -11.144531 8.894531 -11.117188 8.90625 -11.078125 C 8.914062 -11.035156 8.921875 -11.007812 8.921875 -11 C 8.921875 -10.988281 8.925781 -10.957031 8.9375 -10.90625 L 8.9375 -10.828125 L 9.609375 -1.046875 C 9.617188 -0.804688 9.675781 -0.65625 9.78125 -0.59375 C 9.882812 -0.53125 10.101562 -0.492188 10.4375 -0.484375 C 10.71875 -0.484375 10.859375 -0.410156 10.859375 -0.265625 C 10.859375 -0.0859375 10.753906 0 10.546875 0 C 10.492188 0 10.300781 -0.00390625 9.96875 -0.015625 C 9.644531 -0.0351562 9.296875 -0.046875 8.921875 -0.046875 C 8.554688 -0.046875 8.238281 -0.0390625 7.96875 -0.03125 C 7.707031 -0.03125 7.507812 -0.0234375 7.375 -0.015625 C 7.25 -0.00390625 7.175781 0 7.15625 0 C 7 0 6.921875 -0.0703125 6.921875 -0.21875 C 6.921875 -0.320312 6.960938 -0.394531 7.046875 -0.4375 C 7.128906 -0.476562 7.226562 -0.492188 7.34375 -0.484375 C 7.46875 -0.484375 7.609375 -0.5 7.765625 -0.53125 C 7.921875 -0.5625 8.0625 -0.625 8.1875 -0.71875 C 8.269531 -0.789062 8.3125 -0.9375 8.3125 -1.15625 C 8.3125 -1.21875 8.300781 -1.34375 8.28125 -1.53125 C 8.269531 -1.71875 8.25 -2.003906 8.21875 -2.390625 C 8.195312 -2.785156 8.171875 -3.195312 8.140625 -3.625 L 4.546875 -3.625 C 4.453125 -3.445312 4.347656 -3.257812 4.234375 -3.0625 C 4.128906 -2.875 4.039062 -2.722656 3.96875 -2.609375 C 3.90625 -2.492188 3.832031 -2.367188 3.75 -2.234375 C 3.675781 -2.097656 3.617188 -1.988281 3.578125 -1.90625 C 3.535156 -1.832031 3.488281 -1.75 3.4375 -1.65625 C 3.382812 -1.570312 3.347656 -1.503906 3.328125 -1.453125 C 3.304688 -1.398438 3.285156 -1.34375 3.265625 -1.28125 C 3.242188 -1.226562 3.226562 -1.179688 3.21875 -1.140625 C 3.21875 -1.097656 3.21875 -1.054688 3.21875 -1.015625 C 3.21875 -0.867188 3.257812 -0.753906 3.34375 -0.671875 C 3.4375 -0.585938 3.535156 -0.539062 3.640625 -0.53125 C 3.753906 -0.519531 3.851562 -0.492188 3.9375 -0.453125 C 4.03125 -0.421875 4.078125 -0.367188 4.078125 -0.296875 C 4.078125 -0.0976562 3.96875 0 3.75 0 C 3.71875 0 3.640625 -0.00390625 3.515625 -0.015625 C 3.398438 -0.0234375 3.238281 -0.03125 3.03125 -0.03125 C 2.820312 -0.0390625 2.597656 -0.046875 2.359375 -0.046875 C 2.160156 -0.046875 1.9375 -0.0351562 1.6875 -0.015625 C 1.445312 -0.00390625 1.3125 0 1.28125 0 C 1.039062 0 0.921875 -0.0703125 0.921875 -0.21875 Z M 4.828125 -4.09375 L 8.109375 -4.09375 L 7.765625 -9.234375 Z M 4.828125 -4.09375 "/></g></g></g><g fill="#e6c068" fill-opacity="1"><g transform="translate(336.563525, 202.827438)"><g><path d="M 1.03125 -0.1875 C 1.03125 -0.382812 1.132812 -0.484375 1.34375 -0.484375 C 1.75 -0.503906 2.078125 -0.585938 2.328125 -0.734375 C 2.578125 -0.890625 2.753906 -1.175781 2.859375 -1.59375 L 4.875 -9.703125 C 4.914062 -9.847656 4.9375 -9.941406 4.9375 -9.984375 C 4.9375 -10.109375 4.863281 -10.179688 4.71875 -10.203125 C 4.570312 -10.234375 4.34375 -10.25 4.03125 -10.25 C 3.90625 -10.25 3.816406 -10.25 3.765625 -10.25 C 3.722656 -10.257812 3.6875 -10.28125 3.65625 -10.3125 C 3.625 -10.34375 3.609375 -10.390625 3.609375 -10.453125 C 3.609375 -10.585938 3.640625 -10.671875 3.703125 -10.703125 C 3.765625 -10.734375 3.875 -10.75 4.03125 -10.75 L 6.125 -10.75 C 6.320312 -10.75 6.441406 -10.726562 6.484375 -10.6875 C 6.523438 -10.65625 6.550781 -10.5625 6.5625 -10.40625 L 7.4375 -1.578125 L 12.796875 -10.46875 C 12.878906 -10.601562 12.945312 -10.679688 13 -10.703125 C 13.0625 -10.734375 13.179688 -10.75 13.359375 -10.75 L 15.375 -10.75 C 15.476562 -10.75 15.550781 -10.742188 15.59375 -10.734375 C 15.644531 -10.734375 15.6875 -10.71875 15.71875 -10.6875 C 15.75 -10.65625 15.765625 -10.609375 15.765625 -10.546875 C 15.765625 -10.410156 15.734375 -10.328125 15.671875 -10.296875 C 15.609375 -10.265625 15.484375 -10.25 15.296875 -10.25 C 14.816406 -10.25 14.503906 -10.210938 14.359375 -10.140625 C 14.210938 -10.066406 14.109375 -9.894531 14.046875 -9.625 L 11.921875 -1.109375 C 11.878906 -0.953125 11.859375 -0.832031 11.859375 -0.75 C 11.859375 -0.6875 11.867188 -0.640625 11.890625 -0.609375 C 11.910156 -0.578125 11.992188 -0.546875 12.140625 -0.515625 C 12.285156 -0.492188 12.5 -0.484375 12.78125 -0.484375 C 12.90625 -0.484375 12.988281 -0.476562 13.03125 -0.46875 C 13.082031 -0.46875 13.125 -0.453125 13.15625 -0.421875 C 13.1875 -0.390625 13.203125 -0.34375 13.203125 -0.28125 C 13.203125 -0.09375 13.101562 0 12.90625 0 C 12.707031 0 12.398438 -0.00390625 11.984375 -0.015625 C 11.578125 -0.0351562 11.273438 -0.046875 11.078125 -0.046875 C 10.878906 -0.046875 10.578125 -0.0351562 10.171875 -0.015625 C 9.765625 -0.00390625 9.46875 0 9.28125 0 C 9.132812 0 9.0625 -0.0625 9.0625 -0.1875 C 9.0625 -0.332031 9.09375 -0.414062 9.15625 -0.4375 C 9.21875 -0.46875 9.328125 -0.484375 9.484375 -0.484375 C 9.992188 -0.484375 10.320312 -0.519531 10.46875 -0.59375 C 10.613281 -0.675781 10.71875 -0.863281 10.78125 -1.15625 L 13 -10.0625 L 12.984375 -10.0625 L 7.109375 -0.28125 C 7.003906 -0.09375 6.878906 0 6.734375 0 C 6.660156 0 6.601562 -0.015625 6.5625 -0.046875 C 6.53125 -0.078125 6.507812 -0.109375 6.5 -0.140625 C 6.488281 -0.179688 6.476562 -0.257812 6.46875 -0.375 L 5.515625 -9.90625 L 5.5 -9.90625 L 3.390625 -1.5625 C 3.347656 -1.394531 3.328125 -1.265625 3.328125 -1.171875 C 3.328125 -1.085938 3.332031 -1.015625 3.34375 -0.953125 C 3.363281 -0.898438 3.398438 -0.832031 3.453125 -0.75 C 3.515625 -0.675781 3.613281 -0.613281 3.75 -0.5625 C 3.882812 -0.519531 4.054688 -0.492188 4.265625 -0.484375 C 4.460938 -0.484375 4.5625 -0.414062 4.5625 -0.28125 C 4.5625 -0.09375 4.46875 0 4.28125 0 C 4.125 0 3.867188 -0.00390625 3.515625 -0.015625 C 3.160156 -0.0351562 2.898438 -0.046875 2.734375 -0.046875 C 2.566406 -0.046875 2.316406 -0.0351562 1.984375 -0.015625 C 1.648438 -0.00390625 1.40625 0 1.25 0 C 1.101562 0 1.03125 -0.0625 1.03125 -0.1875 Z M 1.03125 -0.1875 "/></g></g></g><g transform="matrix(1, 0, 0, 1, 21, 128)"><g clip-path="url(#6d614f00de)"><g fill="#000000" fill-opacity="1"><g transform="translate(0.595663, 43.811253)"><g><path d="M 50.859375 -0.40625 C 49.328125 1.257812 47.5625 2.09375 45.5625 2.09375 C 43.5625 2.09375 41.640625 1.128906 39.796875 -0.796875 C 37.953125 -2.722656 36.414062 -5.476562 35.1875 -9.0625 C 33.957031 -12.644531 33.101562 -15.851562 32.625 -18.6875 C 31.53125 -16.507812 30.675781 -14.847656 30.0625 -13.703125 C 29.445312 -12.554688 28.539062 -11.09375 27.34375 -9.3125 C 26.15625 -7.539062 24.910156 -5.9375 23.609375 -4.5 C 19.578125 -0.164062 15.019531 2 9.9375 2 C 5.320312 2 2.453125 0.753906 1.328125 -1.734375 C 1.054688 -2.316406 0.921875 -2.992188 0.921875 -3.765625 C 0.921875 -4.535156 1.3125 -5.363281 2.09375 -6.25 C 3.363281 -7.644531 5.109375 -8.34375 7.328125 -8.34375 C 8.828125 -8.34375 10.414062 -8.054688 12.09375 -7.484375 C 12.53125 -7.304688 12.695312 -7.113281 12.59375 -6.90625 C 12.5 -6.707031 12.054688 -6.757812 11.265625 -7.0625 C 10.484375 -7.375 9.535156 -7.53125 8.421875 -7.53125 C 7.316406 -7.53125 6.363281 -7.101562 5.5625 -6.25 C 4.757812 -5.394531 4.359375 -4.503906 4.359375 -3.578125 C 4.359375 -3.171875 4.441406 -2.726562 4.609375 -2.25 C 5.296875 -0.476562 6.898438 0.40625 9.421875 0.40625 C 12.222656 0.40625 14.695312 -0.425781 16.84375 -2.09375 C 18.070312 -3.050781 19.179688 -4.023438 20.171875 -5.015625 C 21.171875 -6.003906 22.234375 -7.335938 23.359375 -9.015625 C 25.128906 -11.578125 26.640625 -13.957031 27.890625 -16.15625 C 29.140625 -18.363281 30.488281 -20.769531 31.9375 -23.375 C 33.382812 -25.988281 34.453125 -27.894531 35.140625 -29.09375 C 37.316406 -32.8125 39.3125 -35.660156 41.125 -37.640625 C 39.21875 -37.816406 37.304688 -37.90625 35.390625 -37.90625 C 31.023438 -37.90625 26.679688 -37.453125 22.359375 -36.546875 C 18.035156 -35.640625 14.613281 -34.144531 12.09375 -32.0625 C 8.914062 -29.4375 7.328125 -26.632812 7.328125 -23.65625 C 7.328125 -22.226562 7.835938 -20.957031 8.859375 -19.84375 C 9.878906 -18.738281 11.265625 -18.1875 13.015625 -18.1875 C 15.128906 -18.1875 16.882812 -18.9375 18.28125 -20.4375 C 19.6875 -21.9375 20.421875 -23.128906 20.484375 -24.015625 C 20.515625 -24.460938 20.617188 -24.6875 20.796875 -24.6875 C 21.066406 -24.6875 21.1875 -24.429688 21.15625 -23.921875 C 20.914062 -22.273438 20.25 -20.890625 19.15625 -19.765625 C 17.238281 -17.785156 14.953125 -16.796875 12.296875 -16.796875 C 10.273438 -16.796875 8.519531 -17.476562 7.03125 -18.84375 C 5.550781 -20.207031 4.8125 -22.035156 4.8125 -24.328125 C 4.8125 -27.710938 6.457031 -30.742188 9.75 -33.421875 C 13.050781 -36.097656 17.378906 -37.832031 22.734375 -38.625 C 26.566406 -39.164062 30.09375 -39.4375 33.3125 -39.4375 C 36.539062 -39.4375 39.519531 -39.25 42.25 -38.875 C 43.144531 -39.832031 43.757812 -40.3125 44.09375 -40.3125 C 44.300781 -40.3125 44.40625 -40.148438 44.40625 -39.828125 C 44.40625 -39.503906 44.320312 -39.101562 44.15625 -38.625 C 46.675781 -38.207031 48.363281 -37.878906 49.21875 -37.640625 C 54.34375 -36.140625 56.90625 -33.820312 56.90625 -30.6875 C 56.90625 -28.664062 55.660156 -26.664062 53.171875 -24.6875 C 50.023438 -22.257812 45.820312 -20.617188 40.5625 -19.765625 C 39.0625 -19.523438 37.492188 -19.375 35.859375 -19.3125 C 36.941406 -13.269531 38.832031 -8.179688 41.53125 -4.046875 C 42.457031 -2.648438 43.300781 -1.632812 44.0625 -1 C 44.832031 -0.363281 45.664062 -0.046875 46.5625 -0.046875 C 47.789062 -0.046875 49.09375 -0.726562 50.46875 -2.09375 C 51.851562 -3.46875 53.453125 -5.960938 55.265625 -9.578125 C 55.535156 -10.085938 55.804688 -10.34375 56.078125 -10.34375 C 56.359375 -10.34375 56.378906 -10.085938 56.140625 -9.578125 C 54.160156 -5.140625 52.398438 -2.082031 50.859375 -0.40625 Z M 53.21875 -31.453125 C 53.21875 -31.722656 53.179688 -31.992188 53.109375 -32.265625 C 52.734375 -34.179688 51.21875 -35.546875 48.5625 -36.359375 C 47.738281 -36.597656 46.0625 -36.925781 43.53125 -37.34375 C 42.914062 -36.28125 41.410156 -33.800781 39.015625 -29.90625 C 36.628906 -26.019531 34.859375 -22.929688 33.703125 -20.640625 C 34.453125 -20.773438 35.550781 -20.898438 37 -21.015625 C 38.457031 -21.140625 39.507812 -21.238281 40.15625 -21.3125 C 44.050781 -21.789062 47.363281 -23.304688 50.09375 -25.859375 C 52.175781 -27.773438 53.21875 -29.640625 53.21875 -31.453125 Z M 53.21875 -31.453125 "/></g></g></g><g fill="#000000" fill-opacity="1"><g transform="translate(53.040072, 43.811253)"><g><path d="M 12.234375 -17.921875 C 14.734375 -17.921875 15.984375 -16.351562 15.984375 -13.21875 C 15.984375 -11.78125 15.609375 -10.242188 14.859375 -8.609375 C 13.898438 -6.390625 12.460938 -4.375 10.546875 -2.5625 C 10.992188 -1.707031 11.796875 -1.28125 12.953125 -1.28125 C 13.878906 -1.28125 14.753906 -1.738281 15.578125 -2.65625 C 16.597656 -3.71875 17.328125 -4.648438 17.765625 -5.453125 C 18.210938 -6.253906 18.535156 -6.84375 18.734375 -7.21875 C 18.941406 -7.59375 19.207031 -8.128906 19.53125 -8.828125 C 19.863281 -9.535156 20.0625 -9.960938 20.125 -10.109375 C 20.195312 -10.265625 20.316406 -10.34375 20.484375 -10.34375 C 20.828125 -10.375 21 -10.253906 21 -9.984375 C 21 -9.878906 20.960938 -9.757812 20.890625 -9.625 L 20.59375 -8.90625 C 20.382812 -8.425781 20.226562 -8.082031 20.125 -7.875 C 20.019531 -7.675781 19.835938 -7.3125 19.578125 -6.78125 C 19.328125 -6.257812 19.109375 -5.84375 18.921875 -5.53125 C 18.734375 -5.226562 18.476562 -4.816406 18.15625 -4.296875 C 17.832031 -3.785156 17.539062 -3.375 17.28125 -3.0625 C 17.03125 -2.757812 16.71875 -2.421875 16.34375 -2.046875 C 15.96875 -1.671875 15.609375 -1.378906 15.265625 -1.171875 C 14.410156 -0.660156 13.609375 -0.40625 12.859375 -0.40625 C 11.453125 -0.40625 10.359375 -0.847656 9.578125 -1.734375 C 8.003906 -0.578125 6.550781 0 5.21875 0 C 2.726562 0 1.484375 -1.570312 1.484375 -4.71875 C 1.484375 -6.144531 1.859375 -7.679688 2.609375 -9.328125 C 3.640625 -11.710938 5.082031 -13.738281 6.9375 -15.40625 C 8.800781 -17.082031 10.566406 -17.921875 12.234375 -17.921875 Z M 12.796875 -16.34375 C 11.878906 -16.34375 10.785156 -15.726562 9.515625 -14.5 C 8.253906 -13.269531 7.128906 -11.59375 6.140625 -9.46875 C 4.953125 -7.007812 4.359375 -4.992188 4.359375 -3.421875 C 4.359375 -1.859375 4.953125 -1.078125 6.140625 -1.078125 C 6.992188 -1.078125 7.953125 -1.535156 9.015625 -2.453125 C 8.460938 -3.242188 8.1875 -4.082031 8.1875 -4.96875 C 8.257812 -6.4375 8.859375 -7.171875 9.984375 -7.171875 C 10.429688 -7.171875 10.800781 -7.015625 11.09375 -6.703125 C 11.382812 -6.398438 11.53125 -6.117188 11.53125 -5.859375 C 11.53125 -5.609375 11.492188 -5.347656 11.421875 -5.078125 C 12.003906 -5.921875 12.671875 -7.128906 13.421875 -8.703125 C 14.273438 -10.441406 14.703125 -12.148438 14.703125 -13.828125 C 14.703125 -15.503906 14.066406 -16.34375 12.796875 -16.34375 Z M 12.796875 -16.34375 "/></g></g></g><g fill="#000000" fill-opacity="1"><g transform="translate(70.197178, 43.811253)"><g><path d="M 12.234375 -17.921875 C 14.734375 -17.921875 15.984375 -16.351562 15.984375 -13.21875 C 15.984375 -11.78125 15.609375 -10.242188 14.859375 -8.609375 C 13.898438 -6.390625 12.460938 -4.375 10.546875 -2.5625 C 10.992188 -1.707031 11.796875 -1.28125 12.953125 -1.28125 C 13.878906 -1.28125 14.753906 -1.738281 15.578125 -2.65625 C 16.597656 -3.71875 17.328125 -4.648438 17.765625 -5.453125 C 18.210938 -6.253906 18.535156 -6.84375 18.734375 -7.21875 C 18.941406 -7.59375 19.207031 -8.128906 19.53125 -8.828125 C 19.863281 -9.535156 20.0625 -9.960938 20.125 -10.109375 C 20.195312 -10.265625 20.316406 -10.34375 20.484375 -10.34375 C 20.828125 -10.375 21 -10.253906 21 -9.984375 C 21 -9.878906 20.960938 -9.757812 20.890625 -9.625 L 20.59375 -8.90625 C 20.382812 -8.425781 20.226562 -8.082031 20.125 -7.875 C 20.019531 -7.675781 19.835938 -7.3125 19.578125 -6.78125 C 19.328125 -6.257812 19.109375 -5.84375 18.921875 -5.53125 C 18.734375 -5.226562 18.476562 -4.816406 18.15625 -4.296875 C 17.832031 -3.785156 17.539062 -3.375 17.28125 -3.0625 C 17.03125 -2.757812 16.71875 -2.421875 16.34375 -2.046875 C 15.96875 -1.671875 15.609375 -1.378906 15.265625 -1.171875 C 14.410156 -0.660156 13.609375 -0.40625 12.859375 -0.40625 C 11.453125 -0.40625 10.359375 -0.847656 9.578125 -1.734375 C 8.003906 -0.578125 6.550781 0 5.21875 0 C 2.726562 0 1.484375 -1.570312 1.484375 -4.71875 C 1.484375 -6.144531 1.859375 -7.679688 2.609375 -9.328125 C 3.640625 -11.710938 5.082031 -13.738281 6.9375 -15.40625 C 8.800781 -17.082031 10.566406 -17.921875 12.234375 -17.921875 Z M 12.796875 -16.34375 C 11.878906 -16.34375 10.785156 -15.726562 9.515625 -14.5 C 8.253906 -13.269531 7.128906 -11.59375 6.140625 -9.46875 C 4.953125 -7.007812 4.359375 -4.992188 4.359375 -3.421875 C 4.359375 -1.859375 4.953125 -1.078125 6.140625 -1.078125 C 6.992188 -1.078125 7.953125 -1.535156 9.015625 -2.453125 C 8.460938 -3.242188 8.1875 -4.082031 8.1875 -4.96875 C 8.257812 -6.4375 8.859375 -7.171875 9.984375 -7.171875 C 10.429688 -7.171875 10.800781 -7.015625 11.09375 -6.703125 C 11.382812 -6.398438 11.53125 -6.117188 11.53125 -5.859375 C 11.53125 -5.609375 11.492188 -5.347656 11.421875 -5.078125 C 12.003906 -5.921875 12.671875 -7.128906 13.421875 -8.703125 C 14.273438 -10.441406 14.703125 -12.148438 14.703125 -13.828125 C 14.703125 -15.503906 14.066406 -16.34375 12.796875 -16.34375 Z M 12.796875 -16.34375 "/></g></g></g><g fill="#000000" fill-opacity="1"><g transform="translate(87.354284, 43.811253)"><g><path d="M 27.140625 -16.796875 C 22.972656 -9.390625 20.890625 -4.609375 20.890625 -2.453125 C 20.890625 -1.503906 21.21875 -1.03125 21.875 -1.03125 C 22.6875 -1.03125 23.625 -1.644531 24.6875 -2.875 C 26.289062 -4.8125 27.691406 -7.148438 28.890625 -9.890625 C 29.085938 -10.367188 29.289062 -10.554688 29.5 -10.453125 C 29.707031 -10.347656 29.8125 -10.207031 29.8125 -10.03125 C 29.8125 -9.863281 29.640625 -9.4375 29.296875 -8.75 C 28.953125 -8.070312 28.675781 -7.523438 28.46875 -7.109375 C 28.269531 -6.703125 27.820312 -5.914062 27.125 -4.75 C 26.425781 -3.59375 25.828125 -2.742188 25.328125 -2.203125 C 24.828125 -1.660156 24.191406 -1.125 23.421875 -0.59375 C 22.660156 -0.0625 21.789062 0.203125 20.8125 0.203125 C 19.84375 0.203125 19.019531 -0.273438 18.34375 -1.234375 C 18.03125 -1.671875 17.875 -2.273438 17.875 -3.046875 C 17.875 -3.816406 18.046875 -4.75 18.390625 -5.84375 C 18.734375 -6.9375 19.671875 -8.710938 21.203125 -11.171875 C 21.578125 -11.785156 21.765625 -12.269531 21.765625 -12.625 C 21.765625 -12.976562 21.484375 -13.15625 20.921875 -13.15625 C 20.359375 -13.15625 19.34375 -12.472656 17.875 -11.109375 C 16.40625 -9.742188 14.859375 -7.898438 13.234375 -5.578125 C 11.617188 -3.253906 10.65625 -1.394531 10.34375 0 C 9.757812 0 9.332031 -0.238281 9.0625 -0.71875 C 8.789062 -1.195312 8.65625 -1.609375 8.65625 -1.953125 C 8.65625 -3.347656 9.59375 -6.007812 11.46875 -9.9375 C 12.082031 -11.226562 12.40625 -12.101562 12.4375 -12.5625 C 12.476562 -13.03125 12.421875 -13.269531 12.265625 -13.28125 C 12.109375 -13.300781 11.894531 -13.242188 11.625 -13.109375 C 11.007812 -12.804688 10.070312 -12.054688 8.8125 -10.859375 C 6.414062 -8.671875 4.054688 -5.34375 1.734375 -0.875 C 1.566406 -0.5 1.351562 -0.265625 1.09375 -0.171875 C 0.84375 -0.0859375 0.34375 -0.03125 -0.40625 0 C -1.15625 0.03125 -1.648438 0.113281 -1.890625 0.25 C -1.273438 -0.9375 -0.203125 -3.171875 1.328125 -6.453125 C 4.097656 -12.328125 5.941406 -15.707031 6.859375 -16.59375 C 7.273438 -17 7.835938 -17.203125 8.546875 -17.203125 C 8.691406 -17.203125 9.046875 -17.148438 9.609375 -17.046875 C 10.171875 -16.953125 10.585938 -16.9375 10.859375 -17 C 9.597656 -16.320312 7.53125 -13.113281 4.65625 -7.375 C 6.257812 -9.351562 7.410156 -10.648438 8.109375 -11.265625 C 8.816406 -11.878906 9.335938 -12.335938 9.671875 -12.640625 C 10.015625 -12.953125 10.28125 -13.191406 10.46875 -13.359375 C 10.65625 -13.535156 10.925781 -13.785156 11.28125 -14.109375 C 11.644531 -14.429688 11.921875 -14.671875 12.109375 -14.828125 C 12.296875 -14.984375 12.5625 -15.195312 12.90625 -15.46875 C 13.25 -15.738281 13.515625 -15.914062 13.703125 -16 C 13.890625 -16.09375 14.144531 -16.238281 14.46875 -16.4375 C 14.789062 -16.644531 15.03125 -16.75 15.1875 -16.75 C 15.34375 -16.75 15.554688 -16.789062 15.828125 -16.875 C 16.097656 -16.957031 16.285156 -16.929688 16.390625 -16.796875 C 17.078125 -16.523438 17.421875 -16.097656 17.421875 -15.515625 C 17.421875 -15.003906 16.835938 -13.691406 15.671875 -11.578125 C 14.515625 -9.460938 13.765625 -8.0625 13.421875 -7.375 C 14.921875 -9.25 16.351562 -10.789062 17.71875 -12 C 19.082031 -13.21875 20.695312 -14.335938 22.5625 -15.359375 C 24.425781 -16.390625 25.785156 -16.90625 26.640625 -16.90625 C 26.835938 -16.90625 27.003906 -16.867188 27.140625 -16.796875 Z M 27.140625 -16.796875 "/></g></g></g><g fill="#000000" fill-opacity="1"><g transform="translate(113.320409, 43.811253)"><g><path d="M 7.3125 -0.96875 C 7.757812 -0.90625 8.066406 -0.875 8.234375 -0.875 C 9.609375 -0.875 10.957031 -1.675781 12.28125 -3.28125 C 13 -4.164062 14.28125 -6.398438 16.125 -9.984375 C 16.195312 -10.160156 16.316406 -10.25 16.484375 -10.25 C 16.796875 -10.28125 16.953125 -10.160156 16.953125 -9.890625 C 16.953125 -9.816406 16.875 -9.617188 16.71875 -9.296875 C 16.5625 -8.972656 16.414062 -8.648438 16.28125 -8.328125 C 16.144531 -8.003906 15.921875 -7.535156 15.609375 -6.921875 C 15.304688 -6.304688 15.039062 -5.804688 14.8125 -5.421875 C 14.59375 -5.046875 14.3125 -4.585938 13.96875 -4.046875 C 13.632812 -3.503906 13.296875 -3.078125 12.953125 -2.765625 L 11.875 -1.640625 C 11.289062 -1.054688 10.609375 -0.644531 9.828125 -0.40625 C 8.566406 0 7.335938 0.03125 6.140625 -0.3125 C 5.359375 0.03125 4.660156 0.203125 4.046875 0.203125 C 1.617188 0.203125 0.148438 -0.75 -0.359375 -2.65625 C -0.460938 -3.101562 -0.515625 -3.640625 -0.515625 -4.265625 C -0.515625 -4.898438 -0.300781 -5.507812 0.125 -6.09375 C 0.550781 -6.675781 1.003906 -6.984375 1.484375 -7.015625 C 3.222656 -10.328125 4.707031 -13.316406 5.9375 -15.984375 C 7.300781 -18.878906 8.890625 -20.328125 10.703125 -20.328125 C 11.179688 -20.328125 11.648438 -20.21875 12.109375 -20 C 12.566406 -19.78125 12.734375 -19.53125 12.609375 -19.25 C 12.492188 -18.976562 12.25 -18.925781 11.875 -19.09375 C 11.5 -19.269531 11.175781 -19.359375 10.90625 -19.359375 C 10.632812 -19.359375 10.394531 -19.304688 10.1875 -19.203125 C 9.03125 -18.660156 8.453125 -17.484375 8.453125 -15.671875 C 8.453125 -14.710938 8.585938 -13.925781 8.859375 -13.3125 C 9.128906 -12.695312 9.4375 -12.03125 9.78125 -11.3125 C 10.5625 -9.539062 10.953125 -8.09375 10.953125 -6.96875 C 10.953125 -5.84375 10.59375 -4.734375 9.875 -3.640625 C 9.164062 -2.546875 8.3125 -1.65625 7.3125 -0.96875 Z M 5.578125 -1.328125 C 7.078125 -2.492188 7.828125 -4.375 7.828125 -6.96875 C 7.828125 -8.019531 7.707031 -9.46875 7.46875 -11.3125 C 7.226562 -13.15625 7.109375 -14.398438 7.109375 -15.046875 C 7.109375 -15.703125 7.128906 -16.148438 7.171875 -16.390625 C 4.578125 -11.203125 2.972656 -8.046875 2.359375 -6.921875 C 3.066406 -6.921875 3.421875 -6.40625 3.421875 -5.375 C 3.421875 -3.363281 4.140625 -2.015625 5.578125 -1.328125 Z M 1.734375 -2.71875 C 1.734375 -2.507812 1.75 -2.285156 1.78125 -2.046875 C 2.0625 -1.128906 2.695312 -0.671875 3.6875 -0.671875 C 4.09375 -0.671875 4.429688 -0.738281 4.703125 -0.875 C 3.441406 -1.65625 2.757812 -2.9375 2.65625 -4.71875 C 2.039062 -4.101562 1.734375 -3.4375 1.734375 -2.71875 Z M 1.734375 -2.71875 "/></g></g></g><g fill="#000000" fill-opacity="1"><g transform="translate(126.431511, 43.811253)"><g/></g></g><g fill="#000000" fill-opacity="1"><g transform="translate(139.696262, 43.811253)"><g><path d="M 51.375 -31.25 C 44.476562 -34.65625 38.925781 -36.359375 34.71875 -36.359375 C 30.519531 -36.359375 27.003906 -35.164062 24.171875 -32.78125 C 21.472656 -30.488281 20.125 -28.03125 20.125 -25.40625 C 20.125 -24.039062 20.617188 -23.050781 21.609375 -22.4375 C 22.941406 -21.6875 24.207031 -21.3125 25.40625 -21.3125 C 25.851562 -21.3125 26.296875 -21.359375 26.734375 -21.453125 C 28.304688 -21.835938 29.640625 -22.472656 30.734375 -23.359375 C 31.828125 -24.242188 32.375 -24.957031 32.375 -25.5 C 32.375 -26.050781 32.535156 -26.425781 32.859375 -26.625 C 33.179688 -26.832031 33.34375 -26.765625 33.34375 -26.421875 C 33.34375 -26.222656 33.289062 -25.988281 33.1875 -25.71875 C 32.46875 -23.289062 30.796875 -21.632812 28.171875 -20.75 C 27.046875 -20.375 25.882812 -20.1875 24.6875 -20.1875 C 23.488281 -20.1875 22.3125 -20.539062 21.15625 -21.25 C 18.96875 -22.476562 17.875 -24.359375 17.875 -26.890625 C 17.875 -29.929688 19.273438 -32.695312 22.078125 -35.1875 C 24.878906 -37.675781 28.289062 -38.921875 32.3125 -38.921875 C 34.300781 -38.921875 36.300781 -38.632812 38.3125 -38.0625 C 43.363281 -36.6875 47.9375 -34.703125 52.03125 -32.109375 C 53.09375 -33.273438 54.1875 -33.859375 55.3125 -33.859375 C 56.582031 -33.859375 57.234375 -33.429688 57.265625 -32.578125 C 57.296875 -32.203125 57.175781 -32.03125 56.90625 -32.0625 C 56.726562 -32.09375 56.539062 -32.226562 56.34375 -32.46875 C 56.070312 -32.570312 55.816406 -32.625 55.578125 -32.625 C 54.828125 -32.625 54.054688 -32.25 53.265625 -31.5 C 55.796875 -30.238281 58.765625 -29.160156 62.171875 -28.265625 C 63.503906 -27.960938 64.5625 -27.8125 65.34375 -27.8125 C 66.132812 -27.8125 66.734375 -27.828125 67.140625 -27.859375 C 68.648438 -28.035156 69.625 -28.597656 70.0625 -29.546875 C 70.300781 -30.066406 70.515625 -30.382812 70.703125 -30.5 C 70.890625 -30.625 71.003906 -30.566406 71.046875 -30.328125 C 71.046875 -30.222656 71.046875 -30.082031 71.046875 -29.90625 C 71.046875 -28.507812 70.328125 -27.453125 68.890625 -26.734375 C 68.003906 -26.296875 67.164062 -26.078125 66.375 -26.078125 C 65.59375 -26.078125 64.738281 -26.148438 63.8125 -26.296875 C 62.894531 -26.453125 61.703125 -26.769531 60.234375 -27.25 C 58.765625 -27.726562 57.566406 -28.171875 56.640625 -28.578125 C 55.722656 -28.984375 54.820312 -29.410156 53.9375 -29.859375 L 52.5 -30.578125 C 50.71875 -28.566406 48.820312 -25.101562 46.8125 -20.1875 C 46.164062 -18.539062 45.789062 -17.597656 45.6875 -17.359375 C 47.664062 -17.085938 49.488281 -16.953125 51.15625 -16.953125 C 52.832031 -16.953125 54.15625 -16.976562 55.125 -17.03125 C 56.101562 -17.082031 56.609375 -16.972656 56.640625 -16.703125 C 56.679688 -15.953125 54.140625 -15.578125 49.015625 -15.578125 C 47.378906 -15.578125 46.066406 -15.644531 45.078125 -15.78125 C 42.953125 -9.96875 40.832031 -5.664062 38.71875 -2.875 C 37.832031 -1.707031 36.722656 -0.484375 35.390625 0.796875 C 34.054688 2.078125 32.640625 3.109375 31.140625 3.890625 C 27.765625 5.734375 23.992188 6.65625 19.828125 6.65625 C 15.660156 6.65625 12.125 5.734375 9.21875 3.890625 C 4.8125 1.160156 2.609375 -2.78125 2.609375 -7.9375 C 2.609375 -9.675781 2.898438 -11.535156 3.484375 -13.515625 C 3.890625 -14.816406 4.644531 -15.960938 5.75 -16.953125 C 6.863281 -17.941406 7.796875 -18.546875 8.546875 -18.765625 C 9.304688 -18.992188 9.660156 -19.035156 9.609375 -18.890625 C 9.554688 -18.753906 8.96875 -18.296875 7.84375 -17.515625 C 5.613281 -15.910156 4.296875 -13.929688 3.890625 -11.578125 C 3.722656 -10.722656 3.640625 -9.734375 3.640625 -8.609375 C 3.640625 -7.484375 3.894531 -6.253906 4.40625 -4.921875 C 5.800781 -1.296875 8.703125 1.367188 13.109375 3.078125 C 15.191406 3.859375 17.425781 4.25 19.8125 4.25 C 22.207031 4.25 24.582031 3.769531 26.9375 2.8125 C 29.289062 1.863281 31.476562 0.429688 33.5 -1.484375 C 37.425781 -5.203125 40.671875 -10.015625 43.234375 -15.921875 L 39.953125 -15.984375 C 35.953125 -15.984375 33.320312 -15.0625 32.0625 -13.21875 C 31.757812 -12.84375 31.507812 -12.75 31.3125 -12.9375 C 31.125 -13.125 31.101562 -13.367188 31.25 -13.671875 C 32 -15.316406 33.054688 -16.492188 34.421875 -17.203125 C 35.785156 -17.921875 37.140625 -18.28125 38.484375 -18.28125 C 39.835938 -18.28125 41.660156 -18.128906 43.953125 -17.828125 C 45.003906 -20.421875 46.34375 -23.113281 47.96875 -25.90625 C 49.59375 -28.707031 50.726562 -30.488281 51.375 -31.25 Z M 51.375 -31.25 "/></g></g></g><g fill="#000000" fill-opacity="1"><g transform="translate(193.369831, 43.811253)"><g><path d="M 12.234375 -17.921875 C 14.734375 -17.921875 15.984375 -16.351562 15.984375 -13.21875 C 15.984375 -11.78125 15.609375 -10.242188 14.859375 -8.609375 C 13.898438 -6.390625 12.460938 -4.375 10.546875 -2.5625 C 10.992188 -1.707031 11.796875 -1.28125 12.953125 -1.28125 C 13.878906 -1.28125 14.753906 -1.738281 15.578125 -2.65625 C 16.597656 -3.71875 17.328125 -4.648438 17.765625 -5.453125 C 18.210938 -6.253906 18.535156 -6.84375 18.734375 -7.21875 C 18.941406 -7.59375 19.207031 -8.128906 19.53125 -8.828125 C 19.863281 -9.535156 20.0625 -9.960938 20.125 -10.109375 C 20.195312 -10.265625 20.316406 -10.34375 20.484375 -10.34375 C 20.828125 -10.375 21 -10.253906 21 -9.984375 C 21 -9.878906 20.960938 -9.757812 20.890625 -9.625 L 20.59375 -8.90625 C 20.382812 -8.425781 20.226562 -8.082031 20.125 -7.875 C 20.019531 -7.675781 19.835938 -7.3125 19.578125 -6.78125 C 19.328125 -6.257812 19.109375 -5.84375 18.921875 -5.53125 C 18.734375 -5.226562 18.476562 -4.816406 18.15625 -4.296875 C 17.832031 -3.785156 17.539062 -3.375 17.28125 -3.0625 C 17.03125 -2.757812 16.71875 -2.421875 16.34375 -2.046875 C 15.96875 -1.671875 15.609375 -1.378906 15.265625 -1.171875 C 14.410156 -0.660156 13.609375 -0.40625 12.859375 -0.40625 C 11.453125 -0.40625 10.359375 -0.847656 9.578125 -1.734375 C 8.003906 -0.578125 6.550781 0 5.21875 0 C 2.726562 0 1.484375 -1.570312 1.484375 -4.71875 C 1.484375 -6.144531 1.859375 -7.679688 2.609375 -9.328125 C 3.640625 -11.710938 5.082031 -13.738281 6.9375 -15.40625 C 8.800781 -17.082031 10.566406 -17.921875 12.234375 -17.921875 Z M 12.796875 -16.34375 C 11.878906 -16.34375 10.785156 -15.726562 9.515625 -14.5 C 8.253906 -13.269531 7.128906 -11.59375 6.140625 -9.46875 C 4.953125 -7.007812 4.359375 -4.992188 4.359375 -3.421875 C 4.359375 -1.859375 4.953125 -1.078125 6.140625 -1.078125 C 6.992188 -1.078125 7.953125 -1.535156 9.015625 -2.453125 C 8.460938 -3.242188 8.1875 -4.082031 8.1875 -4.96875 C 8.257812 -6.4375 8.859375 -7.171875 9.984375 -7.171875 C 10.429688 -7.171875 10.800781 -7.015625 11.09375 -6.703125 C 11.382812 -6.398438 11.53125 -6.117188 11.53125 -5.859375 C 11.53125 -5.609375 11.492188 -5.347656 11.421875 -5.078125 C 12.003906 -5.921875 12.671875 -7.128906 13.421875 -8.703125 C 14.273438 -10.441406 14.703125 -12.148438 14.703125 -13.828125 C 14.703125 -15.503906 14.066406 -16.34375 12.796875 -16.34375 Z M 12.796875 -16.34375 "/></g></g></g><g fill="#000000" fill-opacity="1"><g transform="translate(210.52695, 43.811253)"><g><path d="M 9.828125 -20.53125 C 9.828125 -19 8.851562 -17.550781 6.90625 -16.1875 C 7.59375 -16.15625 8.503906 -16.140625 9.640625 -16.140625 C 10.785156 -16.140625 12.234375 -16.222656 13.984375 -16.390625 C 14.046875 -16.285156 14.078125 -16.007812 14.078125 -15.5625 C 14.078125 -15.125 13.867188 -14.46875 13.453125 -13.59375 C 13.046875 -12.726562 12.679688 -11.976562 12.359375 -11.34375 C 12.035156 -10.707031 11.726562 -10.109375 11.4375 -9.546875 C 11.144531 -8.984375 10.820312 -8.289062 10.46875 -7.46875 C 10.113281 -6.65625 9.816406 -5.90625 9.578125 -5.21875 C 8.722656 -2.625 8.859375 -1.328125 9.984375 -1.328125 C 11.421875 -1.328125 13.535156 -4.179688 16.328125 -9.890625 C 16.566406 -10.328125 16.765625 -10.492188 16.921875 -10.390625 C 17.078125 -10.296875 17.15625 -10.171875 17.15625 -10.015625 C 17.15625 -9.859375 16.929688 -9.328125 16.484375 -8.421875 C 16.046875 -7.515625 15.566406 -6.582031 15.046875 -5.625 C 14.535156 -4.675781 13.734375 -3.570312 12.640625 -2.3125 C 11.347656 -0.738281 10.101562 0.046875 8.90625 0.046875 C 7.570312 0.046875 6.648438 -0.753906 6.140625 -2.359375 C 6.035156 -2.660156 5.984375 -3.117188 5.984375 -3.734375 C 5.984375 -4.347656 6.179688 -5.164062 6.578125 -6.1875 C 6.972656 -7.21875 7.597656 -8.46875 8.453125 -9.9375 C 9.304688 -11.40625 9.78125 -12.265625 9.875 -12.515625 C 9.976562 -12.773438 10.03125 -13.023438 10.03125 -13.265625 C 10.03125 -14.328125 8.664062 -14.890625 5.9375 -14.953125 L 5.328125 -13.3125 C 3.171875 -7.675781 1.101562 -3.90625 -0.875 -2 C -1.21875 -1.6875 -1.390625 -1.789062 -1.390625 -2.3125 C -1.390625 -2.40625 -1.351562 -2.519531 -1.28125 -2.65625 C 0.625 -5.1875 2.273438 -8.175781 3.671875 -11.625 C 5.078125 -15.070312 6.054688 -18.347656 6.609375 -21.453125 C 6.804688 -22.515625 7.28125 -23.046875 8.03125 -23.046875 C 8.78125 -23.046875 9.328125 -22.566406 9.671875 -21.609375 C 9.773438 -21.304688 9.828125 -20.945312 9.828125 -20.53125 Z M 9.828125 -20.53125 "/></g></g></g><g fill="#000000" fill-opacity="1"><g transform="translate(223.842917, 43.811253)"><g/></g></g><g fill="#000000" fill-opacity="1"><g transform="translate(237.107667, 43.811253)"><g><path d="M 50.859375 -0.40625 C 49.328125 1.257812 47.5625 2.09375 45.5625 2.09375 C 43.5625 2.09375 41.640625 1.128906 39.796875 -0.796875 C 37.953125 -2.722656 36.414062 -5.476562 35.1875 -9.0625 C 33.957031 -12.644531 33.101562 -15.851562 32.625 -18.6875 C 31.53125 -16.507812 30.675781 -14.847656 30.0625 -13.703125 C 29.445312 -12.554688 28.539062 -11.09375 27.34375 -9.3125 C 26.15625 -7.539062 24.910156 -5.9375 23.609375 -4.5 C 19.578125 -0.164062 15.019531 2 9.9375 2 C 5.320312 2 2.453125 0.753906 1.328125 -1.734375 C 1.054688 -2.316406 0.921875 -2.992188 0.921875 -3.765625 C 0.921875 -4.535156 1.3125 -5.363281 2.09375 -6.25 C 3.363281 -7.644531 5.109375 -8.34375 7.328125 -8.34375 C 8.828125 -8.34375 10.414062 -8.054688 12.09375 -7.484375 C 12.53125 -7.304688 12.695312 -7.113281 12.59375 -6.90625 C 12.5 -6.707031 12.054688 -6.757812 11.265625 -7.0625 C 10.484375 -7.375 9.535156 -7.53125 8.421875 -7.53125 C 7.316406 -7.53125 6.363281 -7.101562 5.5625 -6.25 C 4.757812 -5.394531 4.359375 -4.503906 4.359375 -3.578125 C 4.359375 -3.171875 4.441406 -2.726562 4.609375 -2.25 C 5.296875 -0.476562 6.898438 0.40625 9.421875 0.40625 C 12.222656 0.40625 14.695312 -0.425781 16.84375 -2.09375 C 18.070312 -3.050781 19.179688 -4.023438 20.171875 -5.015625 C 21.171875 -6.003906 22.234375 -7.335938 23.359375 -9.015625 C 25.128906 -11.578125 26.640625 -13.957031 27.890625 -16.15625 C 29.140625 -18.363281 30.488281 -20.769531 31.9375 -23.375 C 33.382812 -25.988281 34.453125 -27.894531 35.140625 -29.09375 C 37.316406 -32.8125 39.3125 -35.660156 41.125 -37.640625 C 39.21875 -37.816406 37.304688 -37.90625 35.390625 -37.90625 C 31.023438 -37.90625 26.679688 -37.453125 22.359375 -36.546875 C 18.035156 -35.640625 14.613281 -34.144531 12.09375 -32.0625 C 8.914062 -29.4375 7.328125 -26.632812 7.328125 -23.65625 C 7.328125 -22.226562 7.835938 -20.957031 8.859375 -19.84375 C 9.878906 -18.738281 11.265625 -18.1875 13.015625 -18.1875 C 15.128906 -18.1875 16.882812 -18.9375 18.28125 -20.4375 C 19.6875 -21.9375 20.421875 -23.128906 20.484375 -24.015625 C 20.515625 -24.460938 20.617188 -24.6875 20.796875 -24.6875 C 21.066406 -24.6875 21.1875 -24.429688 21.15625 -23.921875 C 20.914062 -22.273438 20.25 -20.890625 19.15625 -19.765625 C 17.238281 -17.785156 14.953125 -16.796875 12.296875 -16.796875 C 10.273438 -16.796875 8.519531 -17.476562 7.03125 -18.84375 C 5.550781 -20.207031 4.8125 -22.035156 4.8125 -24.328125 C 4.8125 -27.710938 6.457031 -30.742188 9.75 -33.421875 C 13.050781 -36.097656 17.378906 -37.832031 22.734375 -38.625 C 26.566406 -39.164062 30.09375 -39.4375 33.3125 -39.4375 C 36.539062 -39.4375 39.519531 -39.25 42.25 -38.875 C 43.144531 -39.832031 43.757812 -40.3125 44.09375 -40.3125 C 44.300781 -40.3125 44.40625 -40.148438 44.40625 -39.828125 C 44.40625 -39.503906 44.320312 -39.101562 44.15625 -38.625 C 46.675781 -38.207031 48.363281 -37.878906 49.21875 -37.640625 C 54.34375 -36.140625 56.90625 -33.820312 56.90625 -30.6875 C 56.90625 -28.664062 55.660156 -26.664062 53.171875 -24.6875 C 50.023438 -22.257812 45.820312 -20.617188 40.5625 -19.765625 C 39.0625 -19.523438 37.492188 -19.375 35.859375 -19.3125 C 36.941406 -13.269531 38.832031 -8.179688 41.53125 -4.046875 C 42.457031 -2.648438 43.300781 -1.632812 44.0625 -1 C 44.832031 -0.363281 45.664062 -0.046875 46.5625 -0.046875 C 47.789062 -0.046875 49.09375 -0.726562 50.46875 -2.09375 C 51.851562 -3.46875 53.453125 -5.960938 55.265625 -9.578125 C 55.535156 -10.085938 55.804688 -10.34375 56.078125 -10.34375 C 56.359375 -10.34375 56.378906 -10.085938 56.140625 -9.578125 C 54.160156 -5.140625 52.398438 -2.082031 50.859375 -0.40625 Z M 53.21875 -31.453125 C 53.21875 -31.722656 53.179688 -31.992188 53.109375 -32.265625 C 52.734375 -34.179688 51.21875 -35.546875 48.5625 -36.359375 C 47.738281 -36.597656 46.0625 -36.925781 43.53125 -37.34375 C 42.914062 -36.28125 41.410156 -33.800781 39.015625 -29.90625 C 36.628906 -26.019531 34.859375 -22.929688 33.703125 -20.640625 C 34.453125 -20.773438 35.550781 -20.898438 37 -21.015625 C 38.457031 -21.140625 39.507812 -21.238281 40.15625 -21.3125 C 44.050781 -21.789062 47.363281 -23.304688 50.09375 -25.859375 C 52.175781 -27.773438 53.21875 -29.640625 53.21875 -31.453125 Z M 53.21875 -31.453125 "/></g></g></g><g fill="#000000" fill-opacity="1"><g transform="translate(289.552076, 43.811253)"><g><path d="M 5.171875 -7.890625 C 4.691406 -6.722656 4.453125 -5.425781 4.453125 -4 C 4.453125 -3.039062 4.664062 -2.28125 5.09375 -1.71875 C 5.519531 -1.15625 6.128906 -0.875 6.921875 -0.875 C 10.023438 -0.875 12.835938 -3.789062 15.359375 -9.625 C 15.597656 -10.175781 15.890625 -10.414062 16.234375 -10.34375 C 16.367188 -10.3125 16.4375 -10.226562 16.4375 -10.09375 C 16.4375 -9.957031 16.050781 -9.0625 15.28125 -7.40625 C 14.519531 -5.75 13.742188 -4.40625 12.953125 -3.375 C 11.210938 -0.988281 9.0625 0.203125 6.5 0.203125 C 5.132812 0.203125 3.972656 -0.238281 3.015625 -1.125 C 2.066406 -2.007812 1.59375 -3.21875 1.59375 -4.75 C 1.59375 -6.289062 1.957031 -7.921875 2.6875 -9.640625 C 3.425781 -11.367188 4.425781 -12.976562 5.6875 -14.46875 C 6.945312 -15.957031 8.394531 -17.039062 10.03125 -17.71875 C 10.820312 -18.0625 11.578125 -18.234375 12.296875 -18.234375 C 13.015625 -18.234375 13.679688 -18.03125 14.296875 -17.625 C 14.867188 -17.144531 15.15625 -16.613281 15.15625 -16.03125 C 15.15625 -13.976562 13.925781 -12.015625 11.46875 -10.140625 C 10.71875 -9.554688 9.660156 -9.035156 8.296875 -8.578125 C 6.929688 -8.117188 5.890625 -7.890625 5.171875 -7.890625 Z M 13.78125 -16.078125 C 13.78125 -16.765625 13.503906 -17.109375 12.953125 -17.109375 C 12.003906 -17.109375 10.554688 -15.929688 8.609375 -13.578125 C 7.441406 -12.140625 6.414062 -10.535156 5.53125 -8.765625 C 6.113281 -8.765625 6.957031 -8.96875 8.0625 -9.375 C 9.175781 -9.78125 10.140625 -10.328125 10.953125 -11.015625 C 12.835938 -12.617188 13.78125 -14.304688 13.78125 -16.078125 Z M 13.78125 -16.078125 "/></g></g></g><g fill="#000000" fill-opacity="1"><g transform="translate(302.151019, 43.811253)"><g><path d="M 18.390625 -16.796875 C 14.191406 -9.421875 12.09375 -4.609375 12.09375 -2.359375 C 12.09375 -1.472656 12.414062 -1.03125 13.0625 -1.03125 C 14.800781 -1.03125 17.140625 -3.984375 20.078125 -9.890625 C 20.285156 -10.367188 20.488281 -10.554688 20.6875 -10.453125 C 20.894531 -10.347656 21 -10.207031 21 -10.03125 C 21 -9.863281 20.929688 -9.660156 20.796875 -9.421875 C 18.984375 -5.765625 17.453125 -3.242188 16.203125 -1.859375 C 14.960938 -0.484375 13.71875 0.203125 12.46875 0.203125 C 11.226562 0.203125 10.28125 -0.273438 9.625 -1.234375 C 9.28125 -1.671875 9.109375 -2.273438 9.109375 -3.046875 C 9.109375 -3.816406 9.28125 -4.75 9.625 -5.84375 C 9.96875 -6.9375 10.910156 -8.710938 12.453125 -11.171875 C 12.828125 -11.785156 13.015625 -12.269531 13.015625 -12.625 C 13.015625 -12.976562 12.722656 -13.15625 12.140625 -13.15625 C 11.554688 -13.15625 10.445312 -12.390625 8.8125 -10.859375 C 6.351562 -8.609375 3.976562 -5.226562 1.6875 -0.71875 C 1.488281 -0.375 1.257812 -0.160156 1 -0.078125 C 0.738281 0.00390625 0.234375 0.0625 -0.515625 0.09375 C -1.265625 0.132812 -1.757812 0.222656 -2 0.359375 C -1.445312 -0.734375 -0.367188 -2.96875 1.234375 -6.34375 C 4.097656 -12.320312 5.972656 -15.738281 6.859375 -16.59375 C 7.273438 -17 7.835938 -17.203125 8.546875 -17.203125 C 8.691406 -17.203125 9.046875 -17.148438 9.609375 -17.046875 C 10.171875 -16.953125 10.585938 -16.9375 10.859375 -17 C 9.597656 -16.320312 7.53125 -13.113281 4.65625 -7.375 C 6.257812 -9.351562 7.71875 -10.929688 9.03125 -12.109375 C 10.351562 -13.285156 11.9375 -14.378906 13.78125 -15.390625 C 15.625 -16.398438 16.972656 -16.90625 17.828125 -16.90625 C 18.023438 -16.90625 18.210938 -16.867188 18.390625 -16.796875 Z M 18.390625 -16.796875 "/></g></g></g><g fill="#000000" fill-opacity="1"><g transform="translate(319.308112, 43.811253)"><g><path d="M 1.640625 -4.09375 C 1.640625 -6.925781 3.003906 -11.675781 5.734375 -18.34375 L 3.078125 -18.34375 C 2.898438 -18.34375 2.785156 -18.4375 2.734375 -18.625 C 2.679688 -18.8125 2.695312 -19 2.78125 -19.1875 C 2.875 -19.375 3.003906 -19.46875 3.171875 -19.46875 L 6.25 -19.46875 C 7.476562 -22.164062 8.617188 -24.414062 9.671875 -26.21875 C 10.734375 -28.03125 11.707031 -29.25 12.59375 -29.875 C 13.488281 -30.507812 14.128906 -30.828125 14.515625 -30.828125 C 14.910156 -30.828125 15.191406 -30.796875 15.359375 -30.734375 C 16.148438 -30.359375 16.546875 -29.582031 16.546875 -28.40625 C 16.546875 -27.226562 16.148438 -25.800781 15.359375 -24.125 C 14.578125 -22.445312 13.8125 -20.894531 13.0625 -19.46875 L 15.515625 -19.46875 C 15.691406 -19.46875 15.800781 -19.375 15.84375 -19.1875 C 15.894531 -19 15.878906 -18.8125 15.796875 -18.625 C 15.710938 -18.4375 15.585938 -18.34375 15.421875 -18.34375 L 12.453125 -18.34375 C 10.566406 -15.164062 8.296875 -12.347656 5.640625 -9.890625 L 4.453125 -4.65625 C 4.347656 -4.21875 4.296875 -3.785156 4.296875 -3.359375 C 4.296875 -2.929688 4.414062 -2.492188 4.65625 -2.046875 C 4.894531 -1.609375 5.269531 -1.390625 5.78125 -1.390625 C 6.363281 -1.390625 7.015625 -1.59375 7.734375 -2 C 9.367188 -3.226562 11.175781 -5.804688 13.15625 -9.734375 C 13.300781 -10.035156 13.46875 -10.21875 13.65625 -10.28125 C 13.84375 -10.351562 13.953125 -10.3125 13.984375 -10.15625 C 14.015625 -10.007812 13.960938 -9.765625 13.828125 -9.421875 C 12.703125 -7.066406 11.816406 -5.394531 11.171875 -4.40625 C 9.328125 -1.4375 7.363281 0.046875 5.28125 0.046875 C 4.21875 0.046875 3.34375 -0.34375 2.65625 -1.125 C 1.976562 -1.914062 1.640625 -2.90625 1.640625 -4.09375 Z M 11.9375 -19.46875 C 14.1875 -23.488281 15.3125 -26.285156 15.3125 -27.859375 C 15.3125 -28.546875 15.191406 -28.890625 14.953125 -28.890625 C 14.578125 -28.890625 14.003906 -28.34375 13.234375 -27.25 C 12.472656 -26.15625 11.1875 -23.5625 9.375 -19.46875 Z M 11.265625 -18.34375 L 8.859375 -18.34375 C 8.453125 -17.382812 7.53125 -15.113281 6.09375 -11.53125 C 7.9375 -13.4375 9.660156 -15.707031 11.265625 -18.34375 Z M 11.265625 -18.34375 "/></g></g></g><g fill="#000000" fill-opacity="1"><g transform="translate(329.553891, 43.811253)"><g/></g></g><g fill="#000000" fill-opacity="1"><g transform="translate(329.553891, 43.811253)"><g/></g></g><g fill="#000000" fill-opacity="1"><g transform="translate(342.821745, 43.811253)"><g/></g></g></g></g></svg>